KantumruyPro-BoldItalic.ufo
<glyph name="exclam" format="2">
	<unicode hex="0021"/>
	<advance width="300"/>
	<outline>
		<contour>
			<point x="71" y="215" type="line"/>
			<point x="209" y="215" type="line"/>
			<point x="283" y="447" type="line"/>
			<point x="332" y="660" type="line"/>
			<point x="154" y="660" type="line"/>
			<point x="105" y="447" type="line"/>
		</contour>
		<contour>
			<point x="106.333" y="-8.547" type="curve" smooth="yes"/>
			<point x="168.609" y="-8.547"/>
			<point x="207.531" y="29.188"/>
			<point x="207.531" y="88.619" type="curve" smooth="yes"/>
			<point x="207.531" y="134.844"/>
			<point x="171.528" y="161.258"/>
			<point x="117.037" y="161.258" type="curve" smooth="yes"/>
			<point x="53.788" y="161.258"/>
			<point x="15.838" y="122.58"/>
			<point x="15.838" y="63.148" type="curve" smooth="yes"/>
			<point x="15.838" y="16.924"/>
			<point x="51.842" y="-8.547"/>
		</contour>
	</outline>
	<anchor name="_center" x="15.838" y="63.148"/>
</glyph>
<glyph name="numbersign" format="2">
	<unicode hex="0023"/>
	<advance width="679"/>
	<outline>
		<contour>
			<point x="312" y="0" type="line"/>
			<point x="430" y="0" type="line"/>
			<point x="643" y="660" type="line"/>
			<point x="523" y="660" type="line"/>
		</contour>
		<contour>
			<point x="32" y="159" type="line"/>
			<point x="616" y="159" type="line"/>
			<point x="617" y="261" type="line"/>
			<point x="32" y="261" type="line"/>
		</contour>
		<contour>
			<point x="70" y="0" type="line"/>
			<point x="189" y="0" type="line"/>
			<point x="401" y="660" type="line"/>
			<point x="282" y="660" type="line"/>
		</contour>
		<contour>
			<point x="100" y="399" type="line"/>
			<point x="684" y="399" type="line"/>
			<point x="684" y="501" type="line"/>
			<point x="100" y="501" type="line"/>
		</contour>
	</outline>
</glyph>
<glyph name="dollar" format="2">
  <advance width="626"/>
  <unicode hex="0024"/>
  <outline>
    <contour>
      <point x="322" y="-1" type="curve" smooth="yes"/>
      <point x="462" y="-1"/>
      <point x="575" y="75"/>
      <point x="575" y="215" type="curve" smooth="yes"/>
      <point x="575" y="291"/>
      <point x="526" y="347"/>
      <point x="439" y="373" type="curve" smooth="yes"/>
      <point x="309" y="412" type="line" smooth="yes"/>
      <point x="266" y="425"/>
      <point x="249" y="449"/>
      <point x="249" y="474" type="curve" smooth="yes"/>
      <point x="249" y="509"/>
      <point x="285" y="541"/>
      <point x="353" y="541" type="curve" smooth="yes"/>
      <point x="435" y="541"/>
      <point x="499" y="512"/>
      <point x="548" y="431" type="curve"/>
      <point x="646" y="519" type="line"/>
      <point x="585" y="616"/>
      <point x="474" y="660"/>
      <point x="361" y="660" type="curve" smooth="yes"/>
      <point x="208" y="660"/>
      <point x="96" y="584"/>
      <point x="96" y="454" type="curve" smooth="yes"/>
      <point x="96" y="368"/>
      <point x="156" y="309"/>
      <point x="250" y="281" type="curve" smooth="yes"/>
      <point x="354" y="250" type="line" smooth="yes"/>
      <point x="408" y="234"/>
      <point x="425" y="216"/>
      <point x="425" y="188" type="curve" smooth="yes"/>
      <point x="425" y="150"/>
      <point x="394" y="119"/>
      <point x="331" y="119" type="curve" smooth="yes"/>
      <point x="238" y="119"/>
      <point x="143" y="165"/>
      <point x="99" y="253" type="curve"/>
      <point x="-2" y="159" type="line"/>
      <point x="64" y="50"/>
      <point x="185" y="-1"/>
    </contour>
    <contour>
      <point x="187" y="-88" type="line"/>
      <point x="292" y="-88" type="line"/>
      <point x="485" y="748" type="line"/>
      <point x="381" y="748" type="line"/>
    </contour>
  </outline>
</glyph>
<glyph name="percent" format="2">
  <advance width="1001"/>
  <unicode hex="0025"/>
  <outline>
    <contour>
      <point x="137" y="0" type="line"/>
      <point x="280" y="0" type="line"/>
      <point x="900" y="661" type="line"/>
      <point x="758" y="661" type="line"/>
    </contour>
    <contour>
      <point x="257" y="294" type="curve" smooth="yes"/>
      <point x="373" y="294"/>
      <point x="458" y="386"/>
      <point x="458" y="502" type="curve" smooth="yes"/>
      <point x="458" y="603"/>
      <point x="389" y="670"/>
      <point x="285" y="670" type="curve" smooth="yes"/>
      <point x="169" y="670"/>
      <point x="85" y="578"/>
      <point x="85" y="462" type="curve" smooth="yes"/>
      <point x="85" y="361"/>
      <point x="154" y="294"/>
    </contour>
    <contour>
      <point x="263" y="408" type="curve" smooth="yes"/>
      <point x="230" y="408"/>
      <point x="210" y="430"/>
      <point x="210" y="466" type="curve" smooth="yes"/>
      <point x="210" y="512"/>
      <point x="235" y="556"/>
      <point x="280" y="556" type="curve" smooth="yes"/>
      <point x="312" y="556"/>
      <point x="333" y="534"/>
      <point x="333" y="498" type="curve" smooth="yes"/>
      <point x="333" y="452"/>
      <point x="306" y="408"/>
    </contour>
    <contour>
      <point x="753" y="-9" type="curve" smooth="yes"/>
      <point x="869" y="-9"/>
      <point x="954" y="82"/>
      <point x="954" y="199" type="curve" smooth="yes"/>
      <point x="954" y="300"/>
      <point x="885" y="367"/>
      <point x="781" y="367" type="curve" smooth="yes"/>
      <point x="665" y="367"/>
      <point x="581" y="275"/>
      <point x="581" y="158" type="curve" smooth="yes"/>
      <point x="581" y="57"/>
      <point x="650" y="-9"/>
    </contour>
    <contour>
      <point x="759" y="105" type="curve" smooth="yes"/>
      <point x="726" y="105"/>
      <point x="706" y="127"/>
      <point x="706" y="162" type="curve" smooth="yes"/>
      <point x="706" y="209"/>
      <point x="731" y="253"/>
      <point x="776" y="253" type="curve" smooth="yes"/>
      <point x="808" y="253"/>
      <point x="829" y="230"/>
      <point x="829" y="195" type="curve" smooth="yes"/>
      <point x="829" y="149"/>
      <point x="802" y="105"/>
    </contour>
  </outline>
</glyph>
<glyph name="ampersand" format="2">
	<advance width="633"/>
	<unicode hex="0026"/>
	<outline>
		<contour>
			<point x="225" y="-10" type="curve" smooth="yes"/>
			<point x="324" y="-10"/>
			<point x="387" y="30"/>
			<point x="444" y="78" type="curve"/>
			<point x="465" y="92" type="line"/>
			<point x="524" y="138"/>
			<point x="571" y="220"/>
			<point x="594" y="312" type="curve"/>
			<point x="480" y="315" type="line"/>
			<point x="466" y="248"/>
			<point x="440" y="201"/>
			<point x="406" y="170" type="curve"/>
			<point x="385" y="158" type="line"/>
			<point x="349" y="124"/>
			<point x="314" y="100"/>
			<point x="264" y="100" type="curve" smooth="yes"/>
			<point x="203" y="100"/>
			<point x="162" y="132"/>
			<point x="162" y="189" type="curve" smooth="yes"/>
			<point x="162" y="258"/>
			<point x="220" y="291"/>
			<point x="301" y="310" type="curve"/>
			<point x="308" y="329" type="line"/>
			<point x="450" y="355"/>
			<point x="544" y="422"/>
			<point x="544" y="537" type="curve" smooth="yes"/>
			<point x="544" y="617"/>
			<point x="479" y="670"/>
			<point x="375" y="670" type="curve" smooth="yes"/>
			<point x="251" y="670"/>
			<point x="169" y="591"/>
			<point x="169" y="476" type="curve" smooth="yes"/>
			<point x="169" y="401"/>
			<point x="197" y="324"/>
			<point x="287" y="183" type="curve" smooth="yes"/>
			<point x="367" y="57"/>
			<point x="440" y="-10"/>
			<point x="547" y="-10" type="curve" smooth="yes"/>
			<point x="564" y="-10" type="line"/>
			<point x="595" y="101" type="line"/>
			<point x="508" y="93"/>
			<point x="447" y="165"/>
			<point x="389" y="261" type="curve" smooth="yes"/>
			<point x="317" y="379"/>
			<point x="301" y="436"/>
			<point x="301" y="481" type="curve" smooth="yes"/>
			<point x="301" y="526"/>
			<point x="324" y="559"/>
			<point x="367" y="559" type="curve" smooth="yes"/>
			<point x="394" y="559"/>
			<point x="415" y="541"/>
			<point x="415" y="508" type="curve" smooth="yes"/>
			<point x="415" y="446"/>
			<point x="357" y="424"/>
			<point x="281" y="411" type="curve"/>
			<point x="234" y="389" type="line"/>
			<point x="101" y="368"/>
			<point x="12" y="298"/>
			<point x="12" y="172" type="curve" smooth="yes"/>
			<point x="12" y="65"/>
			<point x="91" y="-10"/>
		</contour>
	</outline>
</glyph>
<glyph name="quotesingle" format="2">
  <advance width="251"/>
  <unicode hex="0027"/>
  <outline>
    <contour>
      <point x="308" y="678" type="line"/>
      <point x="161" y="678" type="line"/>
      <point x="96" y="401" type="line"/>
      <point x="214" y="401" type="line"/>
    </contour>
  </outline>
</glyph>
<glyph name="parenleft" format="2">
	<unicode hex="0028"/>
	<advance width="393"/>
	<outline>
		<contour>
			<point x="201" y="-191" type="curve"/>
			<point x="293" y="-118" type="line"/>
			<point x="245" y="-41"/>
			<point x="217" y="52"/>
			<point x="217" y="160" type="curve" smooth="yes"/>
			<point x="217" y="371"/>
			<point x="302" y="540"/>
			<point x="472" y="656" type="curve"/>
			<point x="410" y="736" type="line"/>
			<point x="200" y="632"/>
			<point x="68" y="422"/>
			<point x="68" y="188" type="curve" smooth="yes"/>
			<point x="68" y="40"/>
			<point x="115" y="-88"/>
		</contour>
	</outline>
</glyph>
<glyph name="asterisk" format="2">
	<advance width="585"/>
	<unicode hex="002A"/>
	<outline>
		<contour>
			<point x="389" y="237" type="line"/>
			<point x="498" y="293" type="line"/>
			<point x="441" y="411" type="line"/>
			<point x="418" y="446" type="line"/>
			<point x="463" y="449" type="line"/>
			<point x="601" y="474" type="line"/>
			<point x="591" y="591" type="line"/>
			<point x="453" y="560" type="line"/>
			<point x="411" y="545" type="line"/>
			<point x="427" y="587" type="line"/>
			<point x="464" y="730" type="line"/>
			<point x="341" y="730" type="line"/>
			<point x="315" y="600" type="line"/>
			<point x="312" y="555" type="line"/>
			<point x="277" y="578" type="line"/>
			<point x="161" y="639" type="line"/>
			<point x="101" y="531" type="line"/>
			<point x="221" y="477" type="line"/>
			<point x="259" y="466" type="line"/>
			<point x="222" y="439" type="line"/>
			<point x="116" y="340" type="line"/>
			<point x="198" y="256" type="line"/>
			<point x="300" y="359" type="line"/>
			<point x="328" y="396" type="line"/>
			<point x="338" y="358" type="line"/>
		</contour>
	</outline>
</glyph>
<glyph name="plus" format="2">
	<advance width="604"/>
	<unicode hex="002B"/>
	<outline>
		<contour>
			<point x="448" y="589" type="line"/>
			<point x="313" y="589" type="line"/>
			<point x="191" y="60" type="line"/>
			<point x="326" y="60" type="line"/>
		</contour>
		<contour>
			<point x="585" y="386" type="line"/>
			<point x="82" y="386" type="line"/>
			<point x="54" y="264" type="line"/>
			<point x="557" y="264" type="line"/>
		</contour>
	</outline>
</glyph>
<glyph name="comma" format="2">
	<advance width="282"/>
	<unicode hex="002C"/>
	<outline>
		<contour>
			<point x="107" y="172" type="curve" smooth="yes"/>
			<point x="46" y="172"/>
			<point x="4" y="133"/>
			<point x="4" y="74" type="curve" smooth="yes"/>
			<point x="4" y="32"/>
			<point x="36" y="-2"/>
			<point x="75" y="-2" type="curve" smooth="yes"/>
			<point x="89" y="-2"/>
			<point x="96" y="0"/>
			<point x="105" y="4" type="curve"/>
			<point x="107" y="2" type="line"/>
			<point x="86" y="-37"/>
			<point x="32" y="-77"/>
			<point x="-43" y="-94" type="curve"/>
			<point x="-4" y="-159" type="line"/>
			<point x="124" y="-130"/>
			<point x="206" y="-28"/>
			<point x="206" y="71" type="curve" smooth="yes"/>
			<point x="206" y="129"/>
			<point x="176" y="172"/>
		</contour>
	</outline>
</glyph>
<glyph name="hyphen" format="2">
  <advance width="528"/>
  <unicode hex="002D"/>
  <outline>
    <contour>
      <point x="467" y="337" type="line"/>
      <point x="101" y="337" type="line"/>
      <point x="69" y="198" type="line"/>
      <point x="435" y="198" type="line"/>
    </contour>
  </outline>
</glyph>
<glyph name="period" format="2">
	<advance width="286"/>
	<unicode hex="002E"/>
	<anchor x="6" y="68" name="_center"/>
	<outline>
		<contour>
			<point x="99" y="-8" type="curve" smooth="yes"/>
			<point x="163" y="-8"/>
			<point x="203" y="32"/>
			<point x="203" y="95" type="curve" smooth="yes"/>
			<point x="203" y="144"/>
			<point x="166" y="172"/>
			<point x="110" y="172" type="curve" smooth="yes"/>
			<point x="45" y="172"/>
			<point x="6" y="131"/>
			<point x="6" y="68" type="curve" smooth="yes"/>
			<point x="6" y="19"/>
			<point x="43" y="-8"/>
		</contour>
	</outline>
</glyph>
<glyph name="slash" format="2">
	<advance width="461"/>
	<unicode hex="002F"/>
	<outline>
		<contour>
			<point x="557" y="712" type="line"/>
			<point x="389" y="712" type="line"/>
			<point x="-64" y="-70" type="line"/>
			<point x="104" y="-70" type="line"/>
		</contour>
	</outline>
</glyph>
<glyph name="zero" format="2">
	<advance width="633"/>
	<unicode hex="0030"/>
	<outline>
		<contour>
			<point x="302" y="-10" type="curve" smooth="yes"/>
			<point x="481" y="-10"/>
			<point x="564" y="130"/>
			<point x="599" y="295" type="curve" smooth="yes"/>
			<point x="607" y="332"/>
			<point x="611" y="374"/>
			<point x="611" y="413" type="curve" smooth="yes"/>
			<point x="611" y="569"/>
			<point x="527" y="671"/>
			<point x="372" y="671" type="curve" smooth="yes"/>
			<point x="188" y="671"/>
			<point x="106" y="532"/>
			<point x="71" y="367" type="curve" smooth="yes"/>
			<point x="63" y="328"/>
			<point x="59" y="283"/>
			<point x="59" y="247" type="curve" smooth="yes"/>
			<point x="59" y="90"/>
			<point x="143" y="-10"/>
		</contour>
		<contour>
			<point x="304" y="125" type="curve" smooth="yes"/>
			<point x="252" y="125"/>
			<point x="218" y="157"/>
			<point x="218" y="232" type="curve" smooth="yes"/>
			<point x="218" y="266"/>
			<point x="224" y="306"/>
			<point x="236" y="352" type="curve" smooth="yes"/>
			<point x="266" y="471"/>
			<point x="302" y="537"/>
			<point x="368" y="537" type="curve" smooth="yes"/>
			<point x="422" y="537"/>
			<point x="451" y="503"/>
			<point x="451" y="429" type="curve" smooth="yes"/>
			<point x="451" y="398"/>
			<point x="445" y="355"/>
			<point x="433" y="309" type="curve" smooth="yes"/>
			<point x="403" y="190"/>
			<point x="368" y="125"/>
		</contour>
	</outline>
</glyph>
<glyph name="one" format="2">
	<advance width="418"/>
	<unicode hex="0031"/>
	<outline>
		<contour>
			<point x="115" y="0" type="line"/>
			<point x="281" y="0" type="line"/>
			<point x="434" y="660" type="line"/>
			<point x="298" y="660" type="line"/>
			<point x="247" y="619"/>
			<point x="149" y="568"/>
			<point x="87" y="554" type="curve"/>
			<point x="64" y="408" type="line"/>
			<point x="118" y="417"/>
			<point x="185" y="452"/>
			<point x="231" y="488" type="curve"/>
			<point x="218" y="449"/>
			<point x="208" y="410"/>
			<point x="199" y="372" type="curve" smooth="yes"/>
		</contour>
	</outline>
</glyph>
<glyph name="two" format="2">
  <advance width="572"/>
  <unicode hex="0032"/>
  <outline>
    <contour>
      <point x="3" y="0" type="line"/>
      <point x="488" y="0" type="line"/>
      <point x="519" y="131" type="line"/>
      <point x="347" y="131" type="line" smooth="yes"/>
      <point x="307" y="131"/>
      <point x="259" y="129"/>
      <point x="234" y="127" type="curve"/>
      <point x="234" y="128" type="line"/>
      <point x="378" y="207"/>
      <point x="564" y="311"/>
      <point x="564" y="486" type="curve" smooth="yes"/>
      <point x="564" y="580"/>
      <point x="490" y="670"/>
      <point x="336" y="670" type="curve" smooth="yes"/>
      <point x="182" y="670"/>
      <point x="95" y="590"/>
      <point x="67" y="464" type="curve"/>
      <point x="210" y="409" type="line"/>
      <point x="221" y="488"/>
      <point x="259" y="535"/>
      <point x="319" y="535" type="curve" smooth="yes"/>
      <point x="363" y="535"/>
      <point x="392" y="507"/>
      <point x="392" y="463" type="curve" smooth="yes"/>
      <point x="392" y="346"/>
      <point x="204" y="223"/>
      <point x="30" y="114" type="curve"/>
    </contour>
  </outline>
</glyph>
<glyph name="three" format="2">
  <advance width="575"/>
  <unicode hex="0033"/>
  <outline>
    <contour>
      <point x="279" y="-10" type="curve" smooth="yes"/>
      <point x="410" y="-10"/>
      <point x="526" y="64"/>
      <point x="526" y="197" type="curve" smooth="yes"/>
      <point x="526" y="273"/>
      <point x="477" y="315"/>
      <point x="418" y="324" type="curve"/>
      <point x="419" y="328" type="line"/>
      <point x="507" y="333"/>
      <point x="567" y="403"/>
      <point x="567" y="498" type="curve" smooth="yes"/>
      <point x="567" y="604"/>
      <point x="481" y="670"/>
      <point x="338" y="670" type="curve" smooth="yes"/>
      <point x="215" y="670"/>
      <point x="126" y="616"/>
      <point x="90" y="513" type="curve"/>
      <point x="233" y="459" type="line"/>
      <point x="247" y="509"/>
      <point x="274" y="537"/>
      <point x="327" y="537" type="curve" smooth="yes"/>
      <point x="367" y="537"/>
      <point x="403" y="515"/>
      <point x="403" y="468" type="curve" smooth="yes"/>
      <point x="403" y="415"/>
      <point x="369" y="383"/>
      <point x="312" y="383" type="curve" smooth="yes"/>
      <point x="297" y="383"/>
      <point x="284" y="384"/>
      <point x="273" y="387" type="curve"/>
      <point x="248" y="276" type="line"/>
      <point x="256" y="277"/>
      <point x="264" y="278"/>
      <point x="272" y="278" type="curve" smooth="yes"/>
      <point x="320" y="278"/>
      <point x="361" y="263"/>
      <point x="361" y="208" type="curve" smooth="yes"/>
      <point x="361" y="160"/>
      <point x="328" y="123"/>
      <point x="277" y="123" type="curve" smooth="yes"/>
      <point x="217" y="123"/>
      <point x="186" y="156"/>
      <point x="182" y="222" type="curve"/>
      <point x="22" y="188" type="line"/>
      <point x="35" y="70"/>
      <point x="126" y="-10"/>
    </contour>
  </outline>
</glyph>
<glyph name="four" format="2">
  <advance width="621"/>
  <unicode hex="0034"/>
  <outline>
    <contour>
      <point x="282" y="0" type="line"/>
      <point x="432" y="0" type="line"/>
      <point x="466" y="145" type="line"/>
      <point x="578" y="145" type="line"/>
      <point x="606" y="263" type="line"/>
      <point x="494" y="263" type="line"/>
      <point x="585" y="660" type="line"/>
      <point x="379" y="660" type="line"/>
      <point x="125" y="365" type="line" smooth="yes"/>
      <point x="95" y="330"/>
      <point x="69" y="298"/>
      <point x="43" y="263" type="curve"/>
      <point x="15" y="145" type="line"/>
      <point x="314" y="145" type="line"/>
    </contour>
    <contour>
      <point x="174" y="263" type="line"/>
      <point x="201" y="291"/>
      <point x="228" y="320"/>
      <point x="249" y="345" type="curve" smooth="yes"/>
      <point x="407" y="535" type="line"/>
      <point x="342" y="263" type="line"/>
    </contour>
  </outline>
</glyph>
<glyph name="five" format="2">
  <advance width="563"/>
  <unicode hex="0035"/>
  <outline>
    <contour>
      <point x="268" y="-10" type="curve" smooth="yes"/>
      <point x="425" y="-10"/>
      <point x="531" y="94"/>
      <point x="531" y="246" type="curve" smooth="yes"/>
      <point x="531" y="355"/>
      <point x="456" y="425"/>
      <point x="352" y="425" type="curve" smooth="yes"/>
      <point x="301" y="425"/>
      <point x="259" y="409"/>
      <point x="230" y="381" type="curve"/>
      <point x="279" y="527" type="line"/>
      <point x="552" y="527" type="line"/>
      <point x="585" y="660" type="line"/>
      <point x="180" y="660" type="line"/>
      <point x="69" y="313" type="line"/>
      <point x="192" y="284" type="line"/>
      <point x="218" y="302"/>
      <point x="242" y="313"/>
      <point x="278" y="313" type="curve" smooth="yes"/>
      <point x="334" y="313"/>
      <point x="374" y="283"/>
      <point x="374" y="229" type="curve" smooth="yes"/>
      <point x="374" y="170"/>
      <point x="339" y="120"/>
      <point x="274" y="120" type="curve" smooth="yes"/>
      <point x="207" y="120"/>
      <point x="181" y="161"/>
      <point x="175" y="211" type="curve"/>
      <point x="19" y="156" type="line"/>
      <point x="45" y="61"/>
      <point x="140" y="-10"/>
    </contour>
  </outline>
</glyph>
<glyph name="six" format="2">
	<unicode hex="0036"/>
	<advance width="593"/>
	<outline>
		<contour>
			<point x="318" y="-11" type="curve" smooth="yes"/>
			<point x="462" y="-11"/>
			<point x="560" y="88"/>
			<point x="560" y="228" type="curve" smooth="yes"/>
			<point x="560" y="335"/>
			<point x="487" y="404"/>
			<point x="379" y="404" type="curve" smooth="yes"/>
			<point x="314" y="404"/>
			<point x="250" y="374"/>
			<point x="223" y="322" type="curve"/>
			<point x="234" y="422"/>
			<point x="283" y="532"/>
			<point x="378" y="532" type="curve" smooth="yes"/>
			<point x="427" y="532"/>
			<point x="461" y="499"/>
			<point x="463" y="450" type="curve"/>
			<point x="609" y="507" type="line"/>
			<point x="591" y="608"/>
			<point x="508" y="667"/>
			<point x="391" y="667" type="curve" smooth="yes"/>
			<point x="174" y="667"/>
			<point x="61" y="475"/>
			<point x="61" y="254" type="curve" smooth="yes"/>
			<point x="61" y="90"/>
			<point x="161" y="-11"/>
		</contour>
		<contour>
			<point x="315" y="115" type="curve" smooth="yes"/>
			<point x="264" y="115"/>
			<point x="227" y="147"/>
			<point x="227" y="199" type="curve" smooth="yes"/>
			<point x="227" y="250"/>
			<point x="262" y="294"/>
			<point x="318" y="294" type="curve" smooth="yes"/>
			<point x="370" y="294"/>
			<point x="403" y="264"/>
			<point x="403" y="216" type="curve" smooth="yes"/>
			<point x="403" y="159"/>
			<point x="372" y="115"/>
		</contour>
	</outline>
</glyph>
<glyph name="seven" format="2">
  <advance width="589"/>
  <unicode hex="0037"/>
  <outline>
    <contour>
      <point x="128" y="660" type="line"/>
      <point x="95" y="525" type="line"/>
      <point x="535" y="525" type="line"/>
      <point x="515" y="574" type="line"/>
      <point x="301" y="416"/>
      <point x="187" y="215"/>
      <point x="148" y="0" type="curve"/>
      <point x="318" y="0" type="line"/>
      <point x="360" y="210"/>
      <point x="441" y="385"/>
      <point x="617" y="535" type="curve"/>
      <point x="648" y="660" type="line"/>
    </contour>
  </outline>
</glyph>
<glyph name="eight" format="2">
  <advance width="620"/>
  <unicode hex="0038"/>
  <outline>
    <contour>
      <point x="313" y="-11" type="curve" smooth="yes"/>
      <point x="450" y="-11"/>
      <point x="558" y="59"/>
      <point x="558" y="186" type="curve" smooth="yes"/>
      <point x="558" y="248"/>
      <point x="520" y="295"/>
      <point x="459" y="324" type="curve"/>
      <point x="459" y="318" type="line"/>
      <point x="552" y="338"/>
      <point x="605" y="403"/>
      <point x="605" y="491" type="curve" smooth="yes"/>
      <point x="605" y="607"/>
      <point x="487" y="669"/>
      <point x="351" y="669" type="curve" smooth="yes"/>
      <point x="221" y="669"/>
      <point x="119" y="601"/>
      <point x="119" y="477" type="curve" smooth="yes"/>
      <point x="119" y="423"/>
      <point x="148" y="375"/>
      <point x="199" y="350" type="curve"/>
      <point x="201" y="356" type="line"/>
      <point x="86" y="337"/>
      <point x="31" y="273"/>
      <point x="31" y="180" type="curve" smooth="yes"/>
      <point x="31" y="54"/>
      <point x="166" y="-11"/>
    </contour>
    <contour>
      <point x="304" y="115" type="curve" smooth="yes"/>
      <point x="244" y="115"/>
      <point x="199" y="145"/>
      <point x="199" y="196" type="curve" smooth="yes"/>
      <point x="199" y="245"/>
      <point x="235" y="281"/>
      <point x="291" y="281" type="curve" smooth="yes"/>
      <point x="347" y="281"/>
      <point x="394" y="250"/>
      <point x="394" y="199" type="curve" smooth="yes"/>
      <point x="394" y="149"/>
      <point x="360" y="115"/>
    </contour>
    <contour>
      <point x="361" y="389" type="curve" smooth="yes"/>
      <point x="307" y="389"/>
      <point x="274" y="421"/>
      <point x="274" y="463" type="curve" smooth="yes"/>
      <point x="274" y="508"/>
      <point x="306" y="544"/>
      <point x="359" y="544" type="curve" smooth="yes"/>
      <point x="412" y="544"/>
      <point x="446" y="514"/>
      <point x="446" y="471" type="curve" smooth="yes"/>
      <point x="446" y="425"/>
      <point x="411" y="389"/>
    </contour>
  </outline>
</glyph>
<glyph name="nine" format="2">
	<unicode hex="0039"/>
	<advance width="598"/>
	<outline>
		<contour>
			<point x="256" y="-10" type="curve" smooth="yes"/>
			<point x="472" y="-10"/>
			<point x="574" y="197"/>
			<point x="574" y="410" type="curve" smooth="yes"/>
			<point x="574" y="580"/>
			<point x="486" y="670"/>
			<point x="331" y="670" type="curve" smooth="yes"/>
			<point x="189" y="670"/>
			<point x="80" y="572"/>
			<point x="80" y="435" type="curve" smooth="yes"/>
			<point x="80" y="324"/>
			<point x="159" y="246"/>
			<point x="275" y="246" type="curve" smooth="yes"/>
			<point x="333" y="246"/>
			<point x="388" y="270"/>
			<point x="411" y="320" type="curve"/>
			<point x="398" y="215"/>
			<point x="358" y="121"/>
			<point x="270" y="121" type="curve" smooth="yes"/>
			<point x="217" y="121"/>
			<point x="188" y="159"/>
			<point x="185" y="205" type="curve"/>
			<point x="29" y="165" type="line"/>
			<point x="44" y="55"/>
			<point x="135" y="-10"/>
		</contour>
		<contour>
			<point x="322" y="362" type="curve" smooth="yes"/>
			<point x="269" y="362"/>
			<point x="236" y="400"/>
			<point x="236" y="446" type="curve" smooth="yes"/>
			<point x="236" y="499"/>
			<point x="271" y="540"/>
			<point x="329" y="540" type="curve" smooth="yes"/>
			<point x="377" y="540"/>
			<point x="415" y="509"/>
			<point x="415" y="458" type="curve" smooth="yes"/>
			<point x="415" y="402"/>
			<point x="377" y="362"/>
		</contour>
	</outline>
</glyph>
<glyph name="colon" format="2">
  <advance width="286"/>
  <unicode hex="003A"/>
  <anchor x="6" y="68" name="_center"/>
  <outline>
    <contour>
      <point x="177" y="330" type="curve" smooth="yes"/>
      <point x="241" y="330"/>
      <point x="281" y="370"/>
      <point x="281" y="433" type="curve" smooth="yes"/>
      <point x="281" y="482"/>
      <point x="244" y="510"/>
      <point x="188" y="510" type="curve" smooth="yes"/>
      <point x="123" y="510"/>
      <point x="84" y="469"/>
      <point x="84" y="406" type="curve" smooth="yes"/>
      <point x="84" y="357"/>
      <point x="121" y="330"/>
    </contour>
    <contour>
      <point x="99" y="-8" type="curve" smooth="yes"/>
      <point x="163" y="-8"/>
      <point x="203" y="32"/>
      <point x="203" y="95" type="curve" smooth="yes"/>
      <point x="203" y="144"/>
      <point x="166" y="172"/>
      <point x="110" y="172" type="curve" smooth="yes"/>
      <point x="45" y="172"/>
      <point x="6" y="131"/>
      <point x="6" y="68" type="curve" smooth="yes"/>
      <point x="6" y="19"/>
      <point x="43" y="-8"/>
    </contour>
  </outline>
</glyph>
<glyph name="semicolon" format="2">
	<unicode hex="003B"/>
	<advance width="300"/>
	<outline>
		<contour>
			<point x="113" y="172" type="curve" smooth="yes"/>
			<point x="52" y="172"/>
			<point x="10" y="133"/>
			<point x="10" y="74" type="curve" smooth="yes"/>
			<point x="10" y="32"/>
			<point x="42" y="-2"/>
			<point x="81" y="-2" type="curve" smooth="yes"/>
			<point x="95" y="-2"/>
			<point x="102" y="0"/>
			<point x="111" y="4" type="curve"/>
			<point x="113" y="2" type="line"/>
			<point x="92" y="-37"/>
			<point x="38" y="-77"/>
			<point x="-37" y="-94" type="curve"/>
			<point x="2" y="-159" type="line"/>
			<point x="130" y="-130"/>
			<point x="212" y="-28"/>
			<point x="212" y="71" type="curve" smooth="yes"/>
			<point x="212" y="129"/>
			<point x="182" y="172"/>
		</contour>
		<contour>
			<point x="194" y="510" type="curve" smooth="yes"/>
			<point x="130" y="510"/>
			<point x="90" y="470"/>
			<point x="90" y="407" type="curve" smooth="yes"/>
			<point x="90" y="358"/>
			<point x="127" y="330"/>
			<point x="183" y="330" type="curve" smooth="yes"/>
			<point x="248" y="330"/>
			<point x="287" y="371"/>
			<point x="287" y="434" type="curve" smooth="yes"/>
			<point x="287" y="483"/>
			<point x="250" y="510"/>
		</contour>
	</outline>
</glyph>
<glyph name="less" format="2">
  <advance width="596"/>
  <unicode hex="003C"/>
  <outline>
    <contour>
      <point x="623" y="588" type="line"/>
      <point x="90" y="370" type="line"/>
      <point x="56" y="223" type="line"/>
      <point x="488" y="5" type="line"/>
      <point x="522" y="152" type="line"/>
      <point x="210" y="294" type="line"/>
      <point x="583" y="422" type="line"/>
    </contour>
  </outline>
</glyph>
<glyph name="equal" format="2">
	<advance width="604"/>
	<unicode hex="003D"/>
	<outline>
		<contour>
			<point x="593" y="483" type="line"/>
			<point x="118" y="483" type="line"/>
			<point x="92" y="366" type="line"/>
			<point x="566" y="366" type="line"/>
		</contour>
		<contour>
			<point x="543" y="267" type="line"/>
			<point x="69" y="267" type="line"/>
			<point x="41" y="150" type="line"/>
			<point x="516" y="150" type="line"/>
		</contour>
	</outline>
</glyph>
<glyph name="question" format="2">
  <advance width="588"/>
  <unicode hex="003F"/>
  <anchor x="147.82" y="63.92" name="_center"/>
  <outline>
    <contour>
      <point x="191" y="214" type="line"/>
      <point x="341" y="214" type="line"/>
      <point x="362" y="286" type="line"/>
      <point x="515" y="299"/>
      <point x="597" y="373"/>
      <point x="597" y="494" type="curve" smooth="yes"/>
      <point x="597" y="603"/>
      <point x="502" y="669"/>
      <point x="362" y="669" type="curve" smooth="yes"/>
      <point x="199" y="669"/>
      <point x="112" y="594"/>
      <point x="82" y="504" type="curve"/>
      <point x="238" y="443" type="line"/>
      <point x="255" y="499"/>
      <point x="287" y="534"/>
      <point x="343" y="534" type="curve" smooth="yes"/>
      <point x="387" y="534"/>
      <point x="418" y="513"/>
      <point x="418" y="472" type="curve" smooth="yes"/>
      <point x="418" y="390"/>
      <point x="334" y="368"/>
      <point x="226" y="367" type="curve"/>
    </contour>
    <contour>
      <point x="238.03" y="-7.52" type="curve" smooth="yes"/>
      <point x="300.11" y="-7.52"/>
      <point x="338.91" y="30.08"/>
      <point x="338.91" y="89.3" type="curve" smooth="yes"/>
      <point x="338.91" y="135.36"/>
      <point x="303.02" y="161.68"/>
      <point x="248.7" y="161.68" type="curve" smooth="yes"/>
      <point x="185.65" y="161.68"/>
      <point x="147.82" y="123.14"/>
      <point x="147.82" y="63.92" type="curve" smooth="yes"/>
      <point x="147.82" y="17.86"/>
      <point x="183.71" y="-7.52"/>
    </contour>
  </outline>
</glyph>
<glyph name="at" format="2">
	<unicode hex="0040"/>
	<advance width="924"/>
	<outline>
		<contour>
			<point x="454" y="-186" type="curve" smooth="yes"/>
			<point x="543" y="-186"/>
			<point x="599" y="-166"/>
			<point x="647" y="-144" type="curve"/>
			<point x="624" y="-77" type="line"/>
			<point x="586" y="-96"/>
			<point x="533" y="-112"/>
			<point x="461" y="-112" type="curve" smooth="yes"/>
			<point x="282" y="-112"/>
			<point x="129" y="-6"/>
			<point x="129" y="200" type="curve" smooth="yes"/>
			<point x="129" y="435"/>
			<point x="278" y="591"/>
			<point x="495" y="591" type="curve" smooth="yes"/>
			<point x="680" y="591"/>
			<point x="805" y="486"/>
			<point x="805" y="296" type="curve" smooth="yes"/>
			<point x="805" y="149"/>
			<point x="755" y="80"/>
			<point x="702" y="80" type="curve" smooth="yes"/>
			<point x="674" y="80"/>
			<point x="657" y="93"/>
			<point x="657" y="128" type="curve" smooth="yes"/>
			<point x="657" y="143"/>
			<point x="660" y="159"/>
			<point x="663" y="172" type="curve" smooth="yes"/>
			<point x="729" y="458" type="line"/>
			<point x="582" y="458" type="line"/>
			<point x="561" y="365" type="line"/>
			<point x="546" y="437"/>
			<point x="492" y="467"/>
			<point x="435" y="467" type="curve" smooth="yes"/>
			<point x="303" y="467"/>
			<point x="221" y="334"/>
			<point x="221" y="198" type="curve" smooth="yes"/>
			<point x="221" y="80"/>
			<point x="283" y="9"/>
			<point x="370" y="9" type="curve" smooth="yes"/>
			<point x="433" y="9"/>
			<point x="494" y="50"/>
			<point x="523" y="117" type="curve"/>
			<point x="521" y="42"/>
			<point x="571" y="-6"/>
			<point x="658" y="-6" type="curve" smooth="yes"/>
			<point x="758" y="-6"/>
			<point x="880" y="82"/>
			<point x="880" y="300" type="curve" smooth="yes"/>
			<point x="880" y="525"/>
			<point x="727" y="665"/>
			<point x="498" y="665" type="curve" smooth="yes"/>
			<point x="234" y="665"/>
			<point x="45" y="474"/>
			<point x="45" y="200" type="curve" smooth="yes"/>
			<point x="45" y="-46"/>
			<point x="218" y="-186"/>
		</contour>
		<contour>
			<point x="437" y="118" type="curve" smooth="yes"/>
			<point x="391" y="118"/>
			<point x="366" y="149"/>
			<point x="366" y="202" type="curve" smooth="yes"/>
			<point x="366" y="271"/>
			<point x="404" y="357"/>
			<point x="469" y="357" type="curve" smooth="yes"/>
			<point x="510" y="357"/>
			<point x="535" y="326"/>
			<point x="535" y="277" type="curve" smooth="yes"/>
			<point x="535" y="204"/>
			<point x="495" y="118"/>
		</contour>
	</outline>
</glyph>
<glyph name="A" format="2">
	<unicode hex="0041"/>
	<advance width="661"/>
	<outline>
		<contour>
			<point x="-55" y="0" type="line"/>
			<point x="124" y="0" type="line"/>
			<point x="206" y="155" type="line"/>
			<point x="425" y="155" type="line"/>
			<point x="436" y="0" type="line"/>
			<point x="599" y="0" type="line"/>
			<point x="530" y="660" type="line"/>
			<point x="322" y="660" type="line"/>
		</contour>
		<contour>
			<point x="268" y="272" type="line"/>
			<point x="402" y="528" type="line"/>
			<point x="419" y="272" type="line"/>
		</contour>
	</outline>
	<anchor name="bottom" x="292" y="0"/>
	<anchor name="ogonek" x="599" y="0"/>
	<anchor name="top" x="423" y="660"/>
	<anchor name="top_ring" x="405" y="539"/>
</glyph>
<glyph name="B" format="2">
	<unicode hex="0042"/>
	<advance width="675"/>
	<outline>
		<contour>
			<point x="14" y="0" type="line"/>
			<point x="376" y="0" type="line" smooth="yes"/>
			<point x="536" y="0"/>
			<point x="629" y="74"/>
			<point x="629" y="200" type="curve" smooth="yes"/>
			<point x="629" y="267"/>
			<point x="580" y="319"/>
			<point x="509" y="326" type="curve"/>
			<point x="509" y="327" type="line"/>
			<point x="595" y="343"/>
			<point x="663" y="405"/>
			<point x="663" y="507" type="curve" smooth="yes"/>
			<point x="663" y="602"/>
			<point x="591" y="660"/>
			<point x="470" y="660" type="curve" smooth="yes"/>
			<point x="167" y="660" type="line"/>
		</contour>
		<contour>
			<point x="208" y="121" type="line"/>
			<point x="242" y="266" type="line"/>
			<point x="377" y="266" type="line" smooth="yes"/>
			<point x="429" y="266"/>
			<point x="455" y="244"/>
			<point x="455" y="204" type="curve" smooth="yes"/>
			<point x="455" y="151"/>
			<point x="416" y="121"/>
			<point x="347" y="121" type="curve" smooth="yes"/>
		</contour>
		<contour>
			<point x="270" y="389" type="line"/>
			<point x="303" y="534" type="line"/>
			<point x="414" y="534" type="line" smooth="yes"/>
			<point x="458" y="534"/>
			<point x="488" y="516"/>
			<point x="488" y="474" type="curve" smooth="yes"/>
			<point x="488" y="424"/>
			<point x="451" y="389"/>
			<point x="388" y="389" type="curve" smooth="yes"/>
		</contour>
	</outline>
	<anchor name="bottom" x="256" y="0"/>
	<anchor name="ogonek" x="327" y="0"/>
	<anchor name="top" x="409" y="660"/>
</glyph>
<glyph name="C" format="2">
  <advance width="679"/>
  <unicode hex="0043"/>
  <anchor x="309" y="0" name="bottom"/>
  <anchor x="414" y="0" name="ogonek"/>
  <anchor x="431" y="660" name="top"/>
  <outline>
    <contour>
      <point x="350" y="-10" type="curve" smooth="yes"/>
      <point x="493" y="-10"/>
      <point x="584" y="55"/>
      <point x="641" y="161" type="curve"/>
      <point x="487" y="221" type="line"/>
      <point x="461" y="164"/>
      <point x="426" y="125"/>
      <point x="361" y="125" type="curve" smooth="yes"/>
      <point x="279" y="125"/>
      <point x="232" y="181"/>
      <point x="232" y="271" type="curve" smooth="yes"/>
      <point x="232" y="386"/>
      <point x="288" y="535"/>
      <point x="408" y="535" type="curve" smooth="yes"/>
      <point x="478" y="535"/>
      <point x="513" y="498"/>
      <point x="520" y="418" type="curve"/>
      <point x="685" y="455" type="line"/>
      <point x="661" y="594"/>
      <point x="559" y="670"/>
      <point x="414" y="670" type="curve" smooth="yes"/>
      <point x="190" y="670"/>
      <point x="59" y="497"/>
      <point x="59" y="273" type="curve" smooth="yes"/>
      <point x="59" y="97"/>
      <point x="183" y="-10"/>
    </contour>
  </outline>
</glyph>
<glyph name="D" format="2">
	<advance width="700"/>
	<unicode hex="0044"/>
	<anchor x="117" y="140" name="center"/>
	<anchor x="294" y="0" name="ogonek"/>
	<anchor x="418" y="660" name="top"/>
	<anchor x="276" y="0" name="bottom"/>
	<outline>
		<contour>
			<point x="14" y="0" type="line"/>
			<point x="315" y="0" type="line" smooth="yes"/>
			<point x="541" y="0"/>
			<point x="679" y="160"/>
			<point x="679" y="392" type="curve" smooth="yes"/>
			<point x="679" y="551"/>
			<point x="582" y="660"/>
			<point x="397" y="660" type="curve" smooth="yes"/>
			<point x="167" y="660" type="line"/>
		</contour>
		<contour>
			<point x="216" y="130" type="line"/>
			<point x="309" y="530" type="line"/>
			<point x="378" y="530" type="line" smooth="yes"/>
			<point x="463" y="530"/>
			<point x="505" y="474"/>
			<point x="505" y="390" type="curve" smooth="yes"/>
			<point x="505" y="264"/>
			<point x="438" y="130"/>
			<point x="309" y="130" type="curve" smooth="yes"/>
		</contour>
	</outline>
</glyph>
<glyph name="E" format="2">
	<unicode hex="0045"/>
	<advance width="619"/>
	<outline>
		<contour>
			<point x="14" y="0" type="line"/>
			<point x="530" y="0" type="line"/>
			<point x="562" y="133" type="line"/>
			<point x="217" y="133" type="line"/>
			<point x="248" y="268" type="line"/>
			<point x="511" y="268" type="line"/>
			<point x="541" y="393" type="line"/>
			<point x="277" y="393" type="line"/>
			<point x="308" y="527" type="line"/>
			<point x="641" y="527" type="line"/>
			<point x="674" y="660" type="line"/>
			<point x="167" y="660" type="line"/>
		</contour>
	</outline>
	<anchor name="bottom" x="282" y="0"/>
	<anchor name="ogonek" x="530" y="0"/>
	<anchor name="top" x="416" y="660"/>
</glyph>
<glyph name="F" format="2">
	<advance width="592"/>
	<unicode hex="0046"/>
	<anchor x="186" y="0" name="ogonek"/>
	<anchor x="100" y="0" name="bottom"/>
	<anchor x="406" y="660" name="top"/>
	<outline>
		<contour>
			<point x="629" y="527" type="line"/>
			<point x="661" y="660" type="line"/>
			<point x="167" y="660" type="line"/>
			<point x="14" y="0" type="line"/>
			<point x="186" y="0" type="line"/>
			<point x="245" y="254" type="line"/>
			<point x="508" y="254" type="line"/>
			<point x="539" y="387" type="line"/>
			<point x="275" y="387" type="line"/>
			<point x="308" y="527" type="line"/>
		</contour>
	</outline>
</glyph>
<glyph name="G" format="2">
  <advance width="705"/>
  <unicode hex="0047"/>
  <anchor x="331" y="0" name="bottom"/>
  <anchor x="338" y="0" name="ogonek"/>
  <anchor x="434" y="660" name="top"/>
  <outline>
    <contour>
      <point x="315" y="-9" type="curve" smooth="yes"/>
      <point x="423" y="-9"/>
      <point x="487" y="43"/>
      <point x="521" y="139" type="curve"/>
      <point x="506" y="155" type="line"/>
      <point x="473" y="0" type="line"/>
      <point x="587" y="0" type="line"/>
      <point x="675" y="352" type="line"/>
      <point x="386" y="352" type="line"/>
      <point x="359" y="238" type="line"/>
      <point x="513" y="238" type="line"/>
      <point x="506" y="216" type="line" smooth="yes"/>
      <point x="488" y="160"/>
      <point x="444" y="121"/>
      <point x="370" y="121" type="curve" smooth="yes"/>
      <point x="276" y="121"/>
      <point x="231" y="186"/>
      <point x="231" y="289" type="curve" smooth="yes"/>
      <point x="231" y="423"/>
      <point x="304" y="535"/>
      <point x="412" y="535" type="curve" smooth="yes"/>
      <point x="478" y="535"/>
      <point x="519" y="499"/>
      <point x="527" y="433" type="curve"/>
      <point x="689" y="464" type="line"/>
      <point x="668" y="599"/>
      <point x="560" y="670"/>
      <point x="417" y="670" type="curve" smooth="yes"/>
      <point x="187" y="670"/>
      <point x="58" y="489"/>
      <point x="58" y="275" type="curve" smooth="yes"/>
      <point x="58" y="99"/>
      <point x="170" y="-9"/>
    </contour>
  </outline>
</glyph>
<glyph name="H" format="2">
	<unicode hex="0048"/>
	<advance width="729"/>
	<outline>
		<contour>
			<point x="752" y="660" type="line"/>
			<point x="580" y="660" type="line"/>
			<point x="427" y="0" type="line"/>
			<point x="599" y="0" type="line"/>
		</contour>
		<contour>
			<point x="339" y="660" type="line"/>
			<point x="167" y="660" type="line"/>
			<point x="14" y="0" type="line"/>
			<point x="186" y="0" type="line"/>
		</contour>
		<contour>
			<point x="612" y="399" type="line"/>
			<point x="191" y="399" type="line"/>
			<point x="160" y="266" type="line"/>
			<point x="581" y="266" type="line"/>
		</contour>
	</outline>
	<anchor name="bottom" x="309" y="0"/>
	<anchor name="ogonek" x="605" y="0"/>
	<anchor name="top" x="459" y="660"/>
</glyph>
<glyph name="I" format="2">
	<unicode hex="0049"/>
	<advance width="316"/>
	<outline>
		<contour>
			<point x="339" y="660" type="line"/>
			<point x="167" y="660" type="line"/>
			<point x="14" y="0" type="line"/>
			<point x="186" y="0" type="line"/>
		</contour>
	</outline>
	<anchor name="bottom" x="100" y="0"/>
	<anchor name="ogonek" x="186" y="0"/>
	<anchor name="top" x="253" y="660"/>
</glyph>
<glyph name="J" format="2">
  <advance width="601"/>
  <unicode hex="004A"/>
  <anchor x="228" y="0" name="bottom"/>
  <anchor x="297" y="0" name="ogonek"/>
  <anchor x="552" y="660" name="top"/>
  <outline>
    <contour>
      <point x="257" y="-9" type="curve" smooth="yes"/>
      <point x="446" y="-9"/>
      <point x="510" y="106"/>
      <point x="539" y="234" type="curve" smooth="yes"/>
      <point x="637" y="660" type="line"/>
      <point x="465" y="660" type="line"/>
      <point x="374" y="264" type="line" smooth="yes"/>
      <point x="351" y="165"/>
      <point x="330" y="125"/>
      <point x="270" y="125" type="curve" smooth="yes"/>
      <point x="200" y="125"/>
      <point x="170" y="179"/>
      <point x="212" y="289" type="curve"/>
      <point x="41" y="282" type="line"/>
      <point x="-18" y="127"/>
      <point x="64" y="-9"/>
    </contour>
  </outline>
</glyph>
<glyph name="K" format="2">
	<advance width="678"/>
	<unicode hex="004B"/>
	<anchor x="612" y="0" name="ogonek"/>
	<anchor x="298" y="0" name="bottom"/>
	<anchor x="445" y="660" name="top"/>
	<outline>
		<contour>
			<point x="14" y="0" type="line"/>
			<point x="186" y="0" type="line"/>
			<point x="227" y="177" type="line"/>
			<point x="332" y="274" type="line"/>
			<point x="434" y="0" type="line"/>
			<point x="611" y="0" type="line"/>
			<point x="465" y="383" type="line"/>
			<point x="758" y="660" type="line"/>
			<point x="563" y="660" type="line"/>
			<point x="277" y="392" type="line"/>
			<point x="339" y="660" type="line"/>
			<point x="167" y="660" type="line"/>
		</contour>
	</outline>
</glyph>
<glyph name="L" format="2">
  <advance width="594"/>
  <unicode hex="004C"/>
  <anchor x="274" y="0" name="bottom"/>
  <anchor x="401" y="376" name="center"/>
  <anchor x="509" y="0" name="ogonek"/>
  <anchor x="253" y="660" name="top"/>
  <anchor x="472" y="660" name="topright"/>
  <outline>
    <contour>
      <point x="218" y="133" type="line"/>
      <point x="339" y="660" type="line"/>
      <point x="167" y="660" type="line"/>
      <point x="14" y="0" type="line"/>
      <point x="509" y="0" type="line"/>
      <point x="541" y="133" type="line"/>
    </contour>
  </outline>
</glyph>
<glyph name="M" format="2">
	<advance width="896"/>
	<unicode hex="004D"/>
	<anchor x="766" y="0" name="ogonek"/>
	<anchor x="394" y="0" name="bottom"/>
	<anchor x="543" y="660" name="top"/>
	<outline>
		<contour>
			<point x="14" y="0" type="line"/>
			<point x="166" y="0" type="line"/>
			<point x="235" y="303" type="line"/>
			<point x="271" y="494" type="line"/>
			<point x="273" y="494" type="line"/>
			<point x="324" y="0" type="line"/>
			<point x="456" y="0" type="line"/>
			<point x="729" y="498" type="line"/>
			<point x="731" y="498" type="line"/>
			<point x="684" y="303" type="line"/>
			<point x="614" y="0" type="line"/>
			<point x="766" y="0" type="line"/>
			<point x="919" y="660" type="line"/>
			<point x="674" y="660" type="line"/>
			<point x="502" y="340" type="line"/>
			<point x="423" y="177" type="line"/>
			<point x="422" y="177" type="line"/>
			<point x="414" y="340" type="line"/>
			<point x="384" y="660" type="line"/>
			<point x="167" y="660" type="line"/>
		</contour>
	</outline>
</glyph>
<glyph name="N" format="2">
	<advance width="728"/>
	<unicode hex="004E"/>
	<anchor x="598" y="0" name="ogonek"/>
	<anchor x="323" y="0" name="bottom"/>
	<anchor x="456" y="660" name="top"/>
	<outline>
		<contour>
			<point x="14" y="0" type="line"/>
			<point x="166" y="0" type="line"/>
			<point x="242" y="333" type="line"/>
			<point x="267" y="465" type="line"/>
			<point x="269" y="465" type="line"/>
			<point x="299" y="357" type="line"/>
			<point x="417" y="0" type="line"/>
			<point x="598" y="0" type="line"/>
			<point x="751" y="660" type="line"/>
			<point x="600" y="660" type="line"/>
			<point x="523" y="327" type="line"/>
			<point x="495" y="189" type="line"/>
			<point x="494" y="189" type="line"/>
			<point x="465" y="297" type="line"/>
			<point x="351" y="660" type="line"/>
			<point x="167" y="660" type="line"/>
		</contour>
	</outline>
</glyph>
<glyph name="O" format="2">
	<unicode hex="004F"/>
	<advance width="722"/>
	<outline>
		<contour>
			<point x="348" y="-10" type="curve" smooth="yes"/>
			<point x="570" y="-10"/>
			<point x="699" y="161"/>
			<point x="699" y="381" type="curve" smooth="yes"/>
			<point x="699" y="563"/>
			<point x="574" y="670"/>
			<point x="412" y="670" type="curve" smooth="yes"/>
			<point x="190" y="670"/>
			<point x="60" y="499"/>
			<point x="60" y="279" type="curve" smooth="yes"/>
			<point x="60" y="96"/>
			<point x="185" y="-10"/>
		</contour>
		<contour>
			<point x="355" y="125" type="curve" smooth="yes"/>
			<point x="277" y="125"/>
			<point x="233" y="177"/>
			<point x="233" y="268" type="curve" smooth="yes"/>
			<point x="233" y="390"/>
			<point x="290" y="535"/>
			<point x="405" y="535" type="curve" smooth="yes"/>
			<point x="482" y="535"/>
			<point x="527" y="483"/>
			<point x="527" y="392" type="curve" smooth="yes"/>
			<point x="527" y="271"/>
			<point x="469" y="125"/>
		</contour>
	</outline>
	<anchor name="bottom" x="328" y="0"/>
	<anchor name="center" x="379" y="330"/>
	<anchor name="ogonek" x="446" y="1"/>
	<anchor name="top" x="433" y="660"/>
	<anchor name="topleft" x="116" y="660"/>
	<anchor name="topright" x="664" y="660"/>
</glyph>
<glyph name="P" format="2">
  <advance width="656"/>
  <unicode hex="0050"/>
  <anchor x="100" y="0" name="bottom"/>
  <anchor x="186" y="0" name="ogonek"/>
  <anchor x="418" y="660" name="top"/>
  <outline>
    <contour>
      <point x="14" y="0" type="line"/>
      <point x="186" y="0" type="line"/>
      <point x="308" y="531" type="line"/>
      <point x="392" y="531" type="line" smooth="yes"/>
      <point x="459" y="531"/>
      <point x="488" y="499"/>
      <point x="488" y="450" type="curve" smooth="yes"/>
      <point x="488" y="394"/>
      <point x="448" y="345"/>
      <point x="373" y="345" type="curve" smooth="yes"/>
      <point x="185" y="345" type="line"/>
      <point x="155" y="216" type="line"/>
      <point x="378" y="216" type="line" smooth="yes"/>
      <point x="550" y="216"/>
      <point x="658" y="319"/>
      <point x="658" y="463" type="curve" smooth="yes"/>
      <point x="658" y="585"/>
      <point x="567" y="660"/>
      <point x="412" y="660" type="curve" smooth="yes"/>
      <point x="167" y="660" type="line"/>
    </contour>
  </outline>
</glyph>
<glyph name="Q" format="2">
	<unicode hex="0051"/>
	<advance width="722"/>
	<outline>
		<contour>
			<point x="450" y="-204" type="curve" smooth="yes"/>
			<point x="500" y="-204"/>
			<point x="539" y="-194"/>
			<point x="571" y="-175" type="curve"/>
			<point x="570" y="-52" type="line"/>
			<point x="543" y="-66"/>
			<point x="510" y="-75"/>
			<point x="465" y="-75" type="curve" smooth="yes"/>
			<point x="403" y="-75"/>
			<point x="360" y="-57"/>
			<point x="360" y="-13" type="curve" smooth="yes"/>
			<point x="360" y="2"/>
			<point x="362" y="13"/>
			<point x="367" y="25" type="curve"/>
			<point x="253" y="18" type="line"/>
			<point x="248" y="0"/>
			<point x="245" y="-19"/>
			<point x="245" y="-43" type="curve" smooth="yes"/>
			<point x="245" y="-153"/>
			<point x="347" y="-204"/>
		</contour>
		<component base="O"/>
	</outline>
	<anchor name="bottom" x="251" y="-210"/>
	<anchor name="ogonek" x="457" y="-197"/>
	<anchor name="center" x="379" y="330"/>
	<anchor name="top" x="433" y="660"/>
	<anchor name="topleft" x="116" y="660"/>
	<anchor name="topright" x="664" y="660"/>
</glyph>
<glyph name="R" format="2">
	<unicode hex="0052"/>
	<advance width="669"/>
	<outline>
		<contour>
			<point x="14" y="0" type="line"/>
			<point x="183" y="0" type="line"/>
			<point x="305" y="530" type="line"/>
			<point x="404" y="530" type="line" smooth="yes"/>
			<point x="456" y="530"/>
			<point x="493" y="507"/>
			<point x="493" y="457" type="curve" smooth="yes"/>
			<point x="493" y="398"/>
			<point x="450" y="355"/>
			<point x="377" y="355" type="curve" smooth="yes"/>
			<point x="250" y="355" type="line"/>
			<point x="222" y="233" type="line"/>
			<point x="375" y="233" type="line"/>
			<point x="412" y="242" type="line"/>
			<point x="555" y="249"/>
			<point x="663" y="330"/>
			<point x="663" y="473" type="curve" smooth="yes"/>
			<point x="663" y="591"/>
			<point x="579" y="660"/>
			<point x="447" y="660" type="curve" smooth="yes"/>
			<point x="167" y="660" type="line"/>
		</contour>
		<contour>
			<point x="432" y="0" type="line"/>
			<point x="606" y="0" type="line"/>
			<point x="484" y="310" type="line"/>
			<point x="328" y="286" type="line"/>
		</contour>
	</outline>
	<anchor name="bottom" x="309" y="0"/>
	<anchor name="ogonek" x="606" y="0"/>
	<anchor name="top" x="416" y="660"/>
</glyph>
<glyph name="S" format="2">
	<unicode hex="0053"/>
	<advance width="632"/>
	<outline>
		<contour>
			<point x="326" y="-11" type="curve" smooth="yes"/>
			<point x="474" y="-11"/>
			<point x="591" y="70"/>
			<point x="591" y="208" type="curve" smooth="yes"/>
			<point x="591" y="296"/>
			<point x="540" y="349"/>
			<point x="442" y="381" type="curve" smooth="yes"/>
			<point x="345" y="413" type="line" smooth="yes"/>
			<point x="304" y="427"/>
			<point x="277" y="448"/>
			<point x="277" y="476" type="curve" smooth="yes"/>
			<point x="277" y="511"/>
			<point x="304" y="537"/>
			<point x="362" y="537" type="curve" smooth="yes"/>
			<point x="432" y="537"/>
			<point x="504" y="506"/>
			<point x="544" y="435" type="curve"/>
			<point x="649" y="531" type="line"/>
			<point x="587" y="619"/>
			<point x="498" y="670"/>
			<point x="362" y="670" type="curve" smooth="yes"/>
			<point x="209" y="670"/>
			<point x="98" y="592"/>
			<point x="98" y="458" type="curve" smooth="yes"/>
			<point x="98" y="363"/>
			<point x="166" y="305"/>
			<point x="254" y="276" type="curve" smooth="yes"/>
			<point x="351" y="244" type="line" smooth="yes"/>
			<point x="391" y="231"/>
			<point x="412" y="215"/>
			<point x="412" y="187" type="curve" smooth="yes"/>
			<point x="412" y="152"/>
			<point x="384" y="122"/>
			<point x="326" y="122" type="curve" smooth="yes"/>
			<point x="243" y="122"/>
			<point x="151" y="166"/>
			<point x="104" y="252" type="curve"/>
			<point x="4" y="153" type="line"/>
			<point x="72" y="44"/>
			<point x="190" y="-11"/>
		</contour>
	</outline>
	<anchor name="bottom" x="274" y="0"/>
	<anchor name="ogonek" x="309" y="0"/>
	<anchor name="top" x="394" y="660"/>
</glyph>
<glyph name="T" format="2">
	<advance width="639"/>
	<unicode hex="0054"/>
	<anchor x="332" y="302" name="center"/>
	<anchor x="349" y="0" name="ogonek"/>
	<anchor x="415" y="660" name="top"/>
	<anchor x="263" y="0" name="bottom"/>
	<outline>
		<contour>
			<point x="710" y="660" type="line"/>
			<point x="120" y="660" type="line"/>
			<point x="88" y="527" type="line"/>
			<point x="298" y="527" type="line"/>
			<point x="177" y="0" type="line"/>
			<point x="349" y="0" type="line"/>
			<point x="470" y="527" type="line"/>
			<point x="678" y="527" type="line"/>
		</contour>
	</outline>
</glyph>
<glyph name="U" format="2">
	<advance width="707"/>
	<unicode hex="0055"/>
	<anchor x="431" y="635" name="top_ring"/>
	<anchor x="422" y="0" name="ogonek"/>
	<anchor x="439" y="652" name="top"/>
	<anchor x="735" y="660" name="topright"/>
	<anchor x="301" y="0" name="bottom"/>
	<outline>
		<contour>
			<point x="324" y="-10" type="curve" smooth="yes"/>
			<point x="502" y="-10"/>
			<point x="598" y="80"/>
			<point x="637" y="250" type="curve" smooth="yes"/>
			<point x="732" y="660" type="line"/>
			<point x="561" y="660" type="line"/>
			<point x="467" y="255" type="line" smooth="yes"/>
			<point x="447" y="170"/>
			<point x="411" y="125"/>
			<point x="340" y="125" type="curve" smooth="yes"/>
			<point x="261" y="125"/>
			<point x="216" y="176"/>
			<point x="237" y="269" type="curve" smooth="yes"/>
			<point x="326" y="660" type="line"/>
			<point x="154" y="660" type="line"/>
			<point x="68" y="293" type="line" smooth="yes"/>
			<point x="24" y="104"/>
			<point x="129" y="-10"/>
		</contour>
	</outline>
</glyph>
<glyph name="V" format="2">
	<unicode hex="0056"/>
	<advance width="653"/>
	<outline>
		<contour>
			<point x="746" y="660" type="line"/>
			<point x="570" y="660" type="line"/>
			<point x="356" y="264" type="line"/>
			<point x="297" y="135" type="line"/>
			<point x="291" y="265" type="line"/>
			<point x="265" y="660" type="line"/>
			<point x="101" y="660" type="line"/>
			<point x="169" y="0" type="line"/>
			<point x="371" y="0" type="line"/>
		</contour>
	</outline>
	<anchor name="bottom" x="271" y="0"/>
	<anchor name="ogonek" x="372" y="0"/>
	<anchor name="top" x="415" y="660"/>
</glyph>
<glyph name="W" format="2">
	<advance width="978"/>
	<unicode hex="0057"/>
	<anchor x="724" y="0" name="ogonek"/>
	<anchor x="432" y="0" name="bottom"/>
	<anchor x="575" y="660" name="top"/>
	<outline>
		<contour>
			<point x="137" y="0" type="line"/>
			<point x="327" y="0" type="line"/>
			<point x="469" y="320" type="line"/>
			<point x="537" y="486" type="line"/>
			<point x="540" y="486" type="line"/>
			<point x="530" y="320" type="line"/>
			<point x="534" y="0" type="line"/>
			<point x="724" y="0" type="line"/>
			<point x="1064" y="660" type="line"/>
			<point x="876" y="660" type="line"/>
			<point x="657" y="143" type="line"/>
			<point x="651" y="660" type="line"/>
			<point x="492" y="660" type="line"/>
			<point x="271" y="145" type="line"/>
			<point x="272" y="660" type="line"/>
			<point x="103" y="660" type="line"/>
		</contour>
	</outline>
</glyph>
<glyph name="X" format="2">
	<unicode hex="0058"/>
	<advance width="653"/>
	<outline>
		<contour>
			<point x="-51" y="0" type="line"/>
			<point x="156" y="0" type="line"/>
			<point x="322" y="206" type="line"/>
			<point x="399" y="0" type="line"/>
			<point x="586" y="0" type="line"/>
			<point x="437" y="334" type="line"/>
			<point x="724" y="660" type="line"/>
			<point x="530" y="660" type="line"/>
			<point x="376" y="464" type="line"/>
			<point x="303" y="660" type="line"/>
			<point x="116" y="660" type="line"/>
			<point x="252" y="343" type="line"/>
		</contour>
	</outline>
	<anchor name="bottom" x="261" y="0"/>
	<anchor name="ogonek" x="586" y="0"/>
	<anchor name="top" x="414" y="660"/>
</glyph>
<glyph name="Y" format="2">
	<advance width="643"/>
	<unicode hex="0059"/>
	<anchor x="349" y="0" name="ogonek"/>
	<anchor x="263" y="0" name="bottom"/>
	<anchor x="398" y="652" name="top"/>
	<outline>
		<contour>
			<point x="177" y="0" type="line"/>
			<point x="349" y="0" type="line"/>
			<point x="403" y="233" type="line"/>
			<point x="726" y="660" type="line"/>
			<point x="542" y="660" type="line"/>
			<point x="416" y="480" type="line"/>
			<point x="347" y="368" type="line"/>
			<point x="323" y="478" type="line"/>
			<point x="272" y="660" type="line"/>
			<point x="106" y="660" type="line"/>
			<point x="234" y="245" type="line"/>
		</contour>
	</outline>
</glyph>
<glyph name="Z" format="2">
	<unicode hex="005A"/>
	<advance width="616"/>
	<outline>
		<contour>
			<point x="-17" y="0" type="line"/>
			<point x="533" y="0" type="line"/>
			<point x="564" y="130" type="line"/>
			<point x="206" y="130" type="line"/>
			<point x="635" y="530" type="line"/>
			<point x="666" y="660" type="line"/>
			<point x="129" y="660" type="line"/>
			<point x="98" y="530" type="line"/>
			<point x="443" y="530" type="line"/>
			<point x="13" y="131" type="line"/>
		</contour>
	</outline>
	<anchor name="bottom" x="280" y="0"/>
	<anchor name="ogonek" x="524" y="0"/>
	<anchor name="top" x="385" y="660"/>
</glyph>
<glyph name="bracketleft" format="2">
	<advance width="390"/>
	<unicode hex="005B"/>
	<outline>
		<contour>
			<point x="444" y="594" type="line"/>
			<point x="471" y="713" type="line"/>
			<point x="191" y="713" type="line"/>
			<point x="-13" y="-168" type="line"/>
			<point x="268" y="-168" type="line"/>
			<point x="295" y="-49" type="line"/>
			<point x="162" y="-49" type="line"/>
			<point x="311" y="594" type="line"/>
		</contour>
	</outline>
</glyph>
<glyph name="asciicircum" format="2">
	<unicode hex="005E"/>
	<advance width="602"/>
	<outline>
		<contour>
			<point x="49" y="355" type="line"/>
			<point x="204" y="355" type="line"/>
			<point x="385" y="612" type="line"/>
			<point x="458" y="355" type="line"/>
			<point x="602" y="355" type="line"/>
			<point x="483" y="724" type="line"/>
			<point x="339" y="724" type="line"/>
		</contour>
	</outline>
</glyph>
<glyph name="underscore" format="2">
	<advance width="539"/>
	<unicode hex="005F"/>
	<outline>
		<contour>
			<point x="466" y="-66" type="line"/>
			<point x="-73" y="-66" type="line"/>
			<point x="-104" y="-201" type="line"/>
			<point x="435" y="-201" type="line"/>
		</contour>
	</outline>
</glyph>
<glyph name="a" format="2">
	<unicode hex="0061"/>
	<advance width="619"/>
	<outline>
		<contour>
			<point x="200" y="-9" type="curve" smooth="yes"/>
			<point x="265" y="-9"/>
			<point x="324" y="30"/>
			<point x="356" y="94" type="curve"/>
			<point x="338" y="0" type="line"/>
			<point x="493" y="0" type="line"/>
			<point x="608" y="500" type="line"/>
			<point x="438" y="500" type="line"/>
			<point x="415" y="395" type="line"/>
			<point x="399" y="476"/>
			<point x="339" y="510"/>
			<point x="274" y="510" type="curve" smooth="yes"/>
			<point x="126" y="510"/>
			<point x="31" y="352"/>
			<point x="31" y="190" type="curve" smooth="yes"/>
			<point x="31" y="63"/>
			<point x="103" y="-9"/>
		</contour>
		<contour>
			<point x="275" y="115" type="curve" smooth="yes"/>
			<point x="224" y="115"/>
			<point x="199" y="150"/>
			<point x="199" y="210" type="curve" smooth="yes"/>
			<point x="199" y="286"/>
			<point x="241" y="385"/>
			<point x="313" y="385" type="curve" smooth="yes"/>
			<point x="358" y="385"/>
			<point x="386" y="350"/>
			<point x="386" y="295" type="curve" smooth="yes"/>
			<point x="386" y="212"/>
			<point x="339" y="115"/>
		</contour>
	</outline>
	<anchor name="bottom" x="253" y="0"/>
	<anchor name="ogonek" x="493" y="0"/>
	<anchor name="top" x="340" y="500"/>
</glyph>
<glyph name="b" format="2">
	<unicode hex="0062"/>
	<advance width="609"/>
	<outline>
		<contour>
			<point x="419" y="509" type="curve" smooth="yes"/>
			<point x="355" y="509"/>
			<point x="301" y="475"/>
			<point x="268" y="420" type="curve"/>
			<point x="335" y="712" type="line"/>
			<point x="165" y="712" type="line"/>
			<point x="0" y="0" type="line"/>
			<point x="166" y="0" type="line"/>
			<point x="193" y="104" type="line"/>
			<point x="207" y="26"/>
			<point x="274" y="-10"/>
			<point x="345" y="-10" type="curve" smooth="yes"/>
			<point x="485" y="-10"/>
			<point x="578" y="151"/>
			<point x="578" y="311" type="curve" smooth="yes"/>
			<point x="578" y="440"/>
			<point x="513" y="509"/>
		</contour>
		<contour>
			<point x="297" y="115" type="curve" smooth="yes"/>
			<point x="249" y="115"/>
			<point x="224" y="150"/>
			<point x="224" y="204" type="curve" smooth="yes"/>
			<point x="224" y="289"/>
			<point x="267" y="384"/>
			<point x="337" y="384" type="curve" smooth="yes"/>
			<point x="382" y="384"/>
			<point x="410" y="351"/>
			<point x="410" y="291" type="curve" smooth="yes"/>
			<point x="410" y="213"/>
			<point x="367" y="115"/>
		</contour>
	</outline>
	<anchor name="bottom" x="255" y="0"/>
	<anchor name="ogonek" x="414" y="2"/>
	<anchor name="top" x="247" y="700"/>
</glyph>
<glyph name="c" format="2">
	<unicode hex="0063"/>
	<advance width="554"/>
	<outline>
		<contour>
			<point x="280" y="-10" type="curve" smooth="yes"/>
			<point x="392" y="-10"/>
			<point x="475" y="43"/>
			<point x="513" y="129" type="curve"/>
			<point x="361" y="178" type="line"/>
			<point x="348" y="136"/>
			<point x="316" y="110"/>
			<point x="281" y="110" type="curve" smooth="yes"/>
			<point x="231" y="110"/>
			<point x="200" y="146"/>
			<point x="200" y="202" type="curve" smooth="yes"/>
			<point x="200" y="288"/>
			<point x="244" y="388"/>
			<point x="315" y="388" type="curve" smooth="yes"/>
			<point x="367" y="388"/>
			<point x="385" y="353"/>
			<point x="382" y="301" type="curve"/>
			<point x="545" y="327" type="line"/>
			<point x="543" y="437"/>
			<point x="451" y="510"/>
			<point x="317" y="510" type="curve" smooth="yes"/>
			<point x="136" y="510"/>
			<point x="34" y="378"/>
			<point x="34" y="216" type="curve" smooth="yes"/>
			<point x="34" y="84"/>
			<point x="126" y="-10"/>
		</contour>
	</outline>
	<anchor name="bottom" x="247" y="2"/>
	<anchor name="ogonek" x="355" y="13"/>
	<anchor name="top" x="339" y="500"/>
</glyph>
<glyph name="d" format="2">
  <advance width="620"/>
  <unicode hex="0064"/>
  <anchor x="253" y="0" name="bottom"/>
  <anchor x="301" y="250" name="center"/>
  <anchor x="273" y="5" name="ogonek"/>
  <anchor x="570" y="700" name="top"/>
  <anchor x="718" y="712" name="topright"/>
  <outline>
    <contour>
      <point x="200" y="-9" type="curve" smooth="yes"/>
      <point x="266" y="-9"/>
      <point x="325" y="30"/>
      <point x="356" y="94" type="curve"/>
      <point x="339" y="0" type="line"/>
      <point x="493" y="0" type="line"/>
      <point x="658" y="712" type="line"/>
      <point x="488" y="712" type="line"/>
      <point x="415" y="395" type="line"/>
      <point x="400" y="476"/>
      <point x="339" y="510"/>
      <point x="274" y="510" type="curve" smooth="yes"/>
      <point x="126" y="510"/>
      <point x="31" y="352"/>
      <point x="31" y="191" type="curve" smooth="yes"/>
      <point x="31" y="63"/>
      <point x="103" y="-9"/>
    </contour>
    <contour>
      <point x="275" y="115" type="curve" smooth="yes"/>
      <point x="225" y="115"/>
      <point x="199" y="150"/>
      <point x="199" y="210" type="curve" smooth="yes"/>
      <point x="199" y="285"/>
      <point x="241" y="385"/>
      <point x="313" y="385" type="curve" smooth="yes"/>
      <point x="359" y="385"/>
      <point x="387" y="350"/>
      <point x="387" y="295" type="curve" smooth="yes"/>
      <point x="387" y="212"/>
      <point x="341" y="115"/>
    </contour>
  </outline>
</glyph>
<glyph name="e" format="2">
  <advance width="572"/>
  <unicode hex="0065"/>
  <anchor x="263" y="0" name="bottom"/>
  <anchor x="385" y="8" name="ogonek"/>
  <anchor x="327" y="500" name="top"/>
  <outline>
    <contour>
      <point x="276" y="-9" type="curve" smooth="yes"/>
      <point x="387" y="-9"/>
      <point x="476" y="36"/>
      <point x="511" y="112" type="curve"/>
      <point x="371" y="167" type="line"/>
      <point x="356" y="134"/>
      <point x="329" y="109"/>
      <point x="283" y="109" type="curve" smooth="yes"/>
      <point x="229" y="109"/>
      <point x="192" y="144"/>
      <point x="192" y="207" type="curve" smooth="yes"/>
      <point x="192" y="288"/>
      <point x="217" y="391"/>
      <point x="309" y="391" type="curve" smooth="yes"/>
      <point x="349" y="391"/>
      <point x="377" y="365"/>
      <point x="377" y="315" type="curve" smooth="yes"/>
      <point x="377" y="300"/>
      <point x="375" y="287"/>
      <point x="371" y="271" type="curve"/>
      <point x="417" y="297" type="line"/>
      <point x="145" y="297" type="line"/>
      <point x="144" y="205" type="line"/>
      <point x="528" y="205" type="line"/>
      <point x="535" y="228"/>
      <point x="538" y="256"/>
      <point x="538" y="288" type="curve" smooth="yes"/>
      <point x="538" y="423"/>
      <point x="456" y="509"/>
      <point x="314" y="509" type="curve" smooth="yes"/>
      <point x="142" y="509"/>
      <point x="34" y="385"/>
      <point x="34" y="216" type="curve" smooth="yes"/>
      <point x="34" y="80"/>
      <point x="132" y="-9"/>
    </contour>
  </outline>
</glyph>
<glyph name="f" format="2">
	<advance width="409"/>
	<unicode hex="0066"/>
	<anchor x="212" y="0" name="ogonek"/>
	<anchor x="127" y="0" name="bottom"/>
	<anchor x="363" y="712" name="top"/>
	<outline>
		<contour>
			<point x="42" y="0" type="line"/>
			<point x="212" y="0" type="line"/>
			<point x="314" y="442" type="line"/>
			<point x="313" y="470" type="line"/>
			<point x="329" y="538" type="line" smooth="yes"/>
			<point x="341" y="588"/>
			<point x="363" y="605"/>
			<point x="414" y="605" type="curve"/>
			<point x="440" y="605"/>
			<point x="459" y="599"/>
			<point x="471" y="592" type="curve"/>
			<point x="509" y="701" type="line"/>
			<point x="484" y="715"/>
			<point x="444" y="726"/>
			<point x="395" y="726" type="curve"/>
			<point x="282" y="726"/>
			<point x="200" y="682"/>
			<point x="168" y="549" type="curve"/>
		</contour>
		<contour>
			<point x="45" y="379" type="line"/>
			<point x="426" y="379" type="line"/>
			<point x="455" y="500" type="line"/>
			<point x="73" y="500" type="line"/>
		</contour>
	</outline>
</glyph>
<glyph name="g" format="2">
	<unicode hex="0067"/>
	<advance width="608"/>
	<outline>
		<contour>
			<point x="205" y="-215" type="curve" smooth="yes"/>
			<point x="378" y="-215"/>
			<point x="461" y="-136"/>
			<point x="498" y="24" type="curve" smooth="yes"/>
			<point x="608" y="500" type="line"/>
			<point x="438" y="500" type="line"/>
			<point x="398" y="325" type="line"/>
			<point x="418" y="350" type="line"/>
			<point x="420" y="460"/>
			<point x="348" y="510"/>
			<point x="274" y="510" type="curve" smooth="yes"/>
			<point x="128" y="510"/>
			<point x="33" y="368"/>
			<point x="33" y="209" type="curve" smooth="yes"/>
			<point x="33" y="86"/>
			<point x="107" y="13"/>
			<point x="204" y="13" type="curve" smooth="yes"/>
			<point x="291" y="13"/>
			<point x="353" y="69"/>
			<point x="374" y="170" type="curve"/>
			<point x="366" y="170" type="line"/>
			<point x="329" y="10" type="line" smooth="yes"/>
			<point x="309" y="-75"/>
			<point x="274" y="-105"/>
			<point x="226" y="-105" type="curve" smooth="yes"/>
			<point x="169" y="-105"/>
			<point x="151" y="-70"/>
			<point x="150" y="-14" type="curve"/>
			<point x="-21" y="-32" type="line"/>
			<point x="-20" y="-156"/>
			<point x="87" y="-215"/>
		</contour>
		<contour>
			<point x="280" y="136" type="curve" smooth="yes"/>
			<point x="227" y="136"/>
			<point x="201" y="175"/>
			<point x="201" y="229" type="curve" smooth="yes"/>
			<point x="201" y="303"/>
			<point x="242" y="385"/>
			<point x="311" y="385" type="curve" smooth="yes"/>
			<point x="357" y="385"/>
			<point x="386" y="350"/>
			<point x="386" y="297" type="curve" smooth="yes"/>
			<point x="386" y="216"/>
			<point x="344" y="136"/>
		</contour>
	</outline>
	<anchor name="bottom" x="187" y="-210"/>
	<anchor name="ogonek" x="304" y="-201"/>
	<anchor name="top" x="348" y="500"/>
</glyph>
<glyph name="h" format="2">
	<unicode hex="0068"/>
	<advance width="602"/>
	<outline>
		<contour>
			<point x="0" y="0" type="line"/>
			<point x="170" y="0" type="line"/>
			<point x="233" y="270" type="line" smooth="yes"/>
			<point x="249" y="338"/>
			<point x="280" y="380"/>
			<point x="333" y="380" type="curve" smooth="yes"/>
			<point x="378" y="380"/>
			<point x="400" y="348"/>
			<point x="388" y="295" type="curve" smooth="yes"/>
			<point x="320" y="0" type="line"/>
			<point x="490" y="0" type="line"/>
			<point x="564" y="322" type="line" smooth="yes"/>
			<point x="590" y="437"/>
			<point x="529" y="510"/>
			<point x="433" y="510" type="curve" smooth="yes"/>
			<point x="332" y="510"/>
			<point x="268" y="445"/>
			<point x="243" y="362" type="curve"/>
			<point x="260" y="386" type="line"/>
			<point x="335" y="712" type="line"/>
			<point x="165" y="712" type="line"/>
		</contour>
	</outline>
	<anchor name="bottom" x="246" y="0"/>
	<anchor name="ogonek" x="490" y="0"/>
	<anchor name="top" x="248" y="704"/>
</glyph>
<glyph name="k" format="2">
  <advance width="605"/>
  <unicode hex="006B"/>
  <anchor x="260" y="0" name="bottom"/>
  <anchor x="247" y="700" name="top"/>
  <outline>
    <contour>
      <point x="645" y="500" type="line"/>
      <point x="448" y="500" type="line"/>
      <point x="180" y="244" type="line"/>
      <point x="165" y="83" type="line"/>
      <point x="342" y="241" type="line"/>
      <point x="362" y="250" type="line"/>
    </contour>
    <contour>
      <point x="335" y="712" type="line"/>
      <point x="165" y="712" type="line"/>
      <point x="0" y="0" type="line"/>
      <point x="170" y="0" type="line"/>
    </contour>
    <contour>
      <point x="404" y="350" type="line"/>
      <point x="285" y="253" type="line"/>
      <point x="382" y="0" type="line"/>
      <point x="549" y="0" type="line"/>
    </contour>
  </outline>
</glyph>
<glyph name="l" format="2">
	<advance width="327"/>
	<unicode hex="006C"/>
	<anchor x="305" y="358" name="center"/>
	<anchor x="207" y="0" name="ogonek"/>
	<anchor x="248" y="712" name="top"/>
	<anchor x="390" y="712" name="topright"/>
	<anchor x="130" y="0" name="bottom"/>
	<outline>
		<contour>
			<point x="174" y="-9" type="curve" smooth="yes"/>
			<point x="208" y="-9"/>
			<point x="232" y="-6"/>
			<point x="252" y="3" type="curve"/>
			<point x="283" y="113" type="line"/>
			<point x="275" y="110"/>
			<point x="266" y="109"/>
			<point x="251" y="109" type="curve" smooth="yes"/>
			<point x="212" y="109"/>
			<point x="200" y="130"/>
			<point x="210" y="175" type="curve" smooth="yes"/>
			<point x="333" y="712" type="line"/>
			<point x="163" y="712" type="line"/>
			<point x="39" y="173" type="line" smooth="yes"/>
			<point x="14" y="65"/>
			<point x="56" y="-9"/>
		</contour>
	</outline>
</glyph>
<glyph name="m" format="2">
  <advance width="922"/>
  <unicode hex="006D"/>
  <anchor x="404" y="0" name="bottom"/>
  <anchor x="807" y="0" name="ogonek"/>
  <anchor x="519" y="500" name="top"/>
  <outline>
    <contour>
      <point x="0" y="0" type="line"/>
      <point x="170" y="0" type="line"/>
      <point x="233" y="270" type="line" smooth="yes"/>
      <point x="249" y="338"/>
      <point x="280" y="380"/>
      <point x="334" y="380" type="curve" smooth="yes"/>
      <point x="378" y="380"/>
      <point x="401" y="348"/>
      <point x="388" y="294" type="curve" smooth="yes"/>
      <point x="319" y="0" type="line"/>
      <point x="489" y="0" type="line"/>
      <point x="562" y="315" type="line" smooth="yes"/>
      <point x="590" y="437"/>
      <point x="530" y="510"/>
      <point x="427" y="510" type="curve" smooth="yes"/>
      <point x="334" y="510"/>
      <point x="261" y="455"/>
      <point x="233" y="355" type="curve"/>
      <point x="242" y="341" type="line"/>
      <point x="267" y="500" type="line"/>
      <point x="116" y="500" type="line"/>
    </contour>
    <contour>
      <point x="639" y="0" type="line"/>
      <point x="809" y="0" type="line"/>
      <point x="882" y="315" type="line" smooth="yes"/>
      <point x="910" y="437"/>
      <point x="848" y="510"/>
      <point x="743" y="510" type="curve" smooth="yes"/>
      <point x="653" y="510"/>
      <point x="576" y="456"/>
      <point x="543" y="345" type="curve"/>
      <point x="552" y="270" type="line"/>
      <point x="568" y="341"/>
      <point x="602" y="380"/>
      <point x="654" y="380" type="curve" smooth="yes"/>
      <point x="700" y="380"/>
      <point x="719" y="346"/>
      <point x="707" y="294" type="curve" smooth="yes"/>
    </contour>
  </outline>
</glyph>
<glyph name="n" format="2">
  <advance width="603"/>
  <unicode hex="006E"/>
  <anchor x="251" y="0" name="bottom"/>
  <anchor x="490" y="0" name="ogonek"/>
  <anchor x="360" y="500" name="top"/>
  <outline>
    <contour>
      <point x="0" y="0" type="line"/>
      <point x="170" y="0" type="line"/>
      <point x="233" y="270" type="line" smooth="yes"/>
      <point x="249" y="338"/>
      <point x="280" y="380"/>
      <point x="333" y="380" type="curve" smooth="yes"/>
      <point x="378" y="380"/>
      <point x="400" y="348"/>
      <point x="388" y="295" type="curve" smooth="yes"/>
      <point x="320" y="0" type="line"/>
      <point x="490" y="0" type="line"/>
      <point x="563" y="316" type="line" smooth="yes"/>
      <point x="591" y="437"/>
      <point x="530" y="510"/>
      <point x="427" y="510" type="curve" smooth="yes"/>
      <point x="334" y="510"/>
      <point x="261" y="455"/>
      <point x="233" y="355" type="curve"/>
      <point x="241" y="341" type="line"/>
      <point x="267" y="500" type="line"/>
      <point x="116" y="500" type="line"/>
    </contour>
  </outline>
</glyph>
<glyph name="o" format="2">
	<unicode hex="006F"/>
	<advance width="590"/>
	<outline>
		<contour>
			<point x="275" y="-10" type="curve" smooth="yes"/>
			<point x="454" y="-10"/>
			<point x="556" y="123"/>
			<point x="556" y="284" type="curve" smooth="yes"/>
			<point x="556" y="414"/>
			<point x="464" y="510"/>
			<point x="315" y="510" type="curve" smooth="yes"/>
			<point x="136" y="510"/>
			<point x="34" y="378"/>
			<point x="34" y="216" type="curve" smooth="yes"/>
			<point x="34" y="88"/>
			<point x="126" y="-10"/>
		</contour>
		<contour>
			<point x="278" y="110" type="curve" smooth="yes"/>
			<point x="228" y="110"/>
			<point x="200" y="146"/>
			<point x="200" y="202" type="curve" smooth="yes"/>
			<point x="200" y="289"/>
			<point x="246" y="390"/>
			<point x="312" y="390" type="curve" smooth="yes"/>
			<point x="362" y="390"/>
			<point x="390" y="354"/>
			<point x="390" y="298" type="curve" smooth="yes"/>
			<point x="390" y="211"/>
			<point x="344" y="110"/>
		</contour>
	</outline>
	<anchor name="bottom" x="245" y="0"/>
	<anchor name="center" x="295" y="250"/>
	<anchor name="ogonek" x="368" y="2"/>
	<anchor name="top" x="338" y="500"/>
	<anchor name="topright" x="579" y="500"/>
</glyph>
<glyph name="p" format="2">
  <advance width="609"/>
  <unicode hex="0070"/>
  <anchor x="36" y="-210" name="bottom"/>
  <anchor x="410" y="13" name="ogonek"/>
  <anchor x="370" y="500" name="top"/>
  <outline>
    <contour>
      <point x="-49" y="-210" type="line"/>
      <point x="121" y="-210" type="line"/>
      <point x="210" y="175" type="line"/>
      <point x="189" y="142" type="line"/>
      <point x="191" y="34"/>
      <point x="266" y="-10"/>
      <point x="345" y="-10" type="curve" smooth="yes"/>
      <point x="484" y="-10"/>
      <point x="578" y="150"/>
      <point x="578" y="313" type="curve" smooth="yes"/>
      <point x="578" y="440"/>
      <point x="512" y="509"/>
      <point x="420" y="509" type="curve" smooth="yes"/>
      <point x="328" y="509"/>
      <point x="250" y="443"/>
      <point x="228" y="336" type="curve"/>
      <point x="239" y="330" type="line"/>
      <point x="269" y="500" type="line"/>
      <point x="115" y="500" type="line"/>
    </contour>
    <contour>
      <point x="297" y="115" type="curve" smooth="yes"/>
      <point x="248" y="115"/>
      <point x="223" y="151"/>
      <point x="223" y="204" type="curve" smooth="yes"/>
      <point x="223" y="291"/>
      <point x="268" y="384"/>
      <point x="335" y="384" type="curve" smooth="yes"/>
      <point x="383" y="384"/>
      <point x="410" y="350"/>
      <point x="410" y="292" type="curve" smooth="yes"/>
      <point x="410" y="213"/>
      <point x="366" y="115"/>
    </contour>
  </outline>
</glyph>
<glyph name="q" format="2">
	<unicode hex="0071"/>
	<advance width="619"/>
	<outline>
		<contour>
			<point x="280" y="-210" type="line"/>
			<point x="444" y="-210" type="line"/>
			<point x="608" y="500" type="line"/>
			<point x="438" y="500" type="line"/>
			<point x="399" y="329" type="line"/>
			<point x="417" y="352" type="line"/>
			<point x="419" y="463"/>
			<point x="349" y="510"/>
			<point x="274" y="510" type="curve" smooth="yes"/>
			<point x="127" y="510"/>
			<point x="31" y="353"/>
			<point x="31" y="190" type="curve" smooth="yes"/>
			<point x="31" y="62"/>
			<point x="104" y="-9"/>
			<point x="200" y="-9" type="curve" smooth="yes"/>
			<point x="284" y="-9"/>
			<point x="351" y="54"/>
			<point x="375" y="155" type="curve"/>
			<point x="366" y="165" type="line"/>
		</contour>
		<contour>
			<point x="275" y="115" type="curve" smooth="yes"/>
			<point x="224" y="115"/>
			<point x="199" y="151"/>
			<point x="199" y="210" type="curve" smooth="yes"/>
			<point x="199" y="286"/>
			<point x="241" y="385"/>
			<point x="313" y="385" type="curve" smooth="yes"/>
			<point x="358" y="385"/>
			<point x="386" y="350"/>
			<point x="386" y="295" type="curve" smooth="yes"/>
			<point x="386" y="212"/>
			<point x="340" y="115"/>
		</contour>
	</outline>
	<anchor name="bottom" x="365" y="-210"/>
	<anchor name="ogonek" x="264" y="13"/>
	<anchor name="top" x="359" y="500"/>
</glyph>
<glyph name="r" format="2">
	<advance width="417"/>
	<unicode hex="0072"/>
	<anchor x="170" y="0" name="ogonek"/>
	<anchor x="88" y="0" name="bottom"/>
	<anchor x="291" y="500" name="top"/>
	<outline>
		<contour>
			<point x="0" y="0" type="line"/>
			<point x="170" y="0" type="line"/>
			<point x="223" y="231" type="line" smooth="yes"/>
			<point x="246" y="331"/>
			<point x="306" y="368"/>
			<point x="364" y="368" type="curve" smooth="yes"/>
			<point x="392" y="368"/>
			<point x="408" y="364"/>
			<point x="421" y="358" type="curve"/>
			<point x="463" y="501" type="line"/>
			<point x="452" y="506"/>
			<point x="438" y="510"/>
			<point x="416" y="510" type="curve" smooth="yes"/>
			<point x="322" y="510"/>
			<point x="259" y="440"/>
			<point x="228" y="335" type="curve"/>
			<point x="235" y="318" type="line"/>
			<point x="267" y="500" type="line"/>
			<point x="116" y="500" type="line"/>
		</contour>
	</outline>
</glyph>
<glyph name="s" format="2">
	<advance width="514"/>
	<unicode hex="0073"/>
	<anchor x="323" y="6" name="ogonek"/>
	<anchor x="215" y="0" name="bottom"/>
	<anchor x="309" y="500" name="top"/>
	<outline>
		<contour>
			<point x="41" y="36"/>
			<point x="144" y="-11"/>
			<point x="248" y="-11" type="curve" smooth="yes"/>
			<point x="380" y="-11"/>
			<point x="463" y="55"/>
			<point x="463" y="163" type="curve" smooth="yes"/>
			<point x="463" y="225"/>
			<point x="426" y="271"/>
			<point x="356" y="293" type="curve" smooth="yes"/>
			<point x="264" y="322" type="line" smooth="yes"/>
			<point x="245" y="328"/>
			<point x="221" y="337"/>
			<point x="221" y="360" type="curve" smooth="yes"/>
			<point x="221" y="383"/>
			<point x="241" y="396"/>
			<point x="280" y="396" type="curve" smooth="yes"/>
			<point x="336" y="396"/>
			<point x="391" y="365"/>
			<point x="419" y="323" type="curve"/>
			<point x="503" y="407" type="line"/>
			<point x="457" y="473"/>
			<point x="375" y="510"/>
			<point x="273" y="510" type="curve" smooth="yes"/>
			<point x="147" y="510"/>
			<point x="60" y="447"/>
			<point x="60" y="345" type="curve" smooth="yes"/>
			<point x="60" y="274"/>
			<point x="101" y="229"/>
			<point x="197" y="199" type="curve" smooth="yes"/>
			<point x="254" y="181" type="line" smooth="yes"/>
			<point x="283" y="172"/>
			<point x="294" y="157"/>
			<point x="294" y="141" type="curve" smooth="yes"/>
			<point x="294" y="117"/>
			<point x="272" y="104"/>
			<point x="232" y="104" type="curve" smooth="yes"/>
			<point x="172" y="104"/>
			<point x="114" y="142"/>
			<point x="80" y="196" type="curve"/>
			<point x="-8" y="115" type="line"/>
		</contour>
	</outline>
</glyph>
<glyph name="t" format="2">
  <advance width="427"/>
  <unicode hex="0074"/>
  <anchor x="211" y="0" name="bottom"/>
  <anchor x="216" y="250" name="center"/>
  <anchor x="326" y="6" name="ogonek"/>
  <anchor x="286" y="652" name="top"/>
  <anchor x="453" y="767" name="topright"/>
  <outline>
    <contour>
      <point x="248" y="-9" type="curve"/>
      <point x="291" y="-9"/>
      <point x="332" y="-3"/>
      <point x="367" y="14" type="curve"/>
      <point x="379" y="123" type="line"/>
      <point x="364" y="115"/>
      <point x="348" y="109"/>
      <point x="319" y="109" type="curve"/>
      <point x="270" y="109"/>
      <point x="243" y="135"/>
      <point x="256" y="187" type="curve"/>
      <point x="364" y="656" type="line"/>
      <point x="182" y="608" type="line"/>
      <point x="85" y="183" type="line" smooth="yes"/>
      <point x="56" y="56"/>
      <point x="127" y="-9"/>
    </contour>
    <contour>
      <point x="40" y="379" type="line"/>
      <point x="429" y="379" type="line"/>
      <point x="458" y="500" type="line"/>
      <point x="69" y="500" type="line"/>
    </contour>
  </outline>
</glyph>
<glyph name="u" format="2">
	<unicode hex="0075"/>
	<advance width="602"/>
	<outline>
		<contour>
			<point x="167" y="-9" type="curve" smooth="yes"/>
			<point x="258" y="-9"/>
			<point x="329" y="45"/>
			<point x="358" y="144" type="curve"/>
			<point x="349" y="159" type="line"/>
			<point x="324" y="0" type="line"/>
			<point x="475" y="0" type="line"/>
			<point x="591" y="500" type="line"/>
			<point x="421" y="500" type="line"/>
			<point x="358" y="230" type="line" smooth="yes"/>
			<point x="343" y="166"/>
			<point x="316" y="121"/>
			<point x="261" y="121" type="curve" smooth="yes"/>
			<point x="217" y="121"/>
			<point x="191" y="151"/>
			<point x="204" y="206" type="curve" smooth="yes"/>
			<point x="272" y="500" type="line"/>
			<point x="102" y="500" type="line"/>
			<point x="27" y="181" type="line" smooth="yes"/>
			<point x="-1" y="63"/>
			<point x="65" y="-9"/>
		</contour>
	</outline>
	<anchor name="bottom" x="226" y="0"/>
	<anchor name="ogonek" x="475" y="0"/>
	<anchor name="top" x="339" y="496"/>
	<anchor name="topright" x="601" y="500"/>
</glyph>
<glyph name="v" format="2">
  <advance width="540"/>
  <unicode hex="0076"/>
  <anchor x="213" y="0" name="bottom"/>
  <anchor x="315" y="0" name="ogonek"/>
  <anchor x="325" y="500" name="top"/>
  <outline>
    <contour>
      <point x="411" y="500" type="line"/>
      <point x="204" y="44" type="line"/>
      <point x="237" y="38" type="line"/>
      <point x="222" y="500" type="line"/>
      <point x="54" y="500" type="line"/>
      <point x="111" y="0" type="line"/>
      <point x="315" y="0" type="line"/>
      <point x="602" y="500" type="line"/>
    </contour>
  </outline>
</glyph>
<glyph name="w" format="2">
  <advance width="870"/>
  <unicode hex="0077"/>
  <anchor x="374" y="0" name="bottom"/>
  <anchor x="664" y="0" name="ogonek"/>
  <anchor x="480" y="500" name="top"/>
  <outline>
    <contour>
      <point x="84" y="0" type="line"/>
      <point x="292" y="0" type="line"/>
      <point x="445" y="308" type="line"/>
      <point x="464" y="0" type="line"/>
      <point x="667" y="0" type="line"/>
      <point x="923" y="500" type="line"/>
      <point x="743" y="500" type="line"/>
      <point x="583" y="137" type="line"/>
      <point x="565" y="500" type="line"/>
      <point x="397" y="500" type="line"/>
      <point x="227" y="139" type="line"/>
      <point x="226" y="500" type="line"/>
      <point x="60" y="500" type="line"/>
    </contour>
  </outline>
</glyph>
<glyph name="x" format="2">
	<advance width="578"/>
	<unicode hex="0078"/>
	<anchor x="515" y="0" name="ogonek"/>
	<anchor x="236" y="0" name="bottom"/>
	<anchor x="341" y="500" name="top"/>
	<outline>
		<contour>
			<point x="-54" y="0" type="line"/>
			<point x="150" y="0" type="line"/>
			<point x="317" y="234" type="line"/>
			<point x="380" y="227" type="line"/>
			<point x="625" y="500" type="line"/>
			<point x="428" y="500" type="line"/>
			<point x="254" y="269" type="line"/>
			<point x="200" y="280" type="line"/>
		</contour>
		<contour>
			<point x="332" y="0" type="line"/>
			<point x="515" y="0" type="line"/>
			<point x="386" y="276" type="line"/>
			<point x="323" y="266" type="line"/>
			<point x="255" y="500" type="line"/>
			<point x="71" y="500" type="line"/>
			<point x="192" y="234" type="line"/>
			<point x="251" y="237" type="line"/>
		</contour>
	</outline>
</glyph>
<glyph name="y" format="2">
	<advance width="551"/>
	<unicode hex="0079"/>
	<anchor x="79" y="-210" name="ogonek"/>
	<anchor x="346" y="496" name="top"/>
	<anchor x="317" y="464" name="top_hook"/>
	<anchor x="429" y="0" name="bottom"/>
	<outline>
		<contour>
			<point x="42" y="-215" type="curve" smooth="yes"/>
			<point x="165" y="-215"/>
			<point x="231" y="-153"/>
			<point x="296" y="-42" type="curve" smooth="yes"/>
			<point x="613" y="500" type="line"/>
			<point x="432" y="500" type="line"/>
			<point x="302" y="228" type="line"/>
			<point x="246" y="109" type="line"/>
			<point x="243" y="231" type="line"/>
			<point x="231" y="500" type="line"/>
			<point x="58" y="500" type="line"/>
			<point x="143" y="-11" type="line"/>
			<point x="124" y="-44" type="line" smooth="yes"/>
			<point x="106" y="-75"/>
			<point x="78" y="-90"/>
			<point x="40" y="-90" type="curve" smooth="yes"/>
			<point x="7" y="-90"/>
			<point x="-22" y="-80"/>
			<point x="-45" y="-61" type="curve"/>
			<point x="-92" y="-180" type="line"/>
			<point x="-64" y="-201"/>
			<point x="-15" y="-215"/>
		</contour>
	</outline>
</glyph>
<glyph name="z" format="2">
	<advance width="504"/>
	<unicode hex="007A"/>
	<anchor x="261" y="250" name="center"/>
	<anchor x="420" y="0" name="ogonek"/>
	<anchor x="301" y="500" name="top"/>
	<anchor x="207" y="0" name="bottom"/>
	<outline>
		<contour>
			<point x="-18" y="0" type="line"/>
			<point x="420" y="0" type="line"/>
			<point x="447" y="119" type="line"/>
			<point x="296" y="119" type="line"/>
			<point x="206" y="116" type="line"/>
			<point x="272" y="175" type="line"/>
			<point x="494" y="393" type="line"/>
			<point x="519" y="500" type="line"/>
			<point x="94" y="500" type="line"/>
			<point x="67" y="381" type="line"/>
			<point x="220" y="381" type="line"/>
			<point x="297" y="384" type="line"/>
			<point x="241" y="336" type="line"/>
			<point x="7" y="105" type="line"/>
		</contour>
	</outline>
</glyph>
<glyph name="braceleft" format="2">
	<advance width="413"/>
	<unicode hex="007B"/>
	<outline>
		<contour>
			<point x="280" y="-191" type="curve"/>
			<point x="285" y="-191" type="line"/>
			<point x="309" y="-86" type="line"/>
			<point x="297" y="-86" type="line" smooth="yes"/>
			<point x="240" y="-85"/>
			<point x="213" y="-59"/>
			<point x="227" y="2" type="curve" smooth="yes"/>
			<point x="261" y="149" type="line" smooth="yes"/>
			<point x="276" y="213"/>
			<point x="254" y="254"/>
			<point x="199" y="269" type="curve"/>
			<point x="261" y="280"/>
			<point x="301" y="320"/>
			<point x="315" y="382" type="curve" smooth="yes"/>
			<point x="352" y="543" type="line" smooth="yes"/>
			<point x="366" y="604"/>
			<point x="398" y="629"/>
			<point x="452" y="629" type="curve" smooth="yes"/>
			<point x="474" y="629" type="line"/>
			<point x="499" y="736" type="line"/>
			<point x="438" y="736" type="line" smooth="yes"/>
			<point x="314" y="736"/>
			<point x="249" y="687"/>
			<point x="225" y="581" type="curve" smooth="yes"/>
			<point x="186" y="412" type="line" smooth="yes"/>
			<point x="171" y="349"/>
			<point x="136" y="327"/>
			<point x="82" y="327" type="curve" smooth="yes"/>
			<point x="58" y="327" type="line"/>
			<point x="33" y="217" type="line"/>
			<point x="41" y="217" type="line" smooth="yes"/>
			<point x="103" y="217"/>
			<point x="133" y="186"/>
			<point x="116" y="108" type="curve" smooth="yes"/>
			<point x="89" y="-10" type="line" smooth="yes"/>
			<point x="61" y="-134"/>
			<point x="132" y="-191"/>
		</contour>
	</outline>
</glyph>
<glyph name="bar" format="2">
	<advance width="319"/>
	<unicode hex="007C"/>
	<outline>
		<contour>
			<point x="341" y="713" type="line"/>
			<point x="191" y="713" type="line"/>
			<point x="-13" y="-168" type="line"/>
			<point x="137" y="-168" type="line"/>
		</contour>
	</outline>
</glyph>
<glyph name="braceright" format="2">
	<advance width="412"/>
	<unicode hex="007D"/>
	<outline>
		<contour>
			<point x="-88" y="-191" type="line"/>
			<point x="-20" y="-191" type="line" smooth="yes"/>
			<point x="97" y="-191"/>
			<point x="162" y="-143"/>
			<point x="186" y="-37" type="curve" smooth="yes"/>
			<point x="225" y="132" type="line" smooth="yes"/>
			<point x="240" y="195"/>
			<point x="275" y="217"/>
			<point x="329" y="217" type="curve" smooth="yes"/>
			<point x="353" y="217" type="line"/>
			<point x="378" y="327" type="line"/>
			<point x="372" y="327" type="line" smooth="yes"/>
			<point x="308" y="327"/>
			<point x="278" y="359"/>
			<point x="296" y="437" type="curve" smooth="yes"/>
			<point x="325" y="567" type="line" smooth="yes"/>
			<point x="350" y="678"/>
			<point x="279" y="736"/>
			<point x="161" y="736" type="curve" smooth="yes"/>
			<point x="126" y="736" type="line"/>
			<point x="102" y="629" type="line"/>
			<point x="120" y="629" type="line" smooth="yes"/>
			<point x="170" y="629"/>
			<point x="198" y="602"/>
			<point x="184" y="542" type="curve" smooth="yes"/>
			<point x="150" y="396" type="line" smooth="yes"/>
			<point x="136" y="332"/>
			<point x="157" y="291"/>
			<point x="212" y="275" type="curve"/>
			<point x="151" y="265"/>
			<point x="110" y="225"/>
			<point x="96" y="163" type="curve" smooth="yes"/>
			<point x="60" y="2" type="line" smooth="yes"/>
			<point x="46" y="-57"/>
			<point x="18" y="-86"/>
			<point x="-41" y="-86" type="curve" smooth="yes"/>
			<point x="-63" y="-86" type="line"/>
		</contour>
	</outline>
</glyph>
<glyph name="asciitilde" format="2">
  <advance width="592"/>
  <unicode hex="007E"/>
  <outline>
    <contour>
      <point x="589" y="425" type="curve"/>
      <point x="459" y="425" type="line"/>
      <point x="447" y="384"/>
      <point x="425" y="364"/>
      <point x="399" y="364" type="curve" smooth="yes"/>
      <point x="343" y="364"/>
      <point x="312" y="430"/>
      <point x="233" y="430" type="curve" smooth="yes"/>
      <point x="149" y="430"/>
      <point x="66" y="377"/>
      <point x="41" y="236" type="curve"/>
      <point x="171" y="236" type="line"/>
      <point x="182" y="276"/>
      <point x="204" y="296"/>
      <point x="230" y="296" type="curve" smooth="yes"/>
      <point x="287" y="296"/>
      <point x="312" y="231"/>
      <point x="403" y="231" type="curve" smooth="yes"/>
      <point x="479" y="231"/>
      <point x="561" y="277"/>
    </contour>
  </outline>
</glyph>
<glyph name="cent" format="2">
	<unicode hex="00A2"/>
	<advance width="566"/>
	<outline>
		<contour>
			<point x="276" y="-10" type="curve" smooth="yes"/>
			<point x="391" y="-10"/>
			<point x="481" y="45"/>
			<point x="514" y="133" type="curve"/>
			<point x="378" y="177" type="line"/>
			<point x="361" y="122"/>
			<point x="327" y="97"/>
			<point x="281" y="97" type="curve" smooth="yes"/>
			<point x="216" y="97"/>
			<point x="180" y="145"/>
			<point x="180" y="212" type="curve" smooth="yes"/>
			<point x="180" y="314"/>
			<point x="228" y="403"/>
			<point x="311" y="403" type="curve" smooth="yes"/>
			<point x="371" y="403"/>
			<point x="405" y="362"/>
			<point x="402" y="306" type="curve"/>
			<point x="545" y="327" type="line"/>
			<point x="537" y="430"/>
			<point x="453" y="510"/>
			<point x="311" y="510" type="curve" smooth="yes"/>
			<point x="146" y="510"/>
			<point x="37" y="393"/>
			<point x="37" y="218" type="curve" smooth="yes"/>
			<point x="37" y="85"/>
			<point x="130" y="-10"/>
		</contour>
		<contour>
			<point x="158" y="-100" type="line"/>
			<point x="263" y="-100" type="line"/>
			<point x="424" y="600" type="line"/>
			<point x="319" y="600" type="line"/>
		</contour>
	</outline>
</glyph>
<glyph name="sterling" format="2">
	<unicode hex="00A3"/>
	<advance width="615"/>
	<outline>
		<contour>
			<point x="68" y="271" type="line"/>
			<point x="465" y="271" type="line"/>
			<point x="483" y="347" type="line"/>
			<point x="86" y="347" type="line"/>
		</contour>
		<component base="sterling.part" xOffset="13"/>
	</outline>
</glyph>
<glyph name="currency" format="2">
	<unicode hex="00A4"/>
	<advance width="650"/>
	<outline>
		<contour>
			<point x="345" y="537" type="curve" smooth="yes"/>
			<point x="221" y="537"/>
			<point x="134" y="452"/>
			<point x="134" y="329" type="curve" smooth="yes"/>
			<point x="134" y="206"/>
			<point x="219" y="121"/>
			<point x="343" y="121" type="curve" smooth="yes"/>
			<point x="467" y="121"/>
			<point x="552" y="207"/>
			<point x="552" y="331" type="curve" smooth="yes"/>
			<point x="552" y="452"/>
			<point x="468" y="537"/>
		</contour>
		<contour>
			<point x="344" y="417" type="curve" smooth="yes"/>
			<point x="391" y="417"/>
			<point x="423" y="382"/>
			<point x="423" y="331" type="curve" smooth="yes"/>
			<point x="423" y="278"/>
			<point x="391" y="242"/>
			<point x="343" y="242" type="curve" smooth="yes"/>
			<point x="296" y="242"/>
			<point x="263" y="277"/>
			<point x="263" y="329" type="curve" smooth="yes"/>
			<point x="263" y="381"/>
			<point x="296" y="417"/>
		</contour>
		<contour>
			<point x="160" y="616" type="line"/>
			<point x="62" y="518" type="line"/>
			<point x="207" y="388" type="line"/>
			<point x="288" y="469" type="line"/>
		</contour>
		<contour>
			<point x="206" y="271" type="line"/>
			<point x="60" y="140" type="line"/>
			<point x="157" y="43" type="line"/>
			<point x="286" y="190" type="line"/>
		</contour>
		<contour>
			<point x="483" y="267" type="line"/>
			<point x="401" y="185" type="line"/>
			<point x="526" y="43" type="line"/>
			<point x="624" y="140" type="line"/>
		</contour>
		<contour>
			<point x="528" y="616" type="line"/>
			<point x="403" y="472" type="line"/>
			<point x="485" y="389" type="line"/>
			<point x="626" y="518" type="line"/>
		</contour>
	</outline>
</glyph>
<glyph name="yen" format="2">
  <advance width="650"/>
  <unicode hex="00A5"/>
  <outline>
    <contour>
      <point x="184" y="0" type="line"/>
      <point x="348" y="0" type="line"/>
      <point x="377" y="121" type="line"/>
      <point x="546" y="121" type="line"/>
      <point x="559" y="179" type="line"/>
      <point x="390" y="179" type="line"/>
      <point x="405" y="245" type="line"/>
      <point x="574" y="245" type="line"/>
      <point x="588" y="305" type="line"/>
      <point x="492" y="305" type="line"/>
      <point x="432" y="300" type="line"/>
      <point x="719" y="660" type="line"/>
      <point x="531" y="660" type="line"/>
      <point x="408" y="455" type="line"/>
      <point x="351" y="353" type="line"/>
      <point x="349" y="353" type="line"/>
      <point x="324" y="454" type="line"/>
      <point x="267" y="660" type="line"/>
      <point x="108" y="660" type="line"/>
      <point x="242" y="301" type="line"/>
      <point x="182" y="305" type="line"/>
      <point x="87" y="305" type="line"/>
      <point x="73" y="245" type="line"/>
      <point x="241" y="245" type="line"/>
      <point x="226" y="179" type="line"/>
      <point x="57" y="179" type="line"/>
      <point x="44" y="121" type="line"/>
      <point x="213" y="121" type="line"/>
    </contour>
  </outline>
</glyph>
<glyph name="section" format="2">
  <advance width="614"/>
  <unicode hex="00A7"/>
  <outline>
    <contour>
      <point x="271" y="-111" type="curve" smooth="yes"/>
      <point x="408" y="-111"/>
      <point x="496" y="-32"/>
      <point x="496" y="81" type="curve" smooth="yes"/>
      <point x="496" y="148"/>
      <point x="448" y="188"/>
      <point x="360" y="215" type="curve" smooth="yes"/>
      <point x="229" y="255" type="line" smooth="yes"/>
      <point x="177" y="271"/>
      <point x="154" y="289"/>
      <point x="154" y="320" type="curve" smooth="yes"/>
      <point x="154" y="354"/>
      <point x="183" y="373"/>
      <point x="261" y="378" type="curve"/>
      <point x="227" y="446" type="line"/>
      <point x="115" y="445"/>
      <point x="33" y="398"/>
      <point x="33" y="300" type="curve" smooth="yes"/>
      <point x="33" y="214"/>
      <point x="89" y="176"/>
      <point x="181" y="145" type="curve" smooth="yes"/>
      <point x="302" y="105" type="line" smooth="yes"/>
      <point x="349" y="89"/>
      <point x="366" y="75"/>
      <point x="366" y="49" type="curve" smooth="yes"/>
      <point x="366" y="15"/>
      <point x="332" y="-5"/>
      <point x="281" y="-5" type="curve" smooth="yes"/>
      <point x="204" y="-5"/>
      <point x="139" y="33"/>
      <point x="107" y="92" type="curve"/>
      <point x="5" y="26" type="line"/>
      <point x="50" y="-66"/>
      <point x="161" y="-111"/>
    </contour>
    <contour>
      <point x="391" y="111" type="line"/>
      <point x="509" y="101"/>
      <point x="590" y="165"/>
      <point x="590" y="266" type="curve" smooth="yes"/>
      <point x="590" y="336"/>
      <point x="538" y="382"/>
      <point x="441" y="410" type="curve" smooth="yes"/>
      <point x="351" y="436" type="line" smooth="yes"/>
      <point x="288" y="454"/>
      <point x="276" y="471"/>
      <point x="276" y="500" type="curve" smooth="yes"/>
      <point x="276" y="531"/>
      <point x="302" y="558"/>
      <point x="357" y="558" type="curve" smooth="yes"/>
      <point x="426" y="558"/>
      <point x="478" y="533"/>
      <point x="513" y="475" type="curve"/>
      <point x="615" y="543" type="line"/>
      <point x="559" y="636"/>
      <point x="464" y="669"/>
      <point x="361" y="669" type="curve" smooth="yes"/>
      <point x="228" y="669"/>
      <point x="138" y="595"/>
      <point x="138" y="484" type="curve" smooth="yes"/>
      <point x="138" y="412"/>
      <point x="179" y="365"/>
      <point x="251" y="342" type="curve" smooth="yes"/>
      <point x="405" y="293" type="line" smooth="yes"/>
      <point x="445" y="280"/>
      <point x="468" y="265"/>
      <point x="468" y="238" type="curve" smooth="yes"/>
      <point x="468" y="197"/>
      <point x="419" y="181"/>
      <point x="360" y="183" type="curve"/>
    </contour>
  </outline>
</glyph>
<glyph name="copyright" format="2">
	<advance width="778"/>
	<unicode hex="00A9"/>
	<outline>
		<contour>
			<point x="408" y="-10" type="curve" smooth="yes"/>
			<point x="609" y="-10"/>
			<point x="752" y="130"/>
			<point x="752" y="330" type="curve" smooth="yes"/>
			<point x="752" y="531"/>
			<point x="609" y="670"/>
			<point x="408" y="670" type="curve" smooth="yes"/>
			<point x="207" y="670"/>
			<point x="63" y="530"/>
			<point x="63" y="330" type="curve" smooth="yes"/>
			<point x="63" y="130"/>
			<point x="207" y="-10"/>
		</contour>
		<contour>
			<point x="408" y="74" type="curve" smooth="yes"/>
			<point x="254" y="74"/>
			<point x="151" y="180"/>
			<point x="151" y="330" type="curve" smooth="yes"/>
			<point x="151" y="480"/>
			<point x="254" y="586"/>
			<point x="408" y="586" type="curve" smooth="yes"/>
			<point x="561" y="586"/>
			<point x="664" y="480"/>
			<point x="664" y="330" type="curve" smooth="yes"/>
			<point x="664" y="180"/>
			<point x="561" y="74"/>
		</contour>
		<contour>
			<point x="413" y="138" type="curve" smooth="yes"/>
			<point x="502" y="138"/>
			<point x="554" y="173"/>
			<point x="585" y="254" type="curve"/>
			<point x="491" y="299" type="line"/>
			<point x="478" y="264"/>
			<point x="452" y="254"/>
			<point x="419" y="254" type="curve" smooth="yes"/>
			<point x="373" y="254"/>
			<point x="345" y="281"/>
			<point x="345" y="329" type="curve" smooth="yes"/>
			<point x="345" y="378"/>
			<point x="373" y="404"/>
			<point x="418" y="404" type="curve" smooth="yes"/>
			<point x="452" y="404"/>
			<point x="474" y="393"/>
			<point x="488" y="363" type="curve"/>
			<point x="586" y="410" type="line"/>
			<point x="563" y="477"/>
			<point x="504" y="520"/>
			<point x="413" y="520" type="curve" smooth="yes"/>
			<point x="293" y="520"/>
			<point x="222" y="446"/>
			<point x="222" y="329" type="curve" smooth="yes"/>
			<point x="222" y="212"/>
			<point x="293" y="138"/>
		</contour>
	</outline>
</glyph>
<glyph name="ordfeminine" format="2">
	<advance width="422"/>
	<unicode hex="00AA"/>
	<outline>
		<contour>
			<point x="179" y="306" type="curve" smooth="yes"/>
			<point x="237" y="306"/>
			<point x="288" y="352"/>
			<point x="306" y="433" type="curve"/>
			<point x="303" y="465" type="line"/>
			<point x="274" y="314" type="line"/>
			<point x="385" y="314" type="line"/>
			<point x="466" y="656" type="line"/>
			<point x="342" y="656" type="line"/>
			<point x="311" y="524" type="line"/>
			<point x="327" y="547" type="line"/>
			<point x="331" y="632"/>
			<point x="283" y="662"/>
			<point x="237" y="662" type="curve" smooth="yes"/>
			<point x="135" y="662"/>
			<point x="70" y="553"/>
			<point x="70" y="440" type="curve" smooth="yes"/>
			<point x="70" y="355"/>
			<point x="117" y="306"/>
		</contour>
		<contour>
			<point x="15" y="151" type="line"/>
			<point x="359" y="151" type="line"/>
			<point x="380" y="240" type="line"/>
			<point x="36" y="240" type="line"/>
		</contour>
		<contour>
			<point x="236" y="397" type="curve" smooth="yes"/>
			<point x="206" y="397"/>
			<point x="193" y="421"/>
			<point x="193" y="454" type="curve" smooth="yes"/>
			<point x="193" y="500"/>
			<point x="214" y="571"/>
			<point x="263" y="571" type="curve" smooth="yes"/>
			<point x="289" y="571"/>
			<point x="304" y="548"/>
			<point x="304" y="516" type="curve" smooth="yes"/>
			<point x="304" y="466"/>
			<point x="280" y="397"/>
		</contour>
	</outline>
</glyph>
<glyph name="logicalnot" format="2">
  <advance width="604"/>
  <unicode hex="00AC"/>
  <outline>
    <contour>
      <point x="559" y="314" type="line"/>
      <point x="422" y="314" type="line"/>
      <point x="373" y="97" type="line"/>
      <point x="510" y="97" type="line"/>
    </contour>
    <contour>
      <point x="576" y="386" type="line"/>
      <point x="91" y="386" type="line"/>
      <point x="63" y="264" type="line"/>
      <point x="548" y="264" type="line"/>
    </contour>
  </outline>
</glyph>
<glyph name="registered" format="2">
	<unicode hex="00AE"/>
	<advance width="780"/>
	<outline>
		<contour>
			<point x="409" y="670" type="curve" smooth="yes"/>
			<point x="200" y="670"/>
			<point x="64" y="535"/>
			<point x="64" y="330" type="curve" smooth="yes"/>
			<point x="64" y="125"/>
			<point x="200" y="-10"/>
			<point x="409" y="-10" type="curve" smooth="yes"/>
			<point x="617" y="-10"/>
			<point x="753" y="125"/>
			<point x="753" y="330" type="curve" smooth="yes"/>
			<point x="753" y="535"/>
			<point x="617" y="670"/>
		</contour>
		<contour>
			<point x="367" y="515" type="line"/>
			<point x="266" y="515" type="line"/>
			<point x="266" y="151" type="line"/>
			<point x="367" y="151" type="line"/>
		</contour>
		<contour>
			<point x="472" y="318" type="line"/>
			<point x="384" y="295" type="line"/>
			<point x="459" y="151" type="line"/>
			<point x="581" y="151" type="line"/>
		</contour>
		<contour>
			<point x="409" y="586" type="curve" smooth="yes"/>
			<point x="563" y="586"/>
			<point x="664" y="485"/>
			<point x="664" y="330" type="curve" smooth="yes"/>
			<point x="664" y="175"/>
			<point x="563" y="74"/>
			<point x="409" y="74" type="curve" smooth="yes"/>
			<point x="254" y="74"/>
			<point x="153" y="175"/>
			<point x="153" y="330" type="curve" smooth="yes"/>
			<point x="153" y="485"/>
			<point x="254" y="586"/>
		</contour>
		<contour>
			<point x="441" y="515" type="curve" smooth="yes"/>
			<point x="324" y="515" type="line"/>
			<point x="324" y="431" type="line"/>
			<point x="417" y="431" type="line" smooth="yes"/>
			<point x="449" y="431"/>
			<point x="469" y="419"/>
			<point x="469" y="388" type="curve" smooth="yes"/>
			<point x="469" y="358"/>
			<point x="449" y="345"/>
			<point x="417" y="345" type="curve" smooth="yes"/>
			<point x="324" y="345" type="line"/>
			<point x="324" y="276" type="line"/>
			<point x="429" y="276" type="line" smooth="yes"/>
			<point x="516" y="276"/>
			<point x="572" y="320"/>
			<point x="572" y="396" type="curve" smooth="yes"/>
			<point x="572" y="466"/>
			<point x="516" y="515"/>
		</contour>
	</outline>
</glyph>
<glyph name="degree" format="2">
	<advance width="478"/>
	<unicode hex="00B0"/>
	<outline>
		<contour>
			<point x="293" y="298" type="curve" smooth="yes"/>
			<point x="416" y="298"/>
			<point x="495" y="371"/>
			<point x="495" y="484" type="curve" smooth="yes"/>
			<point x="495" y="597"/>
			<point x="416" y="670"/>
			<point x="293" y="670" type="curve" smooth="yes"/>
			<point x="169" y="670"/>
			<point x="91" y="597"/>
			<point x="91" y="484" type="curve" smooth="yes"/>
			<point x="91" y="371"/>
			<point x="169" y="298"/>
		</contour>
		<contour>
			<point x="293" y="407" type="curve" smooth="yes"/>
			<point x="246" y="407"/>
			<point x="214" y="439"/>
			<point x="214" y="485" type="curve" smooth="yes"/>
			<point x="214" y="530"/>
			<point x="246" y="562"/>
			<point x="293" y="562" type="curve" smooth="yes"/>
			<point x="339" y="562"/>
			<point x="371" y="530"/>
			<point x="371" y="485" type="curve" smooth="yes"/>
			<point x="371" y="439"/>
			<point x="339" y="407"/>
		</contour>
	</outline>
</glyph>
<glyph name="plusminus" format="2">
	<unicode hex="00B1"/>
	<advance width="596"/>
	<outline>
		<contour>
			<point x="453" y="652" type="line"/>
			<point x="330" y="652" type="line"/>
			<point x="222" y="185" type="line"/>
			<point x="345" y="185" type="line"/>
		</contour>
		<contour>
			<point x="598" y="477" type="line"/>
			<point x="103" y="477" type="line"/>
			<point x="76" y="360" type="line"/>
			<point x="570" y="360" type="line"/>
		</contour>
		<contour>
			<point x="514" y="115" type="line"/>
			<point x="20" y="115" type="line"/>
			<point x="-7" y="1" type="line"/>
			<point x="488" y="1" type="line"/>
		</contour>
	</outline>
</glyph>
<glyph name="twosuperior" format="2">
	<advance width="378"/>
	<unicode hex="00B2"/>
	<anchor x="247" y="514" name="_indexring"/>
	<outline>
		<contour>
			<point x="56" y="334" type="line"/>
			<point x="376" y="334" type="line"/>
			<point x="399" y="430" type="line"/>
			<point x="303" y="430" type="line" smooth="yes"/>
			<point x="278" y="430"/>
			<point x="251" y="429"/>
			<point x="230" y="428" type="curve"/>
			<point x="230" y="429" type="line"/>
			<point x="315" y="468"/>
			<point x="425" y="514"/>
			<point x="425" y="625" type="curve" smooth="yes"/>
			<point x="425" y="688"/>
			<point x="372" y="736"/>
			<point x="276" y="736" type="curve" smooth="yes"/>
			<point x="170" y="736"/>
			<point x="113" y="685"/>
			<point x="96" y="603" type="curve"/>
			<point x="209" y="572" type="line"/>
			<point x="215" y="615"/>
			<point x="234" y="640"/>
			<point x="266" y="640" type="curve" smooth="yes"/>
			<point x="287" y="640"/>
			<point x="302" y="630"/>
			<point x="302" y="601" type="curve" smooth="yes"/>
			<point x="302" y="535"/>
			<point x="184" y="473"/>
			<point x="75" y="416" type="curve"/>
		</contour>
	</outline>
</glyph>
<glyph name="threesuperior" format="2">
	<advance width="367"/>
	<unicode hex="00B3"/>
	<anchor x="243" y="533" name="_indexring"/>
	<outline>
		<contour>
			<point x="227" y="327" type="curve" smooth="yes"/>
			<point x="314" y="327"/>
			<point x="390" y="371"/>
			<point x="390" y="454" type="curve" smooth="yes"/>
			<point x="390" y="499"/>
			<point x="359" y="522"/>
			<point x="321" y="526" type="curve"/>
			<point x="322" y="528" type="line"/>
			<point x="379" y="532"/>
			<point x="413" y="576"/>
			<point x="413" y="631" type="curve" smooth="yes"/>
			<point x="413" y="698"/>
			<point x="350" y="736"/>
			<point x="265" y="736" type="curve" smooth="yes"/>
			<point x="171" y="736"/>
			<point x="115" y="696"/>
			<point x="97" y="636" type="curve"/>
			<point x="202" y="600" type="line"/>
			<point x="210" y="628"/>
			<point x="228" y="641"/>
			<point x="252" y="641" type="curve" smooth="yes"/>
			<point x="276" y="641"/>
			<point x="293" y="629"/>
			<point x="293" y="605" type="curve" smooth="yes"/>
			<point x="293" y="579"/>
			<point x="278" y="562"/>
			<point x="245" y="562" type="curve" smooth="yes"/>
			<point x="236" y="562"/>
			<point x="228" y="563"/>
			<point x="220" y="565" type="curve"/>
			<point x="203" y="496" type="line"/>
			<point x="209" y="497"/>
			<point x="216" y="498"/>
			<point x="224" y="498" type="curve" smooth="yes"/>
			<point x="253" y="498"/>
			<point x="269" y="486"/>
			<point x="269" y="461" type="curve" smooth="yes"/>
			<point x="269" y="434"/>
			<point x="251" y="416"/>
			<point x="223" y="416" type="curve" smooth="yes"/>
			<point x="192" y="416"/>
			<point x="172" y="434"/>
			<point x="170" y="470" type="curve"/>
			<point x="57" y="449" type="line"/>
			<point x="64" y="375"/>
			<point x="125" y="327"/>
		</contour>
	</outline>
</glyph>
<glyph name="micro" format="2">
	<advance width="616"/>
	<unicode hex="00B5"/>
	<outline>
		<contour>
			<point x="-48" y="-210" type="line"/>
			<point x="122" y="-210" type="line"/>
			<point x="190" y="78" type="line"/>
			<point x="83" y="25" type="line"/>
			<point x="115" y="0"/>
			<point x="152" y="-9"/>
			<point x="187" y="-9" type="curve" smooth="yes"/>
			<point x="259" y="-9"/>
			<point x="319" y="29"/>
			<point x="354" y="96" type="curve"/>
			<point x="338" y="0" type="line"/>
			<point x="489" y="0" type="line"/>
			<point x="605" y="500" type="line"/>
			<point x="435" y="500" type="line"/>
			<point x="373" y="230" type="line" smooth="yes"/>
			<point x="357" y="159"/>
			<point x="327" y="121"/>
			<point x="275" y="121" type="curve" smooth="yes"/>
			<point x="227" y="121"/>
			<point x="206" y="153"/>
			<point x="218" y="206" type="curve" smooth="yes"/>
			<point x="285" y="500" type="line"/>
			<point x="115" y="500" type="line"/>
		</contour>
	</outline>
</glyph>
<glyph name="paragraph" format="2">
	<unicode hex="00B6"/>
	<advance width="756"/>
	<outline>
		<contour>
			<point x="218" y="-100" type="line"/>
			<point x="357" y="-100" type="line"/>
			<point x="502" y="530" type="line"/>
			<point x="610" y="530" type="line"/>
			<point x="465" y="-100" type="line"/>
			<point x="603" y="-100" type="line"/>
			<point x="779" y="660" type="line"/>
			<point x="382" y="660" type="line" smooth="yes"/>
			<point x="194" y="660"/>
			<point x="70" y="562"/>
			<point x="70" y="394" type="curve" smooth="yes"/>
			<point x="70" y="242"/>
			<point x="188" y="176"/>
			<point x="281" y="173" type="curve"/>
		</contour>
		<contour>
			<point x="307" y="307" type="line"/>
			<point x="243" y="307"/>
			<point x="205" y="347"/>
			<point x="205" y="402" type="curve" smooth="yes"/>
			<point x="205" y="488"/>
			<point x="258" y="530"/>
			<point x="334" y="530" type="curve" smooth="yes"/>
			<point x="359" y="530" type="line"/>
		</contour>
	</outline>
</glyph>
<glyph name="periodcentered" format="2">
	<unicode hex="00B7"/>
	<advance width="286"/>
	<outline>
		<contour>
			<point x="162" y="264" type="curve" smooth="yes"/>
			<point x="226" y="264"/>
			<point x="266" y="304"/>
			<point x="266" y="367" type="curve" smooth="yes"/>
			<point x="266" y="416"/>
			<point x="229" y="444"/>
			<point x="173" y="444" type="curve" smooth="yes"/>
			<point x="108" y="444"/>
			<point x="69" y="403"/>
			<point x="69" y="340" type="curve" smooth="yes"/>
			<point x="69" y="291"/>
			<point x="106" y="264"/>
		</contour>
	</outline>
	<anchor name="_center" x="69" y="340"/>
</glyph>
<glyph name="onesuperior" format="2">
	<advance width="278"/>
	<unicode hex="00B9"/>
	<anchor x="217" y="535" name="_indexring"/>
	<outline>
		<contour>
			<point x="130" y="334" type="line"/>
			<point x="252" y="334" type="line"/>
			<point x="344" y="730" type="line"/>
			<point x="248" y="730" type="line"/>
			<point x="216" y="704"/>
			<point x="156" y="675"/>
			<point x="106" y="666" type="curve"/>
			<point x="86" y="568" type="line"/>
			<point x="116" y="571"/>
			<point x="165" y="588"/>
			<point x="196" y="607" type="curve"/>
			<point x="195" y="605"/>
			<point x="182" y="561"/>
			<point x="178" y="544" type="curve" smooth="yes"/>
		</contour>
	</outline>
</glyph>
<glyph name="ordmasculine" format="2">
	<unicode hex="00BA"/>
	<advance width="413"/>
	<outline>
		<contour>
			<point x="245" y="306" type="curve" smooth="yes"/>
			<point x="371" y="306"/>
			<point x="440" y="404"/>
			<point x="440" y="512" type="curve" smooth="yes"/>
			<point x="440" y="601"/>
			<point x="381" y="662"/>
			<point x="278" y="662" type="curve" smooth="yes"/>
			<point x="151" y="662"/>
			<point x="82" y="567"/>
			<point x="82" y="457" type="curve" smooth="yes"/>
			<point x="82" y="368"/>
			<point x="141" y="306"/>
		</contour>
		<contour>
			<point x="13" y="151" type="line"/>
			<point x="354" y="151" type="line"/>
			<point x="375" y="240" type="line"/>
			<point x="34" y="240" type="line"/>
		</contour>
		<contour>
			<point x="248" y="393" type="curve" smooth="yes"/>
			<point x="220" y="393"/>
			<point x="204" y="413"/>
			<point x="204" y="447" type="curve" smooth="yes"/>
			<point x="204" y="499"/>
			<point x="229" y="575"/>
			<point x="274" y="575" type="curve" smooth="yes"/>
			<point x="302" y="575"/>
			<point x="318" y="554"/>
			<point x="318" y="521" type="curve" smooth="yes"/>
			<point x="318" y="469"/>
			<point x="293" y="393"/>
		</contour>
	</outline>
</glyph>
<glyph name="AE" format="2">
	<unicode hex="00C6"/>
	<advance width="915"/>
	<outline>
		<contour>
			<point x="-55" y="0" type="line"/>
			<point x="129" y="0" type="line"/>
			<point x="245" y="196" type="line"/>
			<point x="407" y="196" type="line"/>
			<point x="362" y="0" type="line"/>
			<point x="826" y="0" type="line"/>
			<point x="857" y="127" type="line"/>
			<point x="552" y="127" type="line"/>
			<point x="585" y="271" type="line"/>
			<point x="807" y="271" type="line"/>
			<point x="836" y="391" type="line"/>
			<point x="613" y="391" type="line"/>
			<point x="645" y="533" type="line"/>
			<point x="936" y="533" type="line"/>
			<point x="967" y="660" type="line"/>
			<point x="365" y="660" type="line"/>
		</contour>
		<contour>
			<point x="307" y="308" type="line"/>
			<point x="449" y="538" type="line"/>
			<point x="486" y="538" type="line"/>
			<point x="434" y="308" type="line"/>
		</contour>
	</outline>
	<anchor name="bottom" x="442" y="0"/>
	<anchor name="ogonek" x="826" y="0"/>
	<anchor name="top" x="595" y="660"/>
</glyph>
<glyph name="Idieresis" format="2">
	<advance width="306"/>
	<unicode hex="00CF"/>
	<anchor x="185" y="0" name="ogonek"/>
	<anchor x="99" y="0" name="bottom"/>
	<anchor x="289" y="850" name="top"/>
	<outline>
		<contour>
			<point x="368" y="715" type="curve" smooth="yes"/>
			<point x="429" y="715"/>
			<point x="462" y="747"/>
			<point x="462" y="807" type="curve" smooth="yes"/>
			<point x="462" y="848"/>
			<point x="432" y="869"/>
			<point x="386" y="869" type="curve" smooth="yes"/>
			<point x="325" y="869"/>
			<point x="291" y="836"/>
			<point x="291" y="777" type="curve" smooth="yes"/>
			<point x="291" y="735"/>
			<point x="322" y="715"/>
		</contour>
		<contour>
			<point x="161" y="715" type="curve" smooth="yes"/>
			<point x="221" y="715"/>
			<point x="254" y="747"/>
			<point x="254" y="807" type="curve" smooth="yes"/>
			<point x="254" y="848"/>
			<point x="225" y="869"/>
			<point x="179" y="869" type="curve" smooth="yes"/>
			<point x="118" y="869"/>
			<point x="84" y="836"/>
			<point x="84" y="777" type="curve" smooth="yes"/>
			<point x="84" y="735"/>
			<point x="115" y="715"/>
		</contour>
		<component base="I" xOffset="-1"/>
	</outline>
</glyph>
<glyph name="Eth" format="2">
	<unicode hex="00D0"/>
	<advance width="732"/>
	<outline>
		<contour>
			<point x="14" y="270" type="line"/>
			<point x="400" y="270" type="line"/>
			<point x="427" y="390" type="line"/>
			<point x="41" y="390" type="line"/>
		</contour>
		<component base="D" xOffset="24"/>
	</outline>
	<anchor name="bottom" x="300" y="0"/>
	<anchor name="center" x="141" y="140"/>
	<anchor name="ogonek" x="318" y="0"/>
	<anchor name="top" x="442" y="660"/>
</glyph>
<glyph name="multiply" format="2">
  <advance width="604"/>
  <unicode hex="00D7"/>
  <outline>
    <contour>
      <point x="111" y="78" type="line"/>
      <point x="595" y="471" type="line"/>
      <point x="516" y="574" type="line"/>
      <point x="32" y="182" type="line"/>
    </contour>
    <contour>
      <point x="420" y="78" type="line"/>
      <point x="522" y="159" type="line"/>
      <point x="205" y="574" type="line"/>
      <point x="104" y="493" type="line"/>
    </contour>
  </outline>
</glyph>
<glyph name="Oslash" format="2">
	<advance width="722"/>
	<unicode hex="00D8"/>
	<anchor x="379" y="330" name="center"/>
	<anchor x="446" y="1" name="ogonek"/>
	<anchor x="433" y="660" name="top"/>
	<anchor x="664" y="660" name="topright"/>
	<anchor x="116" y="660" name="topleft"/>
	<anchor x="328" y="0" name="bottom"/>
	<outline>
		<contour>
			<point x="242" y="126" type="line"/>
			<point x="554" y="490" type="line"/>
			<point x="519" y="544" type="line"/>
			<point x="202" y="177" type="line"/>
		</contour>
		<contour>
			<point x="26" y="-17" type="line"/>
			<point x="106" y="-17" type="line"/>
			<point x="202" y="88" type="line"/>
			<point x="160" y="135" type="line"/>
		</contour>
		<contour>
			<point x="574" y="507" type="line"/>
			<point x="725" y="678" type="line"/>
			<point x="644" y="678" type="line"/>
			<point x="554" y="576" type="line"/>
		</contour>
		<component base="O"/>
	</outline>
</glyph>
<glyph name="Thorn" format="2">
	<unicode hex="00DE"/>
	<advance width="660"/>
	<outline>
		<contour>
			<point x="142" y="114" type="line"/>
			<point x="366" y="114" type="line" smooth="yes"/>
			<point x="535" y="114"/>
			<point x="643" y="216"/>
			<point x="643" y="361" type="curve" smooth="yes"/>
			<point x="643" y="483"/>
			<point x="552" y="558"/>
			<point x="397" y="558" type="curve" smooth="yes"/>
			<point x="241" y="558" type="line"/>
			<point x="210" y="429" type="line"/>
			<point x="377" y="429" type="line" smooth="yes"/>
			<point x="442" y="429"/>
			<point x="473" y="398"/>
			<point x="473" y="351" type="curve" smooth="yes"/>
			<point x="473" y="293"/>
			<point x="433" y="243"/>
			<point x="358" y="243" type="curve" smooth="yes"/>
			<point x="171" y="243" type="line"/>
		</contour>
		<contour>
			<point x="14" y="0" type="line"/>
			<point x="186" y="0" type="line"/>
			<point x="339" y="660" type="line"/>
			<point x="167" y="660" type="line"/>
		</contour>
	</outline>
	<anchor name="bottom" x="100" y="0"/>
	<anchor name="ogonek" x="186" y="0"/>
	<anchor name="top" x="253" y="660"/>
</glyph>
<glyph name="germandbls" format="2">
  <advance width="630"/>
  <unicode hex="00DF"/>
  <anchor x="285" y="0" name="bottom"/>
  <anchor x="453" y="9" name="ogonek"/>
  <anchor x="424" y="714" name="top"/>
  <outline>
    <contour>
      <point x="360" y="-10" type="curve" smooth="yes"/>
      <point x="495" y="-10"/>
      <point x="588" y="79"/>
      <point x="588" y="210" type="curve" smooth="yes"/>
      <point x="588" y="299"/>
      <point x="528" y="349"/>
      <point x="455" y="355" type="curve"/>
      <point x="455" y="357" type="line"/>
      <point x="558" y="362"/>
      <point x="635" y="430"/>
      <point x="635" y="546" type="curve" smooth="yes"/>
      <point x="635" y="645"/>
      <point x="553" y="717"/>
      <point x="407" y="717" type="curve" smooth="yes"/>
      <point x="244" y="717"/>
      <point x="149" y="644"/>
      <point x="114" y="494" type="curve" smooth="yes"/>
      <point x="0" y="0" type="line"/>
      <point x="170" y="0" type="line"/>
      <point x="279" y="472" type="line" smooth="yes"/>
      <point x="299" y="559"/>
      <point x="332" y="594"/>
      <point x="393" y="594" type="curve" smooth="yes"/>
      <point x="437" y="594"/>
      <point x="472" y="570"/>
      <point x="472" y="519" type="curve" smooth="yes"/>
      <point x="472" y="461"/>
      <point x="435" y="416"/>
      <point x="370" y="416" type="curve" smooth="yes"/>
      <point x="359" y="416"/>
      <point x="348" y="417"/>
      <point x="335" y="418" type="curve"/>
      <point x="299" y="297" type="line"/>
      <point x="311" y="298"/>
      <point x="319" y="299"/>
      <point x="330" y="299" type="curve" smooth="yes"/>
      <point x="395" y="299"/>
      <point x="431" y="268"/>
      <point x="431" y="215" type="curve" smooth="yes"/>
      <point x="431" y="160"/>
      <point x="397" y="114"/>
      <point x="338" y="114" type="curve" smooth="yes"/>
      <point x="308" y="114"/>
      <point x="285" y="123"/>
      <point x="266" y="135" type="curve"/>
      <point x="222" y="21" type="line"/>
      <point x="248" y="2"/>
      <point x="298" y="-10"/>
    </contour>
  </outline>
</glyph>
<glyph name="ae" format="2">
  <advance width="874"/>
  <unicode hex="00E6"/>
  <anchor x="359" y="0" name="bottom"/>
  <anchor x="670" y="3" name="ogonek"/>
  <anchor x="464" y="500" name="top"/>
  <outline>
    <contour>
      <point x="183" y="-10" type="curve" smooth="yes"/>
      <point x="317" y="-10"/>
      <point x="393" y="67"/>
      <point x="409" y="150" type="curve"/>
      <point x="373" y="153" type="line"/>
      <point x="386" y="59"/>
      <point x="471" y="-9"/>
      <point x="585" y="-9" type="curve" smooth="yes"/>
      <point x="689" y="-9"/>
      <point x="778" y="36"/>
      <point x="813" y="112" type="curve"/>
      <point x="673" y="166" type="line"/>
      <point x="658" y="133"/>
      <point x="630" y="109"/>
      <point x="585" y="109" type="curve" smooth="yes"/>
      <point x="532" y="109"/>
      <point x="493" y="143"/>
      <point x="493" y="206" type="curve" smooth="yes"/>
      <point x="493" y="286"/>
      <point x="522" y="391"/>
      <point x="614" y="391" type="curve" smooth="yes"/>
      <point x="649" y="391"/>
      <point x="679" y="366"/>
      <point x="679" y="318" type="curve" smooth="yes"/>
      <point x="679" y="310"/>
      <point x="678" y="305"/>
      <point x="678" y="299" type="curve"/>
      <point x="489" y="299" type="line"/>
      <point x="479" y="206" type="line"/>
      <point x="828" y="206" type="line"/>
      <point x="837" y="236"/>
      <point x="841" y="268"/>
      <point x="841" y="300" type="curve" smooth="yes"/>
      <point x="841" y="422"/>
      <point x="759" y="510"/>
      <point x="631" y="510" type="curve" smooth="yes"/>
      <point x="531" y="510"/>
      <point x="468" y="467"/>
      <point x="423" y="404" type="curve"/>
      <point x="454" y="393" type="line"/>
      <point x="448" y="462"/>
      <point x="384" y="510"/>
      <point x="285" y="510" type="curve" smooth="yes"/>
      <point x="152" y="510"/>
      <point x="77" y="448"/>
      <point x="52" y="353" type="curve"/>
      <point x="190" y="319" type="line"/>
      <point x="207" y="368"/>
      <point x="233" y="394"/>
      <point x="280" y="394" type="curve" smooth="yes"/>
      <point x="324" y="394"/>
      <point x="349" y="369"/>
      <point x="349" y="328" type="curve" smooth="yes"/>
      <point x="349" y="319"/>
      <point x="347" y="308"/>
      <point x="345" y="299" type="curve" smooth="yes"/>
      <point x="316" y="171" type="line" smooth="yes"/>
      <point x="305" y="123"/>
      <point x="276" y="99"/>
      <point x="229" y="99" type="curve" smooth="yes"/>
      <point x="192" y="99"/>
      <point x="172" y="115"/>
      <point x="172" y="146" type="curve" smooth="yes"/>
      <point x="172" y="185"/>
      <point x="202" y="193"/>
      <point x="251" y="200" type="curve" smooth="yes"/>
      <point x="350" y="214" type="line"/>
      <point x="363" y="302" type="line"/>
      <point x="186" y="280" type="line" smooth="yes"/>
      <point x="99" y="269"/>
      <point x="18" y="225"/>
      <point x="18" y="128" type="curve" smooth="yes"/>
      <point x="18" y="45"/>
      <point x="79" y="-10"/>
    </contour>
  </outline>
</glyph>
<glyph name="idieresis" format="2">
	<advance width="278"/>
	<unicode hex="00EF"/>
	<anchor x="169" y="0" name="ogonek"/>
	<anchor x="84" y="0" name="bottom"/>
	<anchor x="238" y="690" name="top"/>
	<outline>
		<contour>
			<point x="318" y="555" type="curve" smooth="yes"/>
			<point x="378" y="555"/>
			<point x="411" y="587"/>
			<point x="411" y="647" type="curve" smooth="yes"/>
			<point x="411" y="688"/>
			<point x="381" y="709"/>
			<point x="335" y="709" type="curve" smooth="yes"/>
			<point x="275" y="709"/>
			<point x="241" y="676"/>
			<point x="241" y="617" type="curve" smooth="yes"/>
			<point x="241" y="575"/>
			<point x="272" y="555"/>
		</contour>
		<contour>
			<point x="110" y="555" type="curve" smooth="yes"/>
			<point x="171" y="555"/>
			<point x="204" y="587"/>
			<point x="204" y="647" type="curve" smooth="yes"/>
			<point x="204" y="688"/>
			<point x="174" y="709"/>
			<point x="129" y="709" type="curve" smooth="yes"/>
			<point x="67" y="709"/>
			<point x="34" y="676"/>
			<point x="34" y="617" type="curve" smooth="yes"/>
			<point x="34" y="575"/>
			<point x="64" y="555"/>
		</contour>
		<component base="idotless" xOffset="-2"/>
	</outline>
</glyph>
<glyph name="eth" format="2">
  <advance width="591"/>
  <unicode hex="00F0"/>
  <anchor x="235" y="0" name="bottom"/>
  <anchor x="362" y="10" name="ogonek"/>
  <anchor x="400" y="712" name="top"/>
  <outline>
    <contour>
      <point x="267" y="-10" type="curve" smooth="yes"/>
      <point x="459" y="-10"/>
      <point x="565" y="170"/>
      <point x="565" y="394" type="curve" smooth="yes"/>
      <point x="565" y="540"/>
      <point x="495" y="664"/>
      <point x="406" y="722" type="curve"/>
      <point x="259" y="722" type="line"/>
      <point x="372" y="635"/>
      <point x="437" y="536"/>
      <point x="437" y="404" type="curve" smooth="yes"/>
      <point x="437" y="386"/>
      <point x="435" y="368"/>
      <point x="433" y="347" type="curve"/>
      <point x="443" y="361" type="line"/>
      <point x="444" y="447"/>
      <point x="388" y="498"/>
      <point x="290" y="498" type="curve" smooth="yes"/>
      <point x="141" y="498"/>
      <point x="36" y="377"/>
      <point x="36" y="219" type="curve" smooth="yes"/>
      <point x="36" y="85"/>
      <point x="128" y="-10"/>
    </contour>
    <contour>
      <point x="280" y="110" type="curve" smooth="yes"/>
      <point x="231" y="110"/>
      <point x="201" y="145"/>
      <point x="201" y="199" type="curve" smooth="yes"/>
      <point x="201" y="274"/>
      <point x="245" y="383"/>
      <point x="314" y="383" type="curve" smooth="yes"/>
      <point x="362" y="383"/>
      <point x="393" y="354"/>
      <point x="393" y="296" type="curve" smooth="yes"/>
      <point x="393" y="213"/>
      <point x="350" y="110"/>
    </contour>
    <contour>
      <point x="249" y="542" type="line"/>
      <point x="429" y="577" type="line"/>
      <point x="400" y="629" type="line"/>
      <point x="239" y="601" type="line"/>
    </contour>
    <contour>
      <point x="474" y="584" type="line"/>
      <point x="625" y="610" type="line"/>
      <point x="614" y="668" type="line"/>
      <point x="453" y="636" type="line"/>
    </contour>
  </outline>
</glyph>
<glyph name="divide" format="2">
	<unicode hex="00F7"/>
	<advance width="623"/>
	<outline>
		<contour>
			<point x="595" y="386" type="line"/>
			<point x="91" y="386" type="line"/>
			<point x="63" y="264" type="line"/>
			<point x="567" y="264" type="line"/>
		</contour>
		<contour>
			<point x="275.754" y="28.658" type="curve" smooth="yes"/>
			<point x="331.191" y="28.658"/>
			<point x="365.839" y="65.37"/>
			<point x="365.839" y="123.191" type="curve" smooth="yes"/>
			<point x="365.839" y="168.163"/>
			<point x="333.789" y="193.862"/>
			<point x="285.282" y="193.862" type="curve" smooth="yes"/>
			<point x="228.979" y="193.862"/>
			<point x="195.197" y="156.232"/>
			<point x="195.197" y="98.41" type="curve" smooth="yes"/>
			<point x="195.197" y="53.438"/>
			<point x="227.247" y="28.658"/>
		</contour>
		<contour>
			<point x="375.754" y="458.658" type="curve" smooth="yes"/>
			<point x="431.191" y="458.658"/>
			<point x="465.839" y="495.37"/>
			<point x="465.839" y="553.191" type="curve" smooth="yes"/>
			<point x="465.839" y="598.163"/>
			<point x="433.789" y="623.862"/>
			<point x="385.282" y="623.862" type="curve" smooth="yes"/>
			<point x="328.979" y="623.862"/>
			<point x="295.197" y="586.232"/>
			<point x="295.197" y="528.41" type="curve" smooth="yes"/>
			<point x="295.197" y="483.438"/>
			<point x="327.247" y="458.658"/>
		</contour>
	</outline>
	<anchor name="_center" x="195.197" y="98.41"/>
</glyph>
<glyph name="thorn" format="2">
  <advance width="609"/>
  <unicode hex="00FE"/>
  <anchor x="37" y="-210" name="bottom"/>
  <anchor x="408" y="13" name="ogonek"/>
  <anchor x="250" y="712" name="top"/>
  <outline>
    <contour>
      <point x="-49" y="-210" type="line"/>
      <point x="121" y="-210" type="line"/>
      <point x="210" y="175" type="line"/>
      <point x="189" y="142" type="line"/>
      <point x="191" y="34"/>
      <point x="266" y="-10"/>
      <point x="345" y="-10" type="curve" smooth="yes"/>
      <point x="484" y="-10"/>
      <point x="578" y="150"/>
      <point x="578" y="313" type="curve" smooth="yes"/>
      <point x="578" y="439"/>
      <point x="512" y="509"/>
      <point x="421" y="509" type="curve" smooth="yes"/>
      <point x="329" y="509"/>
      <point x="257" y="443"/>
      <point x="236" y="336" type="curve"/>
      <point x="249" y="344" type="line"/>
      <point x="334" y="712" type="line"/>
      <point x="164" y="712" type="line"/>
    </contour>
    <contour>
      <point x="297" y="115" type="curve" smooth="yes"/>
      <point x="248" y="115"/>
      <point x="223" y="151"/>
      <point x="223" y="204" type="curve" smooth="yes"/>
      <point x="223" y="291"/>
      <point x="268" y="384"/>
      <point x="335" y="384" type="curve" smooth="yes"/>
      <point x="383" y="384"/>
      <point x="410" y="350"/>
      <point x="410" y="292" type="curve" smooth="yes"/>
      <point x="410" y="213"/>
      <point x="366" y="115"/>
    </contour>
  </outline>
</glyph>
<glyph name="OE" format="2">
	<advance width="1032"/>
	<unicode hex="0152"/>
	<anchor x="944" y="0" name="ogonek"/>
	<anchor x="503" y="0" name="bottom"/>
	<anchor x="667" y="660" name="top"/>
	<outline>
		<contour>
			<point x="329" y="-10" type="curve" smooth="yes"/>
			<point x="406" y="-10"/>
			<point x="467" y="20"/>
			<point x="517" y="77" type="curve"/>
			<point x="499" y="0" type="line"/>
			<point x="944" y="0" type="line"/>
			<point x="975" y="133" type="line"/>
			<point x="650" y="133" type="line"/>
			<point x="682" y="268" type="line"/>
			<point x="925" y="268" type="line"/>
			<point x="953" y="393" type="line"/>
			<point x="710" y="393" type="line"/>
			<point x="741" y="527" type="line"/>
			<point x="1056" y="527" type="line"/>
			<point x="1088" y="660" type="line"/>
			<point x="640" y="660" type="line"/>
			<point x="615" y="553" type="line"/>
			<point x="584" y="626"/>
			<point x="510" y="670"/>
			<point x="403" y="670" type="curve" smooth="yes"/>
			<point x="184" y="670"/>
			<point x="59" y="493"/>
			<point x="60" y="275" type="curve" smooth="yes"/>
			<point x="61" y="93"/>
			<point x="186" y="-10"/>
		</contour>
		<contour>
			<point x="355" y="125" type="curve" smooth="yes"/>
			<point x="279" y="125"/>
			<point x="233" y="177"/>
			<point x="233" y="268" type="curve" smooth="yes"/>
			<point x="233" y="391"/>
			<point x="292" y="535"/>
			<point x="407" y="535" type="curve" smooth="yes"/>
			<point x="484" y="535"/>
			<point x="529" y="483"/>
			<point x="529" y="392" type="curve" smooth="yes"/>
			<point x="529" y="268"/>
			<point x="468" y="125"/>
		</contour>
	</outline>
</glyph>
<glyph name="oe" format="2">
  <advance width="938"/>
  <unicode hex="0153"/>
  <anchor x="411" y="0" name="bottom"/>
  <anchor x="527" y="500" name="top"/>
  <outline>
    <contour>
      <point x="276" y="-10" type="curve" smooth="yes"/>
      <point x="356" y="-10"/>
      <point x="420" y="19"/>
      <point x="465" y="73" type="curve"/>
      <point x="505" y="19"/>
      <point x="567" y="-9"/>
      <point x="641" y="-9" type="curve" smooth="yes"/>
      <point x="755" y="-9"/>
      <point x="843" y="39"/>
      <point x="877" y="112" type="curve"/>
      <point x="737" y="166" type="line"/>
      <point x="722" y="134"/>
      <point x="695" y="109"/>
      <point x="646" y="109" type="curve" smooth="yes"/>
      <point x="591" y="109"/>
      <point x="553" y="143"/>
      <point x="553" y="206" type="curve" smooth="yes"/>
      <point x="553" y="206"/>
      <point x="553" y="207"/>
      <point x="553" y="216" type="curve"/>
      <point x="892" y="216" type="line"/>
      <point x="900" y="244"/>
      <point x="903" y="272"/>
      <point x="903" y="300" type="curve" smooth="yes"/>
      <point x="903" y="422"/>
      <point x="820" y="510"/>
      <point x="680" y="510" type="curve" smooth="yes"/>
      <point x="603" y="510"/>
      <point x="538" y="481"/>
      <point x="491" y="429" type="curve"/>
      <point x="454" y="481"/>
      <point x="394" y="510"/>
      <point x="319" y="510" type="curve" smooth="yes"/>
      <point x="137" y="510"/>
      <point x="34" y="378"/>
      <point x="34" y="216" type="curve" smooth="yes"/>
      <point x="34" y="86"/>
      <point x="126" y="-10"/>
    </contour>
    <contour>
      <point x="279" y="110" type="curve" smooth="yes"/>
      <point x="229" y="110"/>
      <point x="200" y="146"/>
      <point x="200" y="203" type="curve" smooth="yes"/>
      <point x="200" y="289"/>
      <point x="246" y="390"/>
      <point x="315" y="390" type="curve" smooth="yes"/>
      <point x="366" y="390"/>
      <point x="394" y="354"/>
      <point x="394" y="297" type="curve" smooth="yes"/>
      <point x="394" y="211"/>
      <point x="348" y="110"/>
    </contour>
    <contour>
      <point x="564" y="295" type="line"/>
      <point x="580" y="348"/>
      <point x="612" y="391"/>
      <point x="671" y="391" type="curve" smooth="yes"/>
      <point x="713" y="391"/>
      <point x="741" y="365"/>
      <point x="741" y="314" type="curve" smooth="yes"/>
      <point x="741" y="307"/>
      <point x="741" y="302"/>
      <point x="740" y="295" type="curve"/>
    </contour>
  </outline>
</glyph>
<glyph name="jdotless" format="2">
	<advance width="283"/>
	<unicode hex="0237"/>
	<anchor x="10" y="-204" name="ogonek"/>
	<anchor x="-40" y="-210" name="bottom"/>
	<anchor x="197" y="500" name="top"/>
	<outline>
		<contour>
			<point x="-34" y="-215" type="curve" smooth="yes"/>
			<point x="70" y="-215"/>
			<point x="129" y="-160"/>
			<point x="157" y="-39" type="curve" smooth="yes"/>
			<point x="282" y="500" type="line"/>
			<point x="112" y="500" type="line"/>
			<point x="-9" y="-17" type="line" smooth="yes"/>
			<point x="-22" y="-73"/>
			<point x="-36" y="-90"/>
			<point x="-75" y="-90" type="curve" smooth="yes"/>
			<point x="-96" y="-90"/>
			<point x="-115" y="-80"/>
			<point x="-127" y="-71" type="curve"/>
			<point x="-166" y="-181" type="line"/>
			<point x="-134" y="-205"/>
			<point x="-81" y="-215"/>
		</contour>
	</outline>
</glyph>
<glyph name="gravecomb" format="2">
	<unicode hex="0300"/>
	<outline>
		<contour>
			<point x="103" y="738" type="line"/>
			<point x="-53" y="738" type="line"/>
			<point x="16" y="565" type="line"/>
			<point x="133" y="565" type="line"/>
		</contour>
	</outline>
	<anchor name="_top" x="58" y="500"/>
	<anchor name="top" x="113" y="737"/>
</glyph>
<glyph name="acutecomb" format="2">
	<unicode hex="0301"/>
	<outline>
		<contour>
			<point x="100" y="738" type="line"/>
			<point x="-10" y="565" type="line"/>
			<point x="116" y="565" type="line"/>
			<point x="264" y="738" type="line"/>
		</contour>
	</outline>
	<anchor name="_top" x="58" y="500"/>
	<anchor name="top" x="121" y="723"/>
</glyph>
<glyph name="circumflexcomb" format="2">
	<unicode hex="0302"/>
	<outline>
		<contour>
			<point x="-125" y="559" type="line"/>
			<point x="3" y="559" type="line"/>
			<point x="86" y="647" type="line"/>
			<point x="131" y="559" type="line"/>
			<point x="248" y="559" type="line"/>
			<point x="184" y="732" type="line"/>
			<point x="20" y="732" type="line"/>
		</contour>
	</outline>
	<anchor name="_top" x="53" y="500"/>
	<anchor name="top" x="96" y="690"/>
</glyph>
<glyph name="tildecomb" format="2">
	<unicode hex="0303"/>
	<outline>
		<contour>
			<point x="280" y="718" type="curve"/>
			<point x="186" y="718" type="line"/>
			<point x="177" y="681"/>
			<point x="163" y="660"/>
			<point x="143" y="660" type="curve" smooth="yes"/>
			<point x="105" y="660"/>
			<point x="77" y="719"/>
			<point x="17" y="719" type="curve" smooth="yes"/>
			<point x="-50" y="719"/>
			<point x="-105" y="667"/>
			<point x="-121" y="560" type="curve"/>
			<point x="-28" y="560" type="line"/>
			<point x="-19" y="596"/>
			<point x="-6" y="618"/>
			<point x="15" y="618" type="curve" smooth="yes"/>
			<point x="52" y="618"/>
			<point x="71" y="559"/>
			<point x="140" y="559" type="curve" smooth="yes"/>
			<point x="205" y="559"/>
			<point x="264" y="611"/>
		</contour>
	</outline>
	<anchor name="_top" x="54" y="500"/>
	<anchor name="top" x="96" y="706"/>
</glyph>
<glyph name="macroncomb" format="2">
	<unicode hex="0304"/>
	<outline>
		<contour>
			<point x="277" y="674" type="line"/>
			<point x="-81" y="674" type="line"/>
			<point x="-106" y="569" type="line"/>
			<point x="253" y="569" type="line"/>
		</contour>
	</outline>
	<anchor name="_top" x="58" y="500"/>
	<anchor name="top" x="98" y="672"/>
</glyph>
<glyph name="brevecomb" format="2">
  <unicode hex="0306"/>
  <anchor x="56" y="500" name="_top"/>
  <anchor x="95" y="676" name="top"/>
  <anchor x="95" y="679" name="top_viet"/>
  <outline>
    <contour>
      <point x="262" y="718" type="curve"/>
      <point x="154" y="718" type="line"/>
      <point x="146" y="673"/>
      <point x="121" y="650"/>
      <point x="87" y="650" type="curve" smooth="yes"/>
      <point x="57" y="650"/>
      <point x="38" y="668"/>
      <point x="38" y="696" type="curve" smooth="yes"/>
      <point x="38" y="702"/>
      <point x="39" y="709"/>
      <point x="41" y="718" type="curve"/>
      <point x="-66" y="718" type="line"/>
      <point x="-69" y="704"/>
      <point x="-71" y="689"/>
      <point x="-71" y="678" type="curve" smooth="yes"/>
      <point x="-71" y="604"/>
      <point x="-18" y="555"/>
      <point x="71" y="555" type="curve" smooth="yes"/>
      <point x="172" y="555"/>
      <point x="245" y="619"/>
    </contour>
  </outline>
</glyph>
<glyph name="dotaccentcomb" format="2">
	<unicode hex="0307"/>
	<outline>
		<contour>
			<point x="76" y="561" type="curve" smooth="yes"/>
			<point x="138" y="561"/>
			<point x="178" y="589"/>
			<point x="178" y="657" type="curve" smooth="yes"/>
			<point x="178" y="700"/>
			<point x="146" y="722"/>
			<point x="92" y="722" type="curve" smooth="yes"/>
			<point x="32" y="722"/>
			<point x="-8" y="693"/>
			<point x="-8" y="626" type="curve" smooth="yes"/>
			<point x="-8" y="582"/>
			<point x="25" y="561"/>
		</contour>
	</outline>
	<anchor name="_top" x="58" y="500"/>
	<anchor name="top" x="97" y="698"/>
</glyph>
<glyph name="dieresiscomb" format="2">
	<unicode hex="0308"/>
	<outline>
		<contour>
			<point x="187" y="555" type="curve" smooth="yes"/>
			<point x="244" y="555"/>
			<point x="281" y="582"/>
			<point x="281" y="646" type="curve" smooth="yes"/>
			<point x="281" y="688"/>
			<point x="250" y="709"/>
			<point x="203" y="709" type="curve" smooth="yes"/>
			<point x="146" y="709"/>
			<point x="108" y="681"/>
			<point x="108" y="618" type="curve" smooth="yes"/>
			<point x="108" y="575"/>
			<point x="140" y="555"/>
		</contour>
		<contour>
			<point x="-36" y="555" type="curve" smooth="yes"/>
			<point x="22" y="555"/>
			<point x="59" y="582"/>
			<point x="59" y="646" type="curve" smooth="yes"/>
			<point x="59" y="688"/>
			<point x="28" y="709"/>
			<point x="-19" y="709" type="curve" smooth="yes"/>
			<point x="-77" y="709"/>
			<point x="-114" y="681"/>
			<point x="-114" y="618" type="curve" smooth="yes"/>
			<point x="-114" y="575"/>
			<point x="-83" y="555"/>
		</contour>
	</outline>
	<anchor name="_top" x="58" y="500"/>
	<anchor name="top" x="99" y="690"/>
</glyph>
<glyph name="ringcomb" format="2">
  <unicode hex="030A"/>
  <anchor x="58" y="500" name="_top"/>
  <anchor x="93" y="778" name="top"/>
  <outline>
    <contour>
      <point x="92" y="803" type="curve" smooth="yes"/>
      <point x="8" y="803"/>
      <point x="-53" y="745"/>
      <point x="-53" y="664" type="curve" smooth="yes"/>
      <point x="-53" y="598"/>
      <point x="1" y="551"/>
      <point x="81" y="551" type="curve" smooth="yes"/>
      <point x="165" y="551"/>
      <point x="225" y="609"/>
      <point x="225" y="689" type="curve" smooth="yes"/>
      <point x="225" y="756"/>
      <point x="173" y="803"/>
    </contour>
    <contour>
      <point x="89" y="729" type="curve" smooth="yes"/>
      <point x="120" y="729"/>
      <point x="139" y="710"/>
      <point x="139" y="683" type="curve" smooth="yes"/>
      <point x="139" y="647"/>
      <point x="114" y="625"/>
      <point x="84" y="625" type="curve" smooth="yes"/>
      <point x="54" y="625"/>
      <point x="34" y="643"/>
      <point x="34" y="671" type="curve" smooth="yes"/>
      <point x="34" y="708"/>
      <point x="59" y="729"/>
    </contour>
  </outline>
</glyph>
<glyph name="cedillacomb" format="2">
  <unicode hex="0327"/>
  <anchor x="-62" y="0" name="_bottom"/>
  <anchor x="-107" y="-215" name="bottom"/>
  <outline>
    <contour>
      <point x="-116" y="6" type="line"/>
      <point x="-68" y="-12"/>
      <point x="-45" y="-36"/>
      <point x="-45" y="-68" type="curve" smooth="yes"/>
      <point x="-45" y="-99"/>
      <point x="-69" y="-125"/>
      <point x="-103" y="-125" type="curve" smooth="yes"/>
      <point x="-123" y="-125"/>
      <point x="-150" y="-117"/>
      <point x="-166" y="-102" type="curve"/>
      <point x="-210" y="-175" type="line"/>
      <point x="-185" y="-200"/>
      <point x="-147" y="-217"/>
      <point x="-96" y="-217" type="curve" smooth="yes"/>
      <point x="-16" y="-217"/>
      <point x="46" y="-167"/>
      <point x="46" y="-85" type="curve" smooth="yes"/>
      <point x="46" y="-26"/>
      <point x="4" y="14"/>
      <point x="-70" y="29" type="curve"/>
    </contour>
  </outline>
</glyph>
<glyph name="slashlongcomb" format="2">
	<unicode hex="0338"/>
	<outline>
		<contour>
			<point x="-8" y="-23" type="line"/>
			<point x="66" y="-23" type="line"/>
			<point x="607" y="523" type="line"/>
			<point x="532" y="523" type="line"/>
		</contour>
	</outline>
	<anchor name="_center" x="300" y="250"/>
</glyph>
<glyph name="ka-khmer" format="2">
	<unicode hex="1780"/>
	<advance width="646"/>
	<outline>
		<contour>
			<point x="67" y="236" type="curve" smooth="yes"/>
			<point x="13" y="0" type="line"/>
			<point x="183" y="0" type="line"/>
			<point x="237" y="236" type="line" smooth="yes"/>
			<point x="247" y="280"/>
			<point x="285" y="306"/>
			<point x="331" y="306" type="curve" smooth="yes"/>
			<point x="377" y="306"/>
			<point x="401" y="280"/>
			<point x="391" y="236" type="curve" smooth="yes"/>
			<point x="337" y="0" type="line"/>
			<point x="507" y="0" type="line"/>
			<point x="561" y="236" type="line" smooth="yes"/>
			<point x="589" y="357"/>
			<point x="498" y="426"/>
			<point x="344" y="426" type="curve" smooth="yes"/>
			<point x="190" y="426"/>
			<point x="95" y="357"/>
		</contour>
		<contour>
			<point x="119" y="478" type="line"/>
			<point x="621" y="478" type="line"/>
			<point x="650" y="606" type="line"/>
			<point x="148" y="606" type="line"/>
		</contour>
	</outline>
	<anchor name="bottom" x="260" y="0"/>
	<anchor name="bottomright" x="507" y="0"/>
	<anchor name="top" x="400" y="606"/>
	<anchor name="topright" x="647" y="606"/>
</glyph>
<glyph name="kha-khmer" format="2">
	<advance width="593"/>
	<unicode hex="1781"/>
	<anchor x="368" y="606" name="top"/>
	<anchor x="610" y="606" name="topright"/>
	<anchor x="454" y="0" name="bottomright"/>
	<anchor x="232" y="0" name="bottom"/>
	<outline>
		<contour>
			<point x="237" y="-10" type="curve" smooth="yes"/>
			<point x="389" y="-10"/>
			<point x="477" y="47"/>
			<point x="500" y="145" type="curve" smooth="yes"/>
			<point x="508" y="179"/>
			<point x="505" y="204"/>
			<point x="500" y="229" type="curve"/>
			<point x="334" y="193" type="line"/>
			<point x="338" y="182"/>
			<point x="339" y="169"/>
			<point x="337" y="158" type="curve" smooth="yes"/>
			<point x="331" y="130"/>
			<point x="299" y="108"/>
			<point x="256" y="108" type="curve" smooth="yes"/>
			<point x="216" y="108"/>
			<point x="193" y="127"/>
			<point x="200" y="157" type="curve" smooth="yes"/>
			<point x="209" y="197" type="line"/>
			<point x="353" y="216"/>
			<point x="535" y="240"/>
			<point x="574" y="409" type="curve" smooth="yes"/>
			<point x="604" y="538"/>
			<point x="511" y="616"/>
			<point x="358" y="616" type="curve" smooth="yes"/>
			<point x="214" y="616"/>
			<point x="121" y="571"/>
			<point x="96" y="464" type="curve" smooth="yes"/>
			<point x="77" y="383"/>
			<point x="124" y="336"/>
			<point x="214" y="336" type="curve" smooth="yes"/>
			<point x="247" y="336"/>
			<point x="276" y="342"/>
			<point x="289" y="346" type="curve"/>
			<point x="308" y="430" type="line"/>
			<point x="302" y="428"/>
			<point x="291" y="425"/>
			<point x="282" y="425" type="curve" smooth="yes"/>
			<point x="264" y="425"/>
			<point x="257" y="439"/>
			<point x="260" y="451" type="curve" smooth="yes"/>
			<point x="266" y="479"/>
			<point x="297" y="498"/>
			<point x="341" y="498" type="curve" smooth="yes"/>
			<point x="394" y="498"/>
			<point x="420" y="468"/>
			<point x="408" y="415" type="curve" smooth="yes"/>
			<point x="384" y="313"/>
			<point x="256" y="297"/>
			<point x="62" y="283" type="curve"/>
			<point x="31" y="153" type="line" smooth="yes"/>
			<point x="6" y="49"/>
			<point x="86" y="-10"/>
		</contour>
	</outline>
</glyph>
<glyph name="ko-khmer" format="2">
	<advance width="646"/>
	<unicode hex="1782"/>
	<anchor x="399" y="606" name="top"/>
	<anchor x="646" y="606" name="topright"/>
	<anchor x="507" y="0" name="bottomright"/>
	<anchor x="260" y="0" name="bottom"/>
	<outline>
		<contour>
			<point x="67" y="236" type="curve" smooth="yes"/>
			<point x="13" y="0" type="line"/>
			<point x="183" y="0" type="line"/>
			<point x="195" y="52" type="line"/>
			<point x="224" y="97"/>
			<point x="259" y="108"/>
			<point x="311" y="108" type="curve" smooth="yes"/>
			<point x="322" y="108" type="line"/>
			<point x="346" y="214" type="line"/>
			<point x="335" y="214" type="line" smooth="yes"/>
			<point x="262" y="214"/>
			<point x="220" y="172"/>
			<point x="197" y="114" type="curve"/>
			<point x="209" y="114" type="line"/>
			<point x="237" y="236" type="line" smooth="yes"/>
			<point x="247" y="280"/>
			<point x="284" y="306"/>
			<point x="330" y="306" type="curve" smooth="yes"/>
			<point x="376" y="306"/>
			<point x="401" y="280"/>
			<point x="391" y="236" type="curve" smooth="yes"/>
			<point x="337" y="0" type="line"/>
			<point x="507" y="0" type="line"/>
			<point x="561" y="236" type="line" smooth="yes"/>
			<point x="589" y="357"/>
			<point x="498" y="426"/>
			<point x="344" y="426" type="curve" smooth="yes"/>
			<point x="190" y="426"/>
			<point x="95" y="357"/>
		</contour>
		<contour>
			<point x="119" y="478" type="line"/>
			<point x="621" y="478" type="line"/>
			<point x="650" y="606" type="line"/>
			<point x="148" y="606" type="line"/>
		</contour>
	</outline>
</glyph>
<glyph name="kho-khmer" format="2">
	<unicode hex="1783"/>
	<advance width="954"/>
	<outline>
		<contour>
			<point x="249" y="-10" type="curve" smooth="yes"/>
			<point x="331" y="-10"/>
			<point x="388" y="17"/>
			<point x="452" y="87" type="curve"/>
			<point x="416" y="87" type="line"/>
			<point x="446" y="18"/>
			<point x="512" y="-10"/>
			<point x="598" y="-10" type="curve" smooth="yes"/>
			<point x="737" y="-10"/>
			<point x="829" y="59"/>
			<point x="857" y="180" type="curve" smooth="yes"/>
			<point x="900" y="369" type="line" smooth="yes"/>
			<point x="911" y="416"/>
			<point x="896" y="432"/>
			<point x="858" y="448" type="curve"/>
			<point x="861" y="462" type="line" smooth="yes"/>
			<point x="864" y="475"/>
			<point x="871" y="478"/>
			<point x="883" y="478" type="curve" smooth="yes"/>
			<point x="931" y="478" type="line"/>
			<point x="960" y="606" type="line"/>
			<point x="855" y="606" type="line" smooth="yes"/>
			<point x="787" y="606"/>
			<point x="746" y="579"/>
			<point x="730" y="508" type="curve" smooth="yes"/>
			<point x="711" y="425" type="line"/>
			<point x="729" y="417"/>
			<point x="738" y="401"/>
			<point x="730" y="368" type="curve" smooth="yes"/>
			<point x="687" y="180" type="line" smooth="yes"/>
			<point x="677" y="136"/>
			<point x="641" y="110"/>
			<point x="598" y="110" type="curve" smooth="yes"/>
			<point x="553" y="110"/>
			<point x="531" y="136"/>
			<point x="541" y="180" type="curve" smooth="yes"/>
			<point x="584" y="369" type="line" smooth="yes"/>
			<point x="595" y="416"/>
			<point x="580" y="432"/>
			<point x="542" y="448" type="curve"/>
			<point x="545" y="462" type="line" smooth="yes"/>
			<point x="548" y="475"/>
			<point x="555" y="478"/>
			<point x="567" y="478" type="curve" smooth="yes"/>
			<point x="615" y="478" type="line"/>
			<point x="644" y="606" type="line"/>
			<point x="539" y="606" type="line" smooth="yes"/>
			<point x="471" y="606"/>
			<point x="430" y="579"/>
			<point x="414" y="508" type="curve" smooth="yes"/>
			<point x="395" y="425" type="line"/>
			<point x="413" y="417"/>
			<point x="422" y="401"/>
			<point x="414" y="368" type="curve" smooth="yes"/>
			<point x="371" y="180" type="line" smooth="yes"/>
			<point x="361" y="136"/>
			<point x="325" y="110"/>
			<point x="281" y="110" type="curve" smooth="yes"/>
			<point x="237" y="110"/>
			<point x="215" y="136"/>
			<point x="225" y="180" type="curve" smooth="yes"/>
			<point x="251" y="292" type="line"/>
			<point x="318" y="439" type="line"/>
			<point x="342" y="544" type="line" smooth="yes"/>
			<point x="351" y="585"/>
			<point x="325" y="612"/>
			<point x="238" y="612" type="curve" smooth="yes"/>
			<point x="159" y="612"/>
			<point x="115" y="591"/>
			<point x="101" y="529" type="curve" smooth="yes"/>
			<point x="87" y="469"/>
			<point x="115" y="430"/>
			<point x="179" y="430" type="curve" smooth="yes"/>
			<point x="192" y="430" type="line"/>
			<point x="151" y="439" type="line"/>
			<point x="81" y="292" type="line"/>
			<point x="55" y="180" type="line" smooth="yes"/>
			<point x="27" y="58"/>
			<point x="109" y="-10"/>
		</contour>
		<contour>
			<point x="204" y="556" type="curve"/>
			<point x="187" y="486" type="line"/>
			<point x="167" y="486"/>
			<point x="158" y="498"/>
			<point x="164" y="521" type="curve" smooth="yes"/>
			<point x="169" y="544"/>
			<point x="184" y="556"/>
		</contour>
	</outline>
	<anchor name="bottom" x="573" y="0"/>
	<anchor name="bottomright" x="805" y="0"/>
	<anchor name="top" x="713" y="606"/>
	<anchor name="topright" x="955" y="606"/>
</glyph>
<glyph name="ngo-khmer" format="2">
  <advance width="626"/>
  <unicode hex="1784"/>
  <anchor x="260" y="0" name="bottom"/>
  <anchor x="507" y="0" name="bottomright"/>
  <anchor x="390" y="606" name="top"/>
  <anchor x="623" y="606" name="topright"/>
  <outline>
    <contour>
      <point x="14" y="0" type="line"/>
      <point x="176" y="0" type="line"/>
      <point x="287" y="91" type="line"/>
      <point x="357" y="0" type="line"/>
      <point x="507" y="0" type="line"/>
      <point x="587" y="344" type="line" smooth="yes"/>
      <point x="599" y="396"/>
      <point x="591" y="430"/>
      <point x="524" y="458" type="curve"/>
      <point x="391" y="400" type="line"/>
      <point x="426" y="384"/>
      <point x="422" y="366"/>
      <point x="417" y="344" type="curve" smooth="yes"/>
      <point x="372" y="150" type="line"/>
      <point x="311" y="223" type="line"/>
      <point x="219" y="150" type="line"/>
      <point x="256" y="312" type="line"/>
      <point x="39" y="312" type="line"/>
      <point x="16" y="212" type="line"/>
      <point x="63" y="212" type="line"/>
    </contour>
    <contour>
      <point x="266" y="367" type="curve" smooth="yes"/>
      <point x="374" y="367"/>
      <point x="452" y="407"/>
      <point x="473" y="421" type="curve"/>
      <point x="523" y="426"/>
      <point x="586" y="454"/>
      <point x="601" y="519" type="curve" smooth="yes"/>
      <point x="614" y="577"/>
      <point x="580" y="612"/>
      <point x="506" y="612" type="curve" smooth="yes"/>
      <point x="432" y="612"/>
      <point x="381" y="578"/>
      <point x="367" y="519" type="curve" smooth="yes"/>
      <point x="356" y="469"/>
      <point x="384" y="432"/>
      <point x="434" y="432" type="curve"/>
      <point x="430" y="501" type="line"/>
      <point x="390" y="469"/>
      <point x="361" y="456"/>
      <point x="325" y="456" type="curve" smooth="yes"/>
      <point x="292" y="456"/>
      <point x="274" y="472"/>
      <point x="280" y="498" type="curve" smooth="yes"/>
      <point x="284" y="516"/>
      <point x="304" y="540"/>
      <point x="308" y="557" type="curve" smooth="yes"/>
      <point x="326" y="634"/>
      <point x="248" y="634"/>
      <point x="208" y="634" type="curve" smooth="yes"/>
      <point x="133" y="634" type="line"/>
      <point x="113" y="544" type="line"/>
      <point x="130" y="544" type="line" smooth="yes"/>
      <point x="135" y="544"/>
      <point x="148" y="544"/>
      <point x="144" y="529" type="curve" smooth="yes"/>
      <point x="141" y="516"/>
      <point x="123" y="499"/>
      <point x="117" y="473" type="curve" smooth="yes"/>
      <point x="102" y="409"/>
      <point x="158" y="367"/>
    </contour>
    <contour>
      <point x="478" y="492" type="curve" smooth="yes"/>
      <point x="464" y="492"/>
      <point x="456" y="502"/>
      <point x="460" y="517" type="curve" smooth="yes"/>
      <point x="463" y="532"/>
      <point x="475" y="542"/>
      <point x="489" y="542" type="curve" smooth="yes"/>
      <point x="503" y="542"/>
      <point x="511" y="532"/>
      <point x="508" y="517" type="curve" smooth="yes"/>
      <point x="504" y="502"/>
      <point x="492" y="492"/>
    </contour>
  </outline>
</glyph>
<glyph name="ca-khmer" format="2">
	<advance width="646"/>
	<unicode hex="1785"/>
	<anchor x="400" y="606" name="top"/>
	<anchor x="647" y="606" name="topright"/>
	<anchor x="505" y="0" name="bottomright"/>
	<anchor x="260" y="0" name="bottom"/>
	<outline>
		<contour>
			<point x="272" y="-10" type="curve" smooth="yes"/>
			<point x="426" y="-10"/>
			<point x="522" y="59"/>
			<point x="549" y="180" type="curve"/>
			<point x="589" y="354" type="line"/>
			<point x="600" y="400"/>
			<point x="564" y="422"/>
			<point x="481" y="422" type="curve" smooth="yes"/>
			<point x="397" y="422"/>
			<point x="356" y="398"/>
			<point x="342" y="337" type="curve" smooth="yes"/>
			<point x="328" y="277"/>
			<point x="354" y="240"/>
			<point x="420" y="240" type="curve" smooth="yes"/>
			<point x="433" y="240" type="line"/>
			<point x="401" y="278" type="line"/>
			<point x="379" y="180" type="line"/>
			<point x="369" y="136"/>
			<point x="331" y="110"/>
			<point x="285" y="110" type="curve" smooth="yes"/>
			<point x="238" y="110"/>
			<point x="215" y="136"/>
			<point x="225" y="180" type="curve" smooth="yes"/>
			<point x="268" y="366" type="line" smooth="yes"/>
			<point x="279" y="412"/>
			<point x="267" y="432"/>
			<point x="244" y="448" type="curve"/>
			<point x="247" y="461" type="line"/>
			<point x="250" y="474"/>
			<point x="257" y="478"/>
			<point x="272" y="478" type="curve" smooth="yes"/>
			<point x="622" y="478" type="line"/>
			<point x="651" y="606" type="line"/>
			<point x="254" y="606" type="line" smooth="yes"/>
			<point x="161" y="606"/>
			<point x="113" y="570"/>
			<point x="96" y="493" type="curve" smooth="yes"/>
			<point x="81" y="427" type="line"/>
			<point x="98" y="416"/>
			<point x="105" y="400"/>
			<point x="98" y="368" type="curve" smooth="yes"/>
			<point x="55" y="180" type="line" smooth="yes"/>
			<point x="27" y="59"/>
			<point x="116" y="-10"/>
		</contour>
		<contour>
			<point x="445" y="366" type="curve"/>
			<point x="429" y="296" type="line"/>
			<point x="409" y="296"/>
			<point x="400" y="311"/>
			<point x="405" y="334" type="curve" smooth="yes"/>
			<point x="410" y="356"/>
			<point x="425" y="366"/>
		</contour>
	</outline>
</glyph>
<glyph name="cha-khmer" format="2">
	<unicode hex="1786"/>
	<advance width="645"/>
	<outline>
		<contour>
			<point x="32" y="0" type="curve"/>
			<point x="183" y="0" type="line"/>
			<point x="268" y="366" type="line" smooth="yes"/>
			<point x="279" y="412"/>
			<point x="267" y="432"/>
			<point x="244" y="448" type="curve"/>
			<point x="247" y="461" type="line"/>
			<point x="250" y="474"/>
			<point x="257" y="478"/>
			<point x="272" y="478" type="curve" smooth="yes"/>
			<point x="622" y="478" type="line"/>
			<point x="651" y="606" type="line"/>
			<point x="254" y="606" type="line" smooth="yes"/>
			<point x="161" y="606"/>
			<point x="113" y="570"/>
			<point x="96" y="493" type="curve" smooth="yes"/>
			<point x="81" y="427" type="line"/>
			<point x="98" y="416"/>
			<point x="105" y="400"/>
			<point x="98" y="368" type="curve" smooth="yes"/>
			<point x="58" y="196" type="line"/>
			<point x="29" y="179"/>
			<point x="11" y="158"/>
			<point x="3" y="122" type="curve" smooth="yes"/>
			<point x="-8" y="74"/>
			<point x="4" y="39"/>
		</contour>
		<contour>
			<point x="380" y="-6" type="curve" smooth="yes"/>
			<point x="453" y="-6"/>
			<point x="511" y="23"/>
			<point x="532" y="114" type="curve" smooth="yes"/>
			<point x="588" y="354" type="line" smooth="yes"/>
			<point x="599" y="400"/>
			<point x="563" y="422"/>
			<point x="480" y="422" type="curve" smooth="yes"/>
			<point x="396" y="422"/>
			<point x="355" y="398"/>
			<point x="341" y="337" type="curve" smooth="yes"/>
			<point x="327" y="277"/>
			<point x="353" y="240"/>
			<point x="419" y="240" type="curve" smooth="yes"/>
			<point x="432" y="240" type="line"/>
			<point x="400" y="278" type="line"/>
			<point x="371" y="152" type="line" smooth="yes"/>
			<point x="368" y="138"/>
			<point x="359" y="132"/>
			<point x="349" y="132" type="curve" smooth="yes"/>
			<point x="335" y="132"/>
			<point x="327" y="152"/>
			<point x="315" y="166" type="curve" smooth="yes"/>
			<point x="296" y="190"/>
			<point x="270" y="196"/>
			<point x="231" y="196" type="curve" smooth="yes"/>
			<point x="201" y="196" type="line"/>
			<point x="177" y="93" type="line"/>
			<point x="206" y="93" type="line" smooth="yes"/>
			<point x="224" y="93"/>
			<point x="234" y="93"/>
			<point x="261" y="56" type="curve" smooth="yes"/>
			<point x="287" y="21"/>
			<point x="310" y="-6"/>
		</contour>
		<contour>
			<point x="444" y="366" type="curve"/>
			<point x="428" y="296" type="line"/>
			<point x="408" y="296"/>
			<point x="399" y="311"/>
			<point x="404" y="334" type="curve" smooth="yes"/>
			<point x="409" y="356"/>
			<point x="424" y="366"/>
		</contour>
	</outline>
	<anchor name="bottom" x="259" y="0"/>
	<anchor name="bottomright" x="494" y="0"/>
	<anchor name="top" x="399" y="606"/>
	<anchor name="topright" x="646" y="606"/>
</glyph>
<glyph name="co-khmer" format="2">
  <advance width="637"/>
  <unicode hex="1787"/>
  <anchor x="255" y="0" name="bottom"/>
  <anchor x="498" y="0" name="bottomright"/>
  <anchor x="395" y="606" name="top"/>
  <anchor x="638" y="606" name="topright"/>
  <outline>
    <contour>
      <point x="13" y="0" type="line"/>
      <point x="175" y="0" type="line"/>
      <point x="282" y="92" type="line"/>
      <point x="348" y="0" type="line"/>
      <point x="498" y="0" type="line"/>
      <point x="583" y="368" type="line"/>
      <point x="413" y="368" type="line"/>
      <point x="363" y="150" type="line"/>
      <point x="306" y="223" type="line"/>
      <point x="217" y="150" type="line"/>
      <point x="267" y="366" type="line" smooth="yes"/>
      <point x="278" y="412"/>
      <point x="267" y="432"/>
      <point x="244" y="448" type="curve"/>
      <point x="247" y="461" type="line"/>
      <point x="250" y="474"/>
      <point x="257" y="478"/>
      <point x="272" y="478" type="curve" smooth="yes"/>
      <point x="323" y="478" type="line"/>
      <point x="381" y="454" type="line"/>
      <point x="483" y="454" type="line" smooth="yes"/>
      <point x="586" y="454"/>
      <point x="616" y="511"/>
      <point x="629" y="568" type="curve" smooth="yes"/>
      <point x="644" y="634" type="line"/>
      <point x="496" y="634" type="line"/>
      <point x="487" y="593" type="line" smooth="yes"/>
      <point x="482" y="571"/>
      <point x="468" y="568"/>
      <point x="453" y="568" type="curve" smooth="yes"/>
      <point x="441" y="568" type="line"/>
      <point x="352" y="606" type="line"/>
      <point x="254" y="606" type="line" smooth="yes"/>
      <point x="161" y="606"/>
      <point x="113" y="570"/>
      <point x="96" y="493" type="curve" smooth="yes"/>
      <point x="81" y="427" type="line"/>
      <point x="98" y="416"/>
      <point x="105" y="400"/>
      <point x="98" y="368" type="curve" smooth="yes"/>
    </contour>
  </outline>
</glyph>
<glyph name="cho-khmer" format="2">
	<unicode hex="1788"/>
	<advance width="1252"/>
	<outline>
		<contour>
			<point x="546" y="-10" type="curve" smooth="yes"/>
			<point x="634" y="-10"/>
			<point x="700" y="20"/>
			<point x="754" y="84" type="curve"/>
			<point x="720" y="84" type="line"/>
			<point x="752" y="21"/>
			<point x="816" y="-10"/>
			<point x="904" y="-10" type="curve" smooth="yes"/>
			<point x="1033" y="-10"/>
			<point x="1126" y="57"/>
			<point x="1153" y="174" type="curve" smooth="yes"/>
			<point x="1198" y="369" type="line" smooth="yes"/>
			<point x="1209" y="416"/>
			<point x="1194" y="432"/>
			<point x="1156" y="448" type="curve"/>
			<point x="1159" y="462" type="line" smooth="yes"/>
			<point x="1162" y="475"/>
			<point x="1169" y="478"/>
			<point x="1181" y="478" type="curve" smooth="yes"/>
			<point x="1229" y="478" type="line"/>
			<point x="1258" y="606" type="line"/>
			<point x="1153" y="606" type="line" smooth="yes"/>
			<point x="1085" y="606"/>
			<point x="1044" y="579"/>
			<point x="1028" y="508" type="curve" smooth="yes"/>
			<point x="1009" y="425" type="line"/>
			<point x="1027" y="417"/>
			<point x="1036" y="401"/>
			<point x="1028" y="368" type="curve" smooth="yes"/>
			<point x="985" y="180" type="line" smooth="yes"/>
			<point x="975" y="136"/>
			<point x="940" y="110"/>
			<point x="898" y="110" type="curve" smooth="yes"/>
			<point x="855" y="110"/>
			<point x="835" y="136"/>
			<point x="845" y="180" type="curve" smooth="yes"/>
			<point x="888" y="369" type="line" smooth="yes"/>
			<point x="899" y="416"/>
			<point x="884" y="432"/>
			<point x="846" y="448" type="curve"/>
			<point x="849" y="462" type="line" smooth="yes"/>
			<point x="852" y="475"/>
			<point x="859" y="478"/>
			<point x="871" y="478" type="curve" smooth="yes"/>
			<point x="919" y="478" type="line"/>
			<point x="948" y="606" type="line"/>
			<point x="843" y="606" type="line" smooth="yes"/>
			<point x="775" y="606"/>
			<point x="734" y="579"/>
			<point x="718" y="508" type="curve" smooth="yes"/>
			<point x="699" y="425" type="line"/>
			<point x="717" y="417"/>
			<point x="726" y="401"/>
			<point x="718" y="368" type="curve" smooth="yes"/>
			<point x="675" y="180" type="line" smooth="yes"/>
			<point x="665" y="137"/>
			<point x="631" y="110"/>
			<point x="588" y="110" type="curve" smooth="yes"/>
			<point x="545" y="110"/>
			<point x="525" y="136"/>
			<point x="535" y="180" type="curve" smooth="yes"/>
			<point x="592" y="426" type="line" smooth="yes"/>
			<point x="620" y="547"/>
			<point x="529" y="616"/>
			<point x="381" y="616" type="curve" smooth="yes"/>
			<point x="231" y="616"/>
			<point x="140" y="547"/>
			<point x="112" y="426" type="curve" smooth="yes"/>
			<point x="29" y="71" type="line" smooth="yes"/>
			<point x="16" y="15"/>
			<point x="49" y="-6"/>
			<point x="132" y="-6" type="curve" smooth="yes"/>
			<point x="216" y="-6"/>
			<point x="259" y="12"/>
			<point x="274" y="77" type="curve" smooth="yes"/>
			<point x="288" y="137"/>
			<point x="261" y="176"/>
			<point x="195" y="176" type="curve" smooth="yes"/>
			<point x="182" y="176" type="line"/>
			<point x="214" y="138" type="line"/>
			<point x="282" y="426" type="line" smooth="yes"/>
			<point x="292" y="470"/>
			<point x="326" y="496"/>
			<point x="368" y="496" type="curve" smooth="yes"/>
			<point x="408" y="496"/>
			<point x="432" y="470"/>
			<point x="422" y="426" type="curve" smooth="yes"/>
			<point x="363" y="174" type="line" smooth="yes"/>
			<point x="336" y="57"/>
			<point x="418" y="-10"/>
		</contour>
		<contour>
			<point x="170" y="50" type="curve"/>
			<point x="186" y="120" type="line"/>
			<point x="206" y="120"/>
			<point x="215" y="105"/>
			<point x="210" y="82" type="curve" smooth="yes"/>
			<point x="205" y="59"/>
			<point x="190" y="50"/>
		</contour>
	</outline>
	<anchor name="bottom" x="874" y="0"/>
	<anchor name="bottomright" x="1103" y="0"/>
	<anchor name="top" x="1014" y="606"/>
	<anchor name="topright" x="1253" y="606"/>
</glyph>
<glyph name="nyo-khmer" format="2">
	<advance width="954"/>
	<unicode hex="1789"/>
	<anchor x="713" y="606" name="top"/>
	<anchor x="925" y="606" name="topright"/>
	<anchor x="745" y="-258" name="bottomright"/>
	<anchor x="518" y="-258" name="bottom"/>
	<outline>
		<contour>
			<point x="519" y="-258" type="curve" smooth="yes"/>
			<point x="597" y="-258" type="line" smooth="yes"/>
			<point x="711" y="-258"/>
			<point x="767" y="-238"/>
			<point x="786" y="-155" type="curve" smooth="yes"/>
			<point x="799" y="-97"/>
			<point x="781" y="-42"/>
			<point x="687" y="-42" type="curve" smooth="yes"/>
			<point x="663" y="-42"/>
			<point x="634" y="-45"/>
			<point x="615" y="-49" type="curve"/>
			<point x="599" y="-116" type="line"/>
			<point x="609" y="-114"/>
			<point x="624" y="-111"/>
			<point x="633" y="-111" type="curve" smooth="yes"/>
			<point x="646" y="-111"/>
			<point x="652" y="-117"/>
			<point x="650" y="-127" type="curve" smooth="yes"/>
			<point x="647" y="-140"/>
			<point x="633" y="-148"/>
			<point x="612" y="-148" type="curve" smooth="yes"/>
			<point x="545" y="-148" type="line" smooth="yes"/>
			<point x="395" y="-148"/>
			<point x="314" y="-70"/>
			<point x="79" y="-70" type="curve" smooth="yes"/>
			<point x="47" y="-70" type="line"/>
			<point x="21" y="-180" type="line"/>
			<point x="53" y="-180" type="line" smooth="yes"/>
			<point x="239" y="-180"/>
			<point x="321" y="-258"/>
		</contour>
		<component base="nyo-khmer.less"/>
	</outline>
</glyph>
<glyph name="da-khmer" format="2">
	<advance width="638"/>
	<unicode hex="178A"/>
	<anchor x="396" y="606" name="top"/>
	<anchor x="639" y="606" name="topright"/>
	<anchor x="499" y="0" name="bottomright"/>
	<anchor x="256" y="0" name="bottom"/>
	<outline>
		<contour>
			<point x="13" y="0" type="line"/>
			<point x="175" y="0" type="line"/>
			<point x="283" y="92" type="line"/>
			<point x="349" y="0" type="line"/>
			<point x="499" y="0" type="line"/>
			<point x="582" y="360" type="line"/>
			<point x="412" y="360" type="line"/>
			<point x="364" y="150" type="line"/>
			<point x="307" y="223" type="line"/>
			<point x="218" y="150" type="line"/>
			<point x="266" y="360" type="line"/>
			<point x="96" y="360" type="line"/>
		</contour>
		<contour>
			<point x="332" y="388" type="curve" smooth="yes"/>
			<point x="511" y="388"/>
			<point x="610" y="454"/>
			<point x="638" y="577" type="curve" smooth="yes"/>
			<point x="651" y="634" type="line"/>
			<point x="485" y="634" type="line"/>
			<point x="472" y="577" type="line" smooth="yes"/>
			<point x="459" y="522"/>
			<point x="425" y="496"/>
			<point x="354" y="496" type="curve" smooth="yes"/>
			<point x="318" y="496"/>
			<point x="297" y="501"/>
			<point x="301" y="519" type="curve" smooth="yes"/>
			<point x="303" y="527"/>
			<point x="312" y="534"/>
			<point x="321" y="534" type="curve" smooth="yes"/>
			<point x="328" y="534"/>
			<point x="332" y="533"/>
			<point x="341" y="531" type="curve"/>
			<point x="357" y="602" type="line"/>
			<point x="337" y="608"/>
			<point x="313" y="612"/>
			<point x="286" y="612" type="curve" smooth="yes"/>
			<point x="205" y="612"/>
			<point x="143" y="601"/>
			<point x="126" y="527" type="curve" smooth="yes"/>
			<point x="107" y="445"/>
			<point x="182" y="388"/>
		</contour>
	</outline>
</glyph>
<glyph name="ttha-khmer" format="2">
	<advance width="650"/>
	<unicode hex="178B"/>
	<anchor x="402" y="606" name="top"/>
	<anchor x="640" y="606" name="topright"/>
	<anchor x="501" y="0" name="bottomright"/>
	<anchor x="262" y="0" name="bottom"/>
	<outline>
		<contour>
			<point x="275" y="-10" type="curve" smooth="yes"/>
			<point x="432" y="-10"/>
			<point x="525" y="59"/>
			<point x="553" y="180" type="curve" smooth="yes"/>
			<point x="594" y="359" type="line" smooth="yes"/>
			<point x="605" y="405"/>
			<point x="581" y="435"/>
			<point x="520" y="451" type="curve"/>
			<point x="523" y="463" type="line" smooth="yes"/>
			<point x="526" y="475"/>
			<point x="533" y="481"/>
			<point x="543" y="481" type="curve" smooth="yes"/>
			<point x="549" y="481" type="line"/>
			<point x="590" y="471" type="line"/>
			<point x="599" y="471" type="line" smooth="yes"/>
			<point x="634" y="471"/>
			<point x="659" y="489"/>
			<point x="667" y="525" type="curve" smooth="yes"/>
			<point x="694" y="642" type="line"/>
			<point x="550" y="642" type="line"/>
			<point x="532" y="564" type="line"/>
			<point x="564" y="569" type="line"/>
			<point x="508" y="606" type="line"/>
			<point x="475" y="606" type="line" smooth="yes"/>
			<point x="432" y="606"/>
			<point x="411" y="579"/>
			<point x="402" y="539" type="curve" smooth="yes"/>
			<point x="375" y="422" type="line"/>
			<point x="413" y="414"/>
			<point x="433" y="397"/>
			<point x="425" y="363" type="curve" smooth="yes"/>
			<point x="383" y="180" type="line" smooth="yes"/>
			<point x="373" y="136"/>
			<point x="336" y="110"/>
			<point x="287" y="110" type="curve" smooth="yes"/>
			<point x="239" y="110"/>
			<point x="215" y="136"/>
			<point x="225" y="180" type="curve" smooth="yes"/>
			<point x="250" y="292" type="line"/>
			<point x="311" y="439" type="line"/>
			<point x="336" y="544" type="line" smooth="yes"/>
			<point x="346" y="585"/>
			<point x="318" y="612"/>
			<point x="231" y="612" type="curve" smooth="yes"/>
			<point x="152" y="612"/>
			<point x="108" y="581"/>
			<point x="94" y="519" type="curve" smooth="yes"/>
			<point x="80" y="459"/>
			<point x="107" y="430"/>
			<point x="172" y="430" type="curve" smooth="yes"/>
			<point x="185" y="430" type="line"/>
			<point x="144" y="439" type="line"/>
			<point x="80" y="292" type="line"/>
			<point x="55" y="180" type="line" smooth="yes"/>
			<point x="28" y="59"/>
			<point x="119" y="-10"/>
		</contour>
		<contour>
			<point x="197" y="556" type="curve"/>
			<point x="181" y="486" type="line"/>
			<point x="162" y="486"/>
			<point x="153" y="498"/>
			<point x="158" y="521" type="curve" smooth="yes"/>
			<point x="164" y="544"/>
			<point x="178" y="556"/>
		</contour>
	</outline>
</glyph>
<glyph name="do-khmer" format="2">
  <advance width="605"/>
  <unicode hex="178C"/>
  <anchor x="235" y="0" name="bottom"/>
  <anchor x="472" y="0" name="bottomright"/>
  <anchor x="381" y="617" name="top"/>
  <anchor x="615" y="617" name="topright"/>
  <outline>
    <contour>
      <point x="183" y="-10" type="curve" smooth="yes"/>
      <point x="279" y="-10"/>
      <point x="334" y="36"/>
      <point x="367" y="109" type="curve"/>
      <point x="354" y="164" type="line"/>
      <point x="343" y="140"/>
      <point x="299" y="108"/>
      <point x="253" y="108" type="curve" smooth="yes"/>
      <point x="217" y="108"/>
      <point x="197" y="125"/>
      <point x="204" y="158" type="curve" smooth="yes"/>
      <point x="209" y="181" type="line"/>
      <point x="467" y="210"/>
      <point x="549" y="277"/>
      <point x="579" y="404" type="curve" smooth="yes"/>
      <point x="600" y="493" type="line"/>
      <point x="482" y="616" type="line"/>
      <point x="470" y="616" type="line"/>
      <point x="366" y="546" type="line"/>
      <point x="292" y="616" type="line"/>
      <point x="280" y="616" type="line"/>
      <point x="106" y="493" type="line"/>
      <point x="85" y="403" type="line" smooth="yes"/>
      <point x="71" y="343"/>
      <point x="108" y="320"/>
      <point x="194" y="320" type="curve" smooth="yes"/>
      <point x="236" y="320"/>
      <point x="266" y="325"/>
      <point x="277" y="328" type="curve"/>
      <point x="294" y="400" type="line"/>
      <point x="288" y="398"/>
      <point x="280" y="397"/>
      <point x="274" y="397" type="curve" smooth="yes"/>
      <point x="262" y="397"/>
      <point x="253" y="404"/>
      <point x="256" y="417" type="curve" smooth="yes"/>
      <point x="264" y="452" type="line"/>
      <point x="290" y="469" type="line"/>
      <point x="335" y="427" type="line"/>
      <point x="341" y="427" type="line"/>
      <point x="404" y="469" type="line"/>
      <point x="422" y="452" type="line"/>
      <point x="410" y="399" type="line" smooth="yes"/>
      <point x="392" y="317"/>
      <point x="303" y="291"/>
      <point x="63" y="272" type="curve"/>
      <point x="36" y="155" type="line" smooth="yes"/>
      <point x="11" y="47"/>
      <point x="75" y="-10"/>
    </contour>
    <contour>
      <point x="327" y="0" type="line"/>
      <point x="472" y="0" type="line"/>
      <point x="514" y="181" type="line"/>
      <point x="354" y="181" type="line"/>
      <point x="334" y="94" type="line"/>
    </contour>
  </outline>
</glyph>
<glyph name="ttho-khmer" format="2">
  <advance width="954"/>
  <unicode hex="178D"/>
  <anchor x="573" y="0" name="bottom"/>
  <anchor x="805" y="0" name="bottomright"/>
  <anchor x="713" y="606" name="top"/>
  <anchor x="955" y="606" name="topright"/>
  <outline>
    <contour>
      <point x="331" y="0" type="line"/>
      <point x="501" y="0" type="line"/>
      <point x="614" y="489" type="line"/>
      <point x="496" y="616" type="line"/>
      <point x="485" y="616" type="line"/>
      <point x="385" y="552" type="line"/>
      <point x="313" y="616" type="line"/>
      <point x="302" y="616" type="line"/>
      <point x="126" y="489" type="line"/>
      <point x="29" y="71" type="line"/>
      <point x="16" y="15"/>
      <point x="49" y="-6"/>
      <point x="132" y="-6" type="curve" smooth="yes"/>
      <point x="216" y="-6"/>
      <point x="259" y="12"/>
      <point x="274" y="77" type="curve" smooth="yes"/>
      <point x="288" y="137"/>
      <point x="261" y="176"/>
      <point x="195" y="176" type="curve" smooth="yes"/>
      <point x="182" y="176" type="line"/>
      <point x="214" y="138" type="line"/>
      <point x="287" y="450" type="line"/>
      <point x="320" y="475" type="line"/>
      <point x="356" y="439" type="line"/>
      <point x="362" y="439" type="line"/>
      <point x="414" y="475" type="line"/>
      <point x="435" y="450" type="line"/>
    </contour>
    <contour>
      <point x="170" y="50" type="curve"/>
      <point x="186" y="120" type="line"/>
      <point x="206" y="120"/>
      <point x="215" y="105"/>
      <point x="210" y="82" type="curve" smooth="yes"/>
      <point x="205" y="59"/>
      <point x="190" y="50"/>
    </contour>
    <contour>
      <point x="691" y="-6" type="curve" smooth="yes"/>
      <point x="762" y="-6"/>
      <point x="820" y="22"/>
      <point x="840" y="109" type="curve" smooth="yes"/>
      <point x="900" y="369" type="line" smooth="yes"/>
      <point x="911" y="416"/>
      <point x="896" y="432"/>
      <point x="858" y="448" type="curve"/>
      <point x="861" y="462" type="line" smooth="yes"/>
      <point x="864" y="475"/>
      <point x="871" y="478"/>
      <point x="883" y="478" type="curve" smooth="yes"/>
      <point x="931" y="478" type="line"/>
      <point x="960" y="606" type="line"/>
      <point x="855" y="606" type="line" smooth="yes"/>
      <point x="787" y="606"/>
      <point x="746" y="579"/>
      <point x="730" y="508" type="curve" smooth="yes"/>
      <point x="711" y="425" type="line"/>
      <point x="729" y="417"/>
      <point x="738" y="401"/>
      <point x="730" y="368" type="curve" smooth="yes"/>
      <point x="680" y="151" type="line" smooth="yes"/>
      <point x="677" y="137"/>
      <point x="668" y="131"/>
      <point x="661" y="131" type="curve" smooth="yes"/>
      <point x="650" y="131"/>
      <point x="642" y="146"/>
      <point x="632" y="165" type="curve" smooth="yes"/>
      <point x="623" y="185"/>
      <point x="611" y="200"/>
      <point x="583" y="200" type="curve" smooth="yes"/>
      <point x="540" y="200"/>
      <point x="505" y="162"/>
      <point x="487" y="109" type="curve"/>
      <point x="509" y="76" type="line"/>
      <point x="521" y="89"/>
      <point x="531" y="97"/>
      <point x="543" y="97" type="curve" smooth="yes"/>
      <point x="557" y="97"/>
      <point x="563" y="84"/>
      <point x="572" y="68" type="curve" smooth="yes"/>
      <point x="589" y="32"/>
      <point x="613" y="-6"/>
    </contour>
  </outline>
</glyph>
<glyph name="nno-khmer" format="2">
  <advance width="1252"/>
  <unicode hex="178E"/>
  <anchor x="563" y="0" name="bottom"/>
  <anchor x="805" y="0" name="bottomright"/>
  <anchor x="703" y="606" name="top"/>
  <anchor x="1243" y="606" name="topright"/>
  <outline>
    <contour>
      <point x="421" y="432" type="curve" smooth="yes"/>
      <point x="321" y="0" type="line"/>
      <point x="483" y="0" type="line"/>
      <point x="590" y="92" type="line"/>
      <point x="655" y="0" type="line"/>
      <point x="805" y="0" type="line"/>
      <point x="905" y="432" type="line" smooth="yes"/>
      <point x="914" y="471"/>
      <point x="947" y="496"/>
      <point x="987" y="496" type="curve" smooth="yes"/>
      <point x="1030" y="496"/>
      <point x="1052" y="471"/>
      <point x="1043" y="432" type="curve" smooth="yes"/>
      <point x="943" y="0" type="line"/>
      <point x="1113" y="0" type="line"/>
      <point x="1213" y="432" type="line" smooth="yes"/>
      <point x="1239" y="543"/>
      <point x="1149" y="616"/>
      <point x="1000" y="616" type="curve" smooth="yes"/>
      <point x="851" y="616"/>
      <point x="761" y="543"/>
      <point x="735" y="432" type="curve" smooth="yes"/>
      <point x="670" y="150" type="line"/>
      <point x="617" y="235" type="line"/>
      <point x="526" y="150" type="line"/>
      <point x="591" y="432" type="line" smooth="yes"/>
      <point x="617" y="543"/>
      <point x="530" y="616"/>
      <point x="380" y="616" type="curve" smooth="yes"/>
      <point x="230" y="616"/>
      <point x="139" y="543"/>
      <point x="113" y="432" type="curve" smooth="yes"/>
      <point x="29" y="71" type="line" smooth="yes"/>
      <point x="16" y="15"/>
      <point x="49" y="-6"/>
      <point x="132" y="-6" type="curve" smooth="yes"/>
      <point x="216" y="-6"/>
      <point x="259" y="12"/>
      <point x="274" y="77" type="curve" smooth="yes"/>
      <point x="288" y="137"/>
      <point x="261" y="176"/>
      <point x="195" y="176" type="curve" smooth="yes"/>
      <point x="182" y="176" type="line"/>
      <point x="214" y="138" type="line"/>
      <point x="283" y="432" type="line" smooth="yes"/>
      <point x="292" y="471"/>
      <point x="325" y="496"/>
      <point x="367" y="496" type="curve" smooth="yes"/>
      <point x="409" y="496"/>
      <point x="430" y="471"/>
    </contour>
    <contour>
      <point x="170" y="50" type="curve"/>
      <point x="186" y="120" type="line"/>
      <point x="206" y="120"/>
      <point x="215" y="105"/>
      <point x="210" y="82" type="curve" smooth="yes"/>
      <point x="205" y="59"/>
      <point x="190" y="50"/>
    </contour>
  </outline>
</glyph>
<glyph name="ta-khmer" format="2">
  <advance width="646"/>
  <unicode hex="178F"/>
  <anchor x="260" y="0" name="bottom"/>
  <anchor x="507" y="0" name="bottomright"/>
  <anchor x="400" y="606" name="top"/>
  <anchor x="647" y="606" name="topright"/>
  <outline>
    <contour>
      <point x="391" y="236" type="curve" smooth="yes"/>
      <point x="337" y="0" type="line"/>
      <point x="507" y="0" type="line"/>
      <point x="561" y="236" type="line" smooth="yes"/>
      <point x="589" y="357"/>
      <point x="498" y="426"/>
      <point x="344" y="426" type="curve" smooth="yes"/>
      <point x="190" y="426"/>
      <point x="95" y="357"/>
      <point x="67" y="236" type="curve" smooth="yes"/>
      <point x="29" y="71" type="line"/>
      <point x="16" y="15"/>
      <point x="49" y="-6"/>
      <point x="132" y="-6" type="curve" smooth="yes"/>
      <point x="216" y="-6"/>
      <point x="259" y="12"/>
      <point x="274" y="77" type="curve" smooth="yes"/>
      <point x="288" y="137"/>
      <point x="261" y="176"/>
      <point x="195" y="176" type="curve" smooth="yes"/>
      <point x="182" y="176" type="line"/>
      <point x="214" y="138" type="line"/>
      <point x="237" y="236" type="line" smooth="yes"/>
      <point x="247" y="280"/>
      <point x="285" y="306"/>
      <point x="331" y="306" type="curve" smooth="yes"/>
      <point x="377" y="306"/>
      <point x="401" y="280"/>
    </contour>
    <contour>
      <point x="170" y="50" type="curve"/>
      <point x="186" y="120" type="line"/>
      <point x="206" y="120"/>
      <point x="215" y="105"/>
      <point x="210" y="82" type="curve" smooth="yes"/>
      <point x="205" y="59"/>
      <point x="190" y="50"/>
    </contour>
    <contour>
      <point x="120" y="478" type="line"/>
      <point x="622" y="478" type="line"/>
      <point x="651" y="606" type="line"/>
      <point x="149" y="606" type="line"/>
    </contour>
  </outline>
</glyph>
<glyph name="tha-khmer" format="2">
	<advance width="646"/>
	<unicode hex="1790"/>
	<anchor x="400" y="606" name="top"/>
	<anchor x="647" y="606" name="topright"/>
	<anchor x="505" y="0" name="bottomright"/>
	<anchor x="260" y="0" name="bottom"/>
	<outline>
		<contour>
			<point x="272" y="-10" type="curve" smooth="yes"/>
			<point x="426" y="-10"/>
			<point x="521" y="59"/>
			<point x="549" y="180" type="curve" smooth="yes"/>
			<point x="585" y="338" type="line" smooth="yes"/>
			<point x="596" y="384"/>
			<point x="560" y="406"/>
			<point x="477" y="406" type="curve" smooth="yes"/>
			<point x="393" y="406"/>
			<point x="352" y="382"/>
			<point x="338" y="321" type="curve" smooth="yes"/>
			<point x="324" y="261"/>
			<point x="350" y="224"/>
			<point x="416" y="224" type="curve" smooth="yes"/>
			<point x="429" y="224" type="line"/>
			<point x="397" y="262" type="line"/>
			<point x="379" y="180" type="line" smooth="yes"/>
			<point x="369" y="136"/>
			<point x="331" y="110"/>
			<point x="285" y="110" type="curve" smooth="yes"/>
			<point x="238" y="110"/>
			<point x="215" y="136"/>
			<point x="225" y="180" type="curve" smooth="yes"/>
			<point x="268" y="366" type="line" smooth="yes"/>
			<point x="279" y="412"/>
			<point x="268" y="432"/>
			<point x="245" y="448" type="curve"/>
			<point x="248" y="461" type="line"/>
			<point x="251" y="474"/>
			<point x="258" y="478"/>
			<point x="273" y="478" type="curve" smooth="yes"/>
			<point x="332" y="478" type="line"/>
			<point x="390" y="454" type="line"/>
			<point x="492" y="454" type="line" smooth="yes"/>
			<point x="595" y="454"/>
			<point x="625" y="511"/>
			<point x="638" y="568" type="curve" smooth="yes"/>
			<point x="653" y="634" type="line"/>
			<point x="505" y="634" type="line"/>
			<point x="496" y="593" type="line" smooth="yes"/>
			<point x="491" y="571"/>
			<point x="477" y="568"/>
			<point x="462" y="568" type="curve" smooth="yes"/>
			<point x="450" y="568" type="line"/>
			<point x="361" y="606" type="line"/>
			<point x="255" y="606" type="line" smooth="yes"/>
			<point x="162" y="606"/>
			<point x="114" y="570"/>
			<point x="97" y="493" type="curve" smooth="yes"/>
			<point x="82" y="427" type="line"/>
			<point x="99" y="416"/>
			<point x="106" y="400"/>
			<point x="99" y="368" type="curve" smooth="yes"/>
			<point x="55" y="180" type="line" smooth="yes"/>
			<point x="27" y="59"/>
			<point x="115" y="-10"/>
		</contour>
		<contour>
			<point x="441" y="350" type="curve"/>
			<point x="425" y="280" type="line"/>
			<point x="405" y="280"/>
			<point x="396" y="295"/>
			<point x="401" y="318" type="curve" smooth="yes"/>
			<point x="406" y="340"/>
			<point x="421" y="350"/>
		</contour>
	</outline>
</glyph>
<glyph name="to-khmer" format="2">
  <advance width="583"/>
  <unicode hex="1791"/>
  <anchor x="216" y="0" name="bottom"/>
  <anchor x="384" y="0" name="bottomright"/>
  <anchor x="338" y="606" name="top"/>
  <anchor x="594" y="606" name="topright"/>
  <outline>
    <contour>
      <point x="322" y="207" type="curve"/>
      <point x="364" y="310" type="line"/>
      <point x="272" y="314"/>
      <point x="225" y="361"/>
      <point x="242" y="433" type="curve" smooth="yes"/>
      <point x="252" y="476"/>
      <point x="282" y="495"/>
      <point x="330" y="495" type="curve" smooth="yes"/>
      <point x="375" y="495"/>
      <point x="403" y="472"/>
      <point x="395" y="437" type="curve" smooth="yes"/>
      <point x="393" y="428"/>
      <point x="385" y="409"/>
      <point x="376" y="395" type="curve"/>
      <point x="547" y="395" type="line"/>
      <point x="556" y="411"/>
      <point x="563" y="427"/>
      <point x="567" y="445" type="curve" smooth="yes"/>
      <point x="590" y="547"/>
      <point x="493" y="616"/>
      <point x="342" y="616" type="curve" smooth="yes"/>
      <point x="187" y="616"/>
      <point x="98" y="565"/>
      <point x="70" y="446" type="curve" smooth="yes"/>
      <point x="35" y="295"/>
      <point x="164" y="213"/>
    </contour>
    <contour>
      <point x="222" y="-10" type="curve" smooth="yes"/>
      <point x="348" y="-10"/>
      <point x="424" y="45"/>
      <point x="445" y="140" type="curve" smooth="yes"/>
      <point x="461" y="211" type="line"/>
      <point x="417" y="177" type="line"/>
      <point x="429" y="177" type="line" smooth="yes"/>
      <point x="483" y="177"/>
      <point x="523" y="202"/>
      <point x="537" y="262" type="curve" smooth="yes"/>
      <point x="550" y="317"/>
      <point x="520" y="359"/>
      <point x="440" y="359" type="curve" smooth="yes"/>
      <point x="367" y="359"/>
      <point x="323" y="329"/>
      <point x="312" y="282" type="curve" smooth="yes"/>
      <point x="279" y="141" type="line" smooth="yes"/>
      <point x="274" y="119"/>
      <point x="259" y="104"/>
      <point x="236" y="104" type="curve" smooth="yes"/>
      <point x="215" y="104"/>
      <point x="202" y="117"/>
      <point x="208" y="141" type="curve" smooth="yes"/>
      <point x="218" y="184" type="line"/>
      <point x="52" y="184" type="line"/>
      <point x="42" y="141" type="line" smooth="yes"/>
      <point x="20" y="45"/>
      <point x="94" y="-10"/>
    </contour>
    <contour>
      <point x="439" y="237" type="curve"/>
      <point x="453" y="297" type="line"/>
      <point x="471" y="297"/>
      <point x="476" y="283"/>
      <point x="472" y="268" type="curve" smooth="yes"/>
      <point x="467" y="247"/>
      <point x="455" y="237"/>
    </contour>
  </outline>
</glyph>
<glyph name="tho-khmer" format="2">
	<advance width="646"/>
	<unicode hex="1792"/>
	<anchor x="399" y="606" name="top"/>
	<anchor x="646" y="606" name="topright"/>
	<anchor x="507" y="0" name="bottomright"/>
	<anchor x="260" y="0" name="bottom"/>
	<outline>
		<contour>
			<point x="98" y="368" type="curve" smooth="yes"/>
			<point x="13" y="0" type="line"/>
			<point x="176" y="0" type="line"/>
			<point x="287" y="92" type="line"/>
			<point x="357" y="0" type="line"/>
			<point x="507" y="0" type="line"/>
			<point x="589" y="354" type="line" smooth="yes"/>
			<point x="600" y="400"/>
			<point x="564" y="422"/>
			<point x="481" y="422" type="curve" smooth="yes"/>
			<point x="397" y="422"/>
			<point x="356" y="398"/>
			<point x="342" y="337" type="curve" smooth="yes"/>
			<point x="328" y="277"/>
			<point x="354" y="240"/>
			<point x="420" y="240" type="curve" smooth="yes"/>
			<point x="433" y="240" type="line"/>
			<point x="401" y="278" type="line"/>
			<point x="372" y="150" type="line"/>
			<point x="311" y="223" type="line"/>
			<point x="218" y="150" type="line"/>
			<point x="268" y="366" type="line" smooth="yes"/>
			<point x="279" y="412"/>
			<point x="267" y="432"/>
			<point x="244" y="448" type="curve"/>
			<point x="247" y="461" type="line"/>
			<point x="250" y="474"/>
			<point x="257" y="478"/>
			<point x="272" y="478" type="curve" smooth="yes"/>
			<point x="622" y="478" type="line"/>
			<point x="651" y="606" type="line"/>
			<point x="254" y="606" type="line" smooth="yes"/>
			<point x="161" y="606"/>
			<point x="113" y="570"/>
			<point x="96" y="493" type="curve" smooth="yes"/>
			<point x="81" y="427" type="line"/>
			<point x="98" y="416"/>
			<point x="105" y="400"/>
		</contour>
		<contour>
			<point x="445" y="366" type="curve"/>
			<point x="429" y="296" type="line"/>
			<point x="409" y="296"/>
			<point x="400" y="311"/>
			<point x="405" y="334" type="curve" smooth="yes"/>
			<point x="410" y="356"/>
			<point x="425" y="366"/>
		</contour>
	</outline>
</glyph>
<glyph name="no-khmer" format="2">
	<unicode hex="1793"/>
	<advance width="612"/>
	<outline>
		<contour>
			<point x="317" y="-10" type="curve" smooth="yes"/>
			<point x="424" y="-10"/>
			<point x="488" y="43"/>
			<point x="510" y="136" type="curve" smooth="yes"/>
			<point x="544" y="282" type="line"/>
			<point x="353" y="301"/>
			<point x="238" y="325"/>
			<point x="260" y="421" type="curve" smooth="yes"/>
			<point x="271" y="470"/>
			<point x="314" y="499"/>
			<point x="364" y="499" type="curve" smooth="yes"/>
			<point x="409" y="499"/>
			<point x="430" y="481"/>
			<point x="424" y="455" type="curve" smooth="yes"/>
			<point x="421" y="439"/>
			<point x="405" y="428"/>
			<point x="390" y="428" type="curve" smooth="yes"/>
			<point x="381" y="428"/>
			<point x="371" y="432"/>
			<point x="366" y="434" type="curve"/>
			<point x="346" y="350" type="line"/>
			<point x="360" y="345"/>
			<point x="387" y="340"/>
			<point x="417" y="340" type="curve" smooth="yes"/>
			<point x="521" y="340"/>
			<point x="572" y="375"/>
			<point x="589" y="448" type="curve" smooth="yes"/>
			<point x="612" y="549"/>
			<point x="525" y="616"/>
			<point x="375" y="616" type="curve" smooth="yes"/>
			<point x="228" y="616"/>
			<point x="124" y="572"/>
			<point x="95" y="445" type="curve" smooth="yes"/>
			<point x="61" y="298"/>
			<point x="168" y="226"/>
			<point x="357" y="195" type="curve"/>
			<point x="349" y="159" type="line" smooth="yes"/>
			<point x="342" y="127"/>
			<point x="311" y="108"/>
			<point x="276" y="108" type="curve" smooth="yes"/>
			<point x="232" y="108"/>
			<point x="202" y="138"/>
			<point x="201" y="164" type="curve"/>
			<point x="161" y="109" type="line"/>
			<point x="162" y="38"/>
			<point x="216" y="-10"/>
		</contour>
		<contour>
			<point x="7" y="0" type="line"/>
			<point x="152" y="0" type="line"/>
			<point x="188" y="93" type="line"/>
			<point x="211" y="190" type="line"/>
			<point x="51" y="190" type="line"/>
		</contour>
	</outline>
	<anchor name="bottom" x="237" y="0"/>
	<anchor name="bottomright" x="469" y="0"/>
	<anchor name="top" x="372" y="604"/>
	<anchor name="topright" x="615" y="606"/>
</glyph>
<glyph name="pha-khmer" format="2">
	<unicode hex="1795"/>
	<advance width="646"/>
	<outline>
		<contour>
			<point x="99" y="368" type="curve" smooth="yes"/>
			<point x="14" y="0" type="line"/>
			<point x="176" y="0" type="line"/>
			<point x="287" y="92" type="line"/>
			<point x="357" y="0" type="line"/>
			<point x="507" y="0" type="line"/>
			<point x="585" y="338" type="line"/>
			<point x="596" y="384"/>
			<point x="560" y="406"/>
			<point x="477" y="406" type="curve" smooth="yes"/>
			<point x="393" y="406"/>
			<point x="352" y="382"/>
			<point x="338" y="321" type="curve" smooth="yes"/>
			<point x="324" y="261"/>
			<point x="350" y="224"/>
			<point x="416" y="224" type="curve" smooth="yes"/>
			<point x="429" y="224" type="line"/>
			<point x="397" y="262" type="line"/>
			<point x="370" y="144" type="line"/>
			<point x="310" y="217" type="line"/>
			<point x="216" y="144" type="line"/>
			<point x="268" y="366" type="line" smooth="yes"/>
			<point x="279" y="412"/>
			<point x="268" y="432"/>
			<point x="245" y="448" type="curve"/>
			<point x="248" y="461" type="line"/>
			<point x="251" y="474"/>
			<point x="258" y="478"/>
			<point x="273" y="478" type="curve" smooth="yes"/>
			<point x="332" y="478" type="line"/>
			<point x="390" y="454" type="line"/>
			<point x="492" y="454" type="line" smooth="yes"/>
			<point x="595" y="454"/>
			<point x="625" y="511"/>
			<point x="638" y="568" type="curve" smooth="yes"/>
			<point x="653" y="634" type="line"/>
			<point x="505" y="634" type="line"/>
			<point x="496" y="593" type="line" smooth="yes"/>
			<point x="491" y="571"/>
			<point x="477" y="568"/>
			<point x="462" y="568" type="curve" smooth="yes"/>
			<point x="450" y="568" type="line"/>
			<point x="361" y="606" type="line"/>
			<point x="255" y="606" type="line" smooth="yes"/>
			<point x="162" y="606"/>
			<point x="114" y="570"/>
			<point x="97" y="493" type="curve" smooth="yes"/>
			<point x="82" y="427" type="line"/>
			<point x="99" y="416"/>
			<point x="106" y="400"/>
		</contour>
		<contour>
			<point x="441" y="350" type="curve"/>
			<point x="425" y="280" type="line"/>
			<point x="405" y="280"/>
			<point x="396" y="295"/>
			<point x="401" y="318" type="curve" smooth="yes"/>
			<point x="406" y="340"/>
			<point x="421" y="350"/>
		</contour>
	</outline>
	<anchor name="bottom" x="260" y="0"/>
	<anchor name="bottomright" x="507" y="0"/>
	<anchor name="top" x="399" y="606"/>
	<anchor name="topright" x="646" y="606"/>
</glyph>
<glyph name="po-khmer" format="2">
  <advance width="646"/>
  <unicode hex="1796"/>
  <anchor x="260" y="0" name="bottom"/>
  <anchor x="507" y="0" name="bottomright"/>
  <anchor x="400" y="606" name="top"/>
  <anchor x="637" y="606" name="topright"/>
  <outline>
    <contour>
      <point x="337" y="0" type="line"/>
      <point x="507" y="0" type="line"/>
      <point x="620" y="489" type="line"/>
      <point x="503" y="616" type="line"/>
      <point x="491" y="616" type="line"/>
      <point x="388" y="552" type="line"/>
      <point x="313" y="616" type="line"/>
      <point x="301" y="616" type="line"/>
      <point x="126" y="489" type="line"/>
      <point x="29" y="71" type="line"/>
      <point x="16" y="15"/>
      <point x="49" y="-6"/>
      <point x="132" y="-6" type="curve" smooth="yes"/>
      <point x="216" y="-6"/>
      <point x="259" y="12"/>
      <point x="274" y="77" type="curve" smooth="yes"/>
      <point x="288" y="137"/>
      <point x="261" y="176"/>
      <point x="195" y="176" type="curve" smooth="yes"/>
      <point x="182" y="176" type="line"/>
      <point x="214" y="138" type="line"/>
      <point x="287" y="450" type="line"/>
      <point x="321" y="475" type="line"/>
      <point x="359" y="439" type="line"/>
      <point x="365" y="439" type="line"/>
      <point x="419" y="475" type="line"/>
      <point x="441" y="450" type="line"/>
    </contour>
    <contour>
      <point x="170" y="50" type="curve"/>
      <point x="186" y="120" type="line"/>
      <point x="206" y="120"/>
      <point x="215" y="105"/>
      <point x="210" y="82" type="curve" smooth="yes"/>
      <point x="205" y="59"/>
      <point x="190" y="50"/>
    </contour>
  </outline>
</glyph>
